<svg version="1.2" baseProfile="tiny-ps" xmlns="http://www.w3.org/2000/svg" viewBox="0 0 452 561" width="452" height="561">
	<title>Layer</title>
	<defs>
		<linearGradient id="grd1" gradientUnits="userSpaceOnUse"  x1="23.541" y1="82.889" x2="473.113" y2="92.436">
			<stop offset="0" stop-color="#dd2679"  />
			<stop offset="1" stop-color="#62afb5"  />
		</linearGradient>
	</defs>
	<style>
		tspan { white-space:pre }
		.shp0 { fill: url(#grd1) } 
	</style>
	<path id="Layer" fill-rule="evenodd" class="shp0" d="M226.61 3.14L237.88 1.22L249.4 9.22L260.92 17.21L284 16.72L307.09 16.23L323.5 29.21C338.77 41.28 341.4 42.93 361.22 52.84L382.53 63.5L400.81 103.17L415.1 113.16C422.96 118.65 429.61 123.51 429.89 123.96C430.16 124.4 430.01 129.65 429.54 135.63L428.69 146.49L433.56 151.94C438.85 157.89 438.87 157.93 437.43 162.95C436.89 164.85 436.82 166.65 437.28 166.95C439.11 168.16 440.55 172.32 439.95 174.7C439.43 176.79 440.34 178.36 445.26 183.91L451.2 190.59L446.68 201.25L442.15 211.91L445.4 219.32L448.66 226.72L443.54 235.39C440.72 240.16 438.42 244.99 438.42 246.14C438.42 247.28 439.1 250.86 439.94 254.09C441.46 259.95 441.45 259.98 438.57 265.73L435.67 271.5L437.76 285.85L439.85 300.2L435.39 304.29C432.93 306.54 427.63 311.47 423.61 315.24L416.31 322.1L412.7 340.13L409.09 358.16L395.23 371.32C387.6 378.56 379.75 385.31 377.77 386.33C375.8 387.34 373.97 389 373.7 390.02C373.43 391.04 372.02 392.3 370.57 392.81C368.44 393.57 366.17 397.14 359.09 410.88C354.23 420.29 349.73 428.01 349.09 428.02C348.44 428.03 338.6 429.09 327.22 430.39C308.06 432.56 306.28 432.94 303.39 435.37C301.2 437.21 299.11 438 296.41 438C292.85 438 291.98 438.63 285.23 446.11L277.92 454.22L269.6 453.65C263.23 453.22 261.36 453.38 261.6 454.34C261.77 455.02 266.42 462.64 271.92 471.27C281.36 486.08 282.09 486.95 285.09 486.97C289.22 487.01 292.82 491.24 292.04 495.14C291.58 497.45 292.61 498.92 299.63 505.91C304.1 510.36 307.48 514.27 307.15 514.6C306.82 514.93 292.46 513.62 275.24 511.7L243.92 508.2L170.42 531.63C129.99 544.52 92.98 556.37 88.18 557.96C83.37 559.55 79.23 560.5 78.97 560.08C78.71 559.66 80.45 555.98 82.85 551.91C86.04 546.48 86.96 544.05 86.31 542.82C84.14 538.72 87.27 533.01 91.71 532.99C93.55 532.98 97.03 527.62 112.66 500.78C125.03 479.52 131.06 468.24 130.41 467.59C128.9 466.09 129.22 460.33 130.91 458.65C132.23 457.33 131.41 454.88 123.69 437.12L114.99 417.07L107.95 415.41C101.76 413.95 97.74 413.87 74.42 414.68L47.92 415.6L40.56 410.12C36.52 407.1 33.04 404.15 32.84 403.57C32.63 402.98 32.34 396.93 32.19 390.12L31.92 377.74L26.29 372.62C19.36 366.3 18.35 363.01 21.47 356.89L23.65 352.62L21.41 345.49C19.24 338.57 19.23 338.26 20.95 334.94C21.92 333.05 25.4 328.72 28.66 325.32L34.61 319.13L28.58 310.49L22.56 301.86L24.03 297.68C25.67 293.02 29.61 288.54 36.61 283.38C39.19 281.47 43.45 276.91 46.07 273.24C50.41 267.15 51.02 265.57 52.97 255.33L55.11 244.11L50.82 239.21C47.81 235.77 42.75 232.13 33.87 227.01L21.2 219.71L21.84 211.11C22.18 206.37 22.72 200.42 23.02 197.89C23.49 193.88 23.31 193.2 21.59 192.76C20.51 192.47 18.82 191.02 17.84 189.52C16.35 187.24 16.24 186.3 17.21 183.74C18.35 180.72 18.24 180.56 9.89 172.75C5.23 168.39 1.42 164.27 1.42 163.6C1.42 162.92 3.4 156.1 5.83 148.44L10.25 134.5L5.12 124.77L0 115.05L4.45 111.27C15.55 101.87 15.14 102.55 17.37 90.05C18.49 83.76 19.75 78.32 20.16 77.98C20.58 77.63 25.58 76.28 31.28 74.97C42.68 72.35 42.12 72.85 44.83 62.96L46.35 57.42L53.63 55.26L60.92 53.1L67.83 42.05L74.74 31L87.58 31C98.1 31 100.42 30.74 100.42 29.56C100.42 26.09 108.55 23.53 111.19 26.17C112.09 27.07 116.06 24.9 128.14 16.88L143.92 6.42L161.42 8.13C188.61 10.79 187.68 10.88 194.02 5.08L199.4 0.16L215.35 5.05L226.61 3.14ZM194.26 8.37L189.6 12.66L179 75.58C173.17 110.19 168.2 139.35 167.96 140.39C167.71 141.5 167.9 141.91 168.41 141.39C168.9 140.9 184.85 116 203.86 86.05C226.96 49.66 238.09 31.27 237.42 30.6C236.87 30.05 236.41 28.23 236.41 26.55C236.4 23.63 235.64 23.09 218.51 13.75C208.66 8.39 200.23 4.02 199.76 4.04C199.3 4.06 196.82 6.01 194.26 8.37ZM224.92 6C219.42 6.97 214.47 7.57 213.92 7.31C209.49 5.27 219 11.22 227.22 15.63C235.62 20.15 237.79 20.94 238.99 19.94C239.8 19.27 240.25 17.99 240 17.11C239.74 16.22 238.8 12.91 237.9 9.75C237.01 6.59 235.97 4.05 235.6 4.11C235.22 4.17 230.42 5.02 224.92 6ZM241.13 11.92C242.47 17.23 243.05 18.11 246.39 19.76C249.8 21.44 250.42 21.48 253.28 20.12C255 19.31 256.42 18.33 256.42 17.96C256.42 17.37 252.48 14.52 242.29 7.72L239.62 5.93L241.13 11.92ZM145.77 10.75C146.04 11.71 150.44 40.74 155.54 75.25C160.65 109.76 165.08 138 165.4 138C165.99 138 186.47 17.98 186.44 14.75C186.42 13.79 186.08 12.99 185.67 12.98C185.25 12.97 176.14 12.07 165.42 10.99C154.69 9.9 145.77 9.01 145.6 9.01C145.42 9 145.5 9.79 145.77 10.75ZM134.42 15.61C129.74 18.72 125.62 21.54 125.25 21.88C124.89 22.22 118.18 46.96 110.35 76.85C100.84 113.17 96.48 131.42 97.2 131.87C99.02 132.99 162.53 147.22 163.11 146.64C163.66 146.09 145.04 18 143.65 12.73L142.92 9.97L134.42 15.61ZM264.92 19.98C257.29 20.7 250.05 23.39 250.67 25.27C251 26.26 322.33 44.87 326.17 44.97C326.85 44.98 327.42 44.61 327.42 44.13C327.42 43.65 322.45 37.8 316.37 31.13L305.33 19L288.62 19.16C279.43 19.25 268.77 19.62 264.92 19.98ZM117.17 27.11C115.33 28.48 114.42 30.08 114.42 31.91C114.42 35.57 110.65 39 106.62 39C103.77 39 102.29 40.42 91.29 53.75C84.59 61.86 78.46 69.26 77.66 70.19C76.38 71.69 77.2 74.97 85.02 99.44C89.86 114.6 94.07 127 94.38 127C94.69 127 100.68 105.06 107.69 78.25C114.7 51.44 120.71 28.49 121.04 27.25C121.79 24.48 120.75 24.44 117.17 27.11ZM248.73 30.87C247.76 32.43 251.13 41.94 269.69 89.9C285.71 131.3 292.21 146.99 293.25 146.78C294.12 146.61 301.53 128.87 312.34 101.05C329.36 57.29 329.95 55.53 328.22 53.8C327.23 52.81 326.42 51.12 326.42 50.04C326.42 48.61 325.39 47.81 322.67 47.09C317.05 45.61 250.5 29 250.18 29C250.02 29 249.37 29.84 248.73 30.87ZM323.84 35.27C330.08 42.35 330.19 42.43 332.15 41.19C332.97 40.66 330.85 38.46 325.65 34.47L317.92 28.54L323.84 35.27ZM71.02 41.38C62.28 54.93 62.45 52.99 69.19 62.02L75.09 69.93L87.5 54.79C102.13 36.95 101.47 37.93 100.75 35.17C100.21 33.1 99.66 33 88.31 33L76.43 33L71.02 41.38ZM204.53 89.75C184.68 120.96 168.4 146.95 168.36 147.5C168.29 148.42 244.25 166.5 245 165.74C245.19 165.56 244.69 136.85 243.9 101.95C243.1 67.05 242.45 37.26 242.43 35.75C242.42 34.24 242.01 33 241.52 33C241.03 33 224.39 58.54 204.53 89.75ZM245.47 43.5C245.35 54.01 247.63 165.4 247.97 165.82C248.11 166 252.66 164.8 258.07 163.16C263.49 161.51 271.85 158.99 276.67 157.55C281.98 155.96 285.42 154.41 285.42 153.6C285.42 152.87 286.27 151.19 287.3 149.87L289.19 147.47L268.33 93.49C256.86 63.79 247.04 38.6 246.51 37.5C245.81 36.03 245.53 37.62 245.47 43.5ZM340.59 47.65C340.88 49.13 347.58 51.98 356.58 54.45C358.64 55.02 358.7 54.96 357.1 53.96C356.1 53.33 351.9 51.28 347.77 49.4C341.69 46.63 340.33 46.3 340.59 47.65ZM339.66 53.18C339.98 54.02 350.72 68.73 363.52 85.85C385.22 114.89 387 117 389.85 116.99C392.67 116.98 393.13 116.47 395.51 110.71L398.11 104.44L389.15 84.91L380.2 65.39L361.06 59.05C350.53 55.57 341.28 52.48 340.49 52.18C339.53 51.82 339.26 52.15 339.66 53.18ZM334.8 55.75C333 56.05 329.98 63.03 314.98 101.49C300.28 139.2 297.47 147.22 298.36 148.9C298.96 150.01 300 150.72 300.68 150.47C301.36 150.22 319.87 144.64 341.81 138.06C363.75 131.49 382.04 125.75 382.45 125.31C382.87 124.86 383.49 123.15 383.83 121.5C384.4 118.77 382.36 115.68 361.38 87.5C348.68 70.45 337.99 56.25 337.61 55.95C337.23 55.65 335.96 55.56 334.8 55.75ZM53 57.89L48.07 59.62L45.99 66.95L43.91 74.28L33.42 76.76C27.64 78.13 22.75 79.39 22.55 79.57C22.35 79.75 25.68 88.66 29.95 99.36C39.85 124.18 39.77 124.14 49.17 109.63C70.45 76.76 73.42 71.84 72.69 70.62C72.27 69.91 69.69 66.33 66.97 62.67C61.52 55.3 60.91 55.1 53 57.89ZM59.14 97.94C45.52 119.02 44.46 121 45.51 123.31C46.27 124.96 47.73 126.01 49.79 126.37C57.39 127.69 91.53 131.22 92.01 130.74C92.62 130.13 75.2 74.98 74.42 75.05C74.14 75.07 67.27 85.37 59.14 97.94ZM18.96 93.39L17.25 102.92L10.89 108.21C7.4 111.12 4.65 113.91 4.79 114.42C4.92 114.93 11.2 117.09 18.73 119.23C30.88 122.68 32.6 122.96 33.93 121.63C34.75 120.81 35.42 119.76 35.42 119.29C35.42 118 22.36 85.62 21.46 84.68C21.03 84.23 19.91 88.15 18.96 93.39ZM397.68 112.47C395.84 117 395.65 118.41 396.59 120.49C397.71 122.94 397.99 123 408.33 123.01C414.15 123.02 419.93 123.3 421.17 123.63C422.4 123.96 423.41 123.84 423.4 123.37C423.39 122.49 402.84 107.73 400.93 107.23C400.37 107.08 398.91 109.44 397.68 112.47ZM7.83 125.72L12.43 134.64L10.42 140.48C9.32 143.7 8.55 146.46 8.71 146.63C8.87 146.79 14.26 143.23 20.67 138.71C30.33 131.91 32.34 130.06 32.37 127.92C32.42 125.18 33.83 125.73 5.07 117.34C3.58 116.91 4.13 118.56 7.83 125.72ZM397.45 126.75C397.49 127.55 423 143.28 425.15 143.82C426.05 144.05 426.42 142.63 426.43 138.82C426.43 135.89 426.72 131.81 427.06 129.75L427.68 126L412.55 126C404.23 126 397.43 126.34 397.45 126.75ZM44.47 130.45C43.15 131.85 41.32 133 40.4 133C39.08 133 37.32 137.8 32.1 155.66L25.47 178.32L27.94 180.61C31.24 183.67 31.25 188.33 27.95 191.38C25.84 193.34 25.41 194.84 24.89 202.08C24.56 206.71 24.08 211.56 23.81 212.85C23.55 214.14 23.75 215.04 24.27 214.85C25.41 214.42 91.42 135.01 91.42 134.06C91.42 133.68 82.3 132.36 71.17 131.11C60.03 129.86 50 128.62 48.89 128.37C47.58 128.06 46.01 128.8 44.47 130.45ZM345.92 139.63C325.02 145.9 306.18 151.5 304.07 152.08C301.95 152.66 300.42 153.34 300.68 153.59C301.18 154.1 364.68 165.09 364.99 164.72C366.52 162.87 385.42 130.89 385.42 130.15C385.42 129.58 385.08 128.92 384.67 128.68C384.25 128.44 366.82 133.37 345.92 139.63ZM393.42 131C392.59 131.53 391.02 131.99 389.92 132.01C388.42 132.04 385.48 136.1 378.18 148.24C372.82 157.14 368.77 164.7 369.18 165.05C369.58 165.4 382.29 166.9 397.42 168.38L424.92 171.07L426.32 168.98C427.1 167.84 429.17 166.29 430.94 165.56C433.03 164.68 434.38 163.27 434.82 161.51C436.03 156.69 428.86 149.79 411.64 139.2C403.41 134.14 396.28 130.01 395.79 130.01C395.31 130.02 394.24 130.47 393.42 131ZM20.2 141.21L7.48 150.31L5.33 156.76L3.18 163.21L9.55 169.68C17.36 177.61 20.67 180.08 22.21 179.13C23.18 178.53 36.42 135.32 36.42 132.76C36.42 130.54 31.63 133.04 20.2 141.21ZM59.84 176.07C40.63 199.09 25.03 218.28 25.16 218.71C25.46 219.68 44.52 230.9 45.92 230.93C46.47 230.94 68.29 215.53 94.42 196.69C137.4 165.68 141.94 162.14 142.21 159.43C142.53 156.21 142.05 155.95 101.84 137.46L94.76 134.2L59.84 176.07ZM108.92 137.77C109.47 138.31 117.32 142.19 126.37 146.4C142.79 154.03 142.82 154.04 146.14 152.46C149.06 151.07 149.82 151.05 152.34 152.31C154.94 153.61 155.5 153.55 158.47 151.67C160.26 150.53 161.32 149.48 160.82 149.32C160.32 149.17 149.12 146.54 135.92 143.49C122.72 140.43 111.02 137.67 109.92 137.35C108.59 136.97 108.25 137.11 108.92 137.77ZM160.17 153.36C157.14 155.09 156.43 156.07 156.44 158.5C156.46 161.33 157.87 162.38 181.69 177.27C195.56 185.95 208.38 193.98 210.17 195.12C211.95 196.26 213.42 196.97 213.42 196.7C213.42 195.79 165.6 151 164.75 151.11C164.29 151.17 162.23 152.18 160.17 153.36ZM179.12 160.33C224.14 202.92 221.39 200.55 225.36 200.18C229.02 199.83 229.05 199.79 236.73 184.39C242.01 173.8 244.04 168.8 243.18 168.48C241.04 167.7 172.77 152 171.5 152C170.85 152 174.27 155.75 179.12 160.33ZM298.42 158.49C297.74 159.32 297.4 160.78 297.68 161.74C298.1 163.24 323.8 229.05 328.94 241.8C330.06 244.57 331.21 245.99 332.18 245.8C333.16 245.6 338.93 231.93 348.55 207.02C356.73 185.86 363.42 168.28 363.42 167.95C363.42 167.42 303.45 156.9 300.79 156.97C300.17 156.99 299.1 157.67 298.42 158.49ZM265.42 163.43L247.92 168.66L239.76 184.58C235.27 193.34 231.75 200.65 231.93 200.84C232.22 201.13 280.64 162.84 284.38 159.36C286.67 157.23 284.76 157.64 265.42 163.43ZM260.5 181.73C237.53 200.09 233.42 203.77 233.42 205.98C233.42 208.46 235.71 209.6 279.47 228.88C304.79 240.04 326.16 248.93 326.96 248.62C328.1 248.19 328.18 247.49 327.34 245.29C320.38 226.88 294.99 162.35 294.53 161.88C294.19 161.54 292.49 161 290.75 160.67C287.8 160.12 285.66 161.61 260.5 181.73ZM152.76 164.87C150.78 166.49 150.78 167.01 152.06 229.5C152.77 264.15 153.47 296.29 153.63 300.92L153.92 309.35L187.33 261.46C205.71 235.12 220.69 213.11 220.61 212.54C219.38 203.4 220.9 204.81 193.9 187.8C150.91 160.7 155.04 163 152.76 164.87ZM102.42 203.08C79.59 223.98 60.12 241.86 59.15 242.83C57.18 244.79 52.86 264.86 54.14 266.1C55.44 267.37 150.56 311.19 151.01 310.74C151.25 310.5 150.77 277.99 149.95 238.48C148.43 165.59 148.39 164.96 144.92 165.06C144.37 165.07 125.24 182.18 102.42 203.08ZM368.68 169.75C368.96 170.71 380.51 197.15 394.36 228.5C416.81 279.35 421.04 288 423.44 288C423.8 288 427.28 281.59 431.19 273.75L438.3 259.5L436.51 252.03L434.73 244.55L440 235.58C445.27 226.61 445.28 226.6 443.75 223.05C442.91 221.1 441.51 217.63 440.64 215.34L439.05 211.18L443.3 201.53C445.63 196.23 447.4 191.5 447.23 191.03C447.06 190.57 444.61 187.75 441.79 184.78C437.19 179.93 436.3 179.41 433.2 179.78C430.29 180.12 429.32 179.68 427.03 176.96L424.32 173.74L396.62 170.88C381.38 169.31 368.75 168.02 368.55 168.01C368.35 168.01 368.41 168.79 368.68 169.75ZM364.6 173C354.92 197.71 336.42 246.22 336.42 246.88C336.42 247.36 337.09 248.31 337.92 249C338.74 249.68 339.42 251.43 339.43 252.87C339.44 255.36 341.48 256.43 377.59 272.79C402.87 284.25 416.07 289.75 416.73 289.09C417.39 288.43 409.37 269.11 392.94 231.8C379.31 200.83 367.57 174.38 366.86 173L365.58 170.5L364.6 173ZM88.42 203.6C66.69 219.25 48.8 232.39 48.66 232.81C48.51 233.22 50.31 235.44 52.66 237.73L56.92 241.89L86.91 214.32C103.4 199.15 119.78 184.1 123.3 180.87C126.82 177.64 129.3 175.04 128.81 175.08C128.32 175.12 110.14 187.96 88.42 203.6ZM231.52 212.38C230.76 213.29 234.17 224.03 243.94 251.49C251.35 272.3 257.42 289.49 257.42 289.67C257.42 289.85 258.45 290 259.72 290C260.98 290 262.48 290.46 263.04 291.03C263.74 291.73 273.69 286.38 294.49 274.13C319.6 259.35 324.92 255.84 324.92 254.04C324.92 252.13 319.41 249.42 280.24 232.07C227.35 208.63 232.8 210.83 231.52 212.38ZM224.39 216.25C217.88 231.13 185.42 309.69 185.42 310.57C185.42 311.22 186.06 312.29 186.85 312.94C187.98 313.89 194.73 312.42 219.35 305.89L250.41 297.65L252.49 293.34L254.58 289.03L241.26 251.52C233.09 228.48 227.45 214 226.66 214C225.95 214 224.93 215.01 224.39 216.25ZM187.47 265.6C170.3 290.16 156.04 310.81 155.78 311.48C155.46 312.34 158.05 313.08 164.45 313.95C173.16 315.14 173.68 315.1 175.75 313.16C176.94 312.05 179.04 310.71 180.42 310.18C182.57 309.37 185.48 303.09 201.16 265.44C211.19 241.36 219.24 221.49 219.04 221.29C218.85 221.1 204.64 241.03 187.47 265.6ZM336.42 259.8L334.29 261.52L340.38 314.51C343.73 343.65 346.68 368.46 346.93 369.64C347.19 370.82 348.04 372.03 348.83 372.33C349.78 372.69 361.08 360.75 382.78 336.45C415.24 300.09 415.29 300.02 414.71 296.26C414.39 294.19 414.08 292.45 414.02 292.38C413.9 292.24 351.54 263.86 343.73 260.39C338.79 258.19 338.44 258.16 336.42 259.8ZM295.51 276.5L266.11 293.88L266.01 297.75C265.92 301.58 266.29 301.97 299.42 332.94C317.84 350.17 335.05 366.33 337.66 368.84C340.75 371.82 342.74 373.07 343.38 372.43C344.02 371.8 342.28 353.34 338.4 319.48C335.13 290.89 332.21 266.11 331.92 264.4C331.44 261.64 328.15 258.85 325.62 259.06C325.23 259.09 311.69 266.94 295.51 276.5ZM48.11 274.27L43.7 280.43L46.31 286.16C47.74 289.31 55.67 306.04 63.92 323.34C79.99 357.04 78.96 355.53 86.42 356.22C87.74 356.34 144.92 317.84 148.21 314.61C149.47 313.37 140.8 309.14 61.72 272.39L52.52 268.11L48.11 274.27ZM429.66 283.01L426.41 288.87L428.45 292.34C430.23 295.35 434.79 297.96 436.06 296.69C436.47 296.28 433.73 277.98 433.18 277.43C433.03 277.28 431.44 279.79 429.66 283.01ZM34.24 288.25C29.84 291.98 27.49 294.83 26.5 297.64L25.09 301.68L31 310.12C35.12 316 42.79 324.15 56.2 336.92C66.81 347.01 75.69 355.06 75.95 354.8C76.64 354.11 42.87 283.65 41.64 283.24C41.05 283.05 37.73 285.3 34.24 288.25ZM426.9 300.02C425.91 301.11 424.28 302 423.26 302C422.25 302 421.42 302.11 421.42 302.25C421.42 302.39 420.55 305.55 419.48 309.26C418.05 314.29 417.89 315.83 418.87 315.26C421.49 313.76 435.33 300.06 434.63 299.67C431.73 298.05 428.55 298.19 426.9 300.02ZM219.42 308.34C190.42 316.11 188.92 316.63 188.92 318.86C188.92 320.78 191.76 323.07 204.61 331.53L220.3 341.86L236.11 322.42C251.55 303.43 253.94 299.91 251.24 300.09C250.51 300.13 236.19 303.85 219.42 308.34ZM385.21 337.82C367.22 357.95 352.68 374.59 352.89 374.81C353.38 375.29 404.58 357.03 405.79 355.94C406.27 355.51 408.17 347.58 410.02 338.33C411.87 329.07 414.57 317.1 416.03 311.71C417.49 306.33 418.51 301.77 418.3 301.58C418.09 301.38 403.2 317.69 385.21 337.82ZM261.72 304.64C261.38 305.54 262.99 321.63 265.31 340.39C268.66 367.48 269.86 374.71 271.13 375.5C273.41 376.91 276.1 379.56 276.54 380.82C276.8 381.56 286.31 381.3 307.92 379.97C324.97 378.92 338.98 378.05 339.06 378.03C339.14 378.01 339.45 377.34 339.76 376.54C340.14 375.55 327.83 363.35 301.93 339.04C280.82 319.22 263.27 303 262.95 303C262.62 303 262.07 303.74 261.72 304.64ZM238.96 323.01C230.41 333.47 223.3 342.4 223.16 342.86C222.91 343.71 263.02 377.01 264.25 376.98C267.24 376.92 267.15 374.75 262.84 340.49C260.42 321.25 258.43 305.16 258.43 304.75C258.42 304.34 257.54 304 256.46 304C255.14 304 249.5 310.12 238.96 323.01ZM154.42 315.45C154.42 316.87 178.53 419.44 178.96 419.88C179.21 420.13 179.42 398.77 179.42 372.41C179.42 325.28 179.38 324.46 177.38 323.21C176.26 322.51 174.95 320.89 174.46 319.62C173.73 317.68 172.6 317.18 167.75 316.61C164.54 316.24 160.23 315.67 158.17 315.34C156.1 315.01 154.42 315.06 154.42 315.45ZM119.69 337.25L88.47 358.5L88.44 362.18L88.42 365.86L132.15 397.4C159.9 417.41 176.23 428.59 176.83 427.98C177.77 427.05 152.61 316 151.45 316C151.16 316 136.87 325.56 119.69 337.25ZM29.72 327.33C21.31 336.32 20.77 338.03 23.78 346.03L26.2 352.49L23.86 357.11C20.84 363.06 21.49 365.18 28.21 371.43L33.51 376.36L51.52 370.63C75 363.17 74.07 363.57 74.65 360.57C75.08 358.29 72.87 355.8 55.9 339.49C45.31 329.32 36.42 321 36.15 321C35.87 321 32.98 323.85 29.72 327.33ZM184.25 324.23C182.83 325.35 182.58 331.24 182.09 375.75C181.78 403.39 181.84 425.99 182.23 425.98C182.95 425.96 218.42 346.02 218.41 344.42C218.4 343.57 190.12 324.59 187.17 323.46C186.45 323.18 185.14 323.53 184.25 324.23ZM202.78 386.75C192.83 409.16 185.06 427.9 185.5 428.4C185.96 428.9 202.81 419.91 224.11 407.81C261.65 386.48 261.92 386.3 262.21 382.9C262.5 379.55 262.02 379.06 242.04 362.73C230.78 353.53 221.41 346 221.22 346C221.02 346 212.73 364.34 202.78 386.75ZM377.23 369.33C361.55 374.98 354.41 378.02 354.1 379.17C353.75 380.45 355.61 381.72 362.1 384.61C367.55 387.04 370.8 388.01 371.24 387.33C371.61 386.75 373.54 385.43 375.53 384.39C379.26 382.44 402.67 360.94 400.91 361.08C400.36 361.12 389.71 364.83 377.23 369.33ZM53.17 372.25L34.42 378.35L34.42 402.76L39.91 406.91C42.94 409.19 46.02 411.29 46.76 411.58C48.29 412.16 76.78 368.4 75.85 366.89C74.92 365.39 72.58 365.94 53.17 372.25ZM90.11 373.75C92.13 376.91 99.01 387.6 105.39 397.5C114.85 412.16 118.62 419.21 125.73 435.51C134.33 455.22 134.53 455.54 138.19 456.7C141.91 457.86 141.94 457.85 158.04 447.31C173.35 437.28 174.16 436.59 174.01 433.66C173.87 430.79 170.82 428.36 130.89 399.34C107.25 382.16 87.58 368.09 87.18 368.05C86.77 368.02 88.09 370.59 90.11 373.75ZM64.16 390.76L50.41 412.5L57.66 412.8C61.65 412.97 73.13 412.67 83.17 412.14C97.84 411.37 102.45 411.45 106.62 412.55C109.48 413.31 112.01 413.73 112.25 413.5C112.48 413.27 106.37 403.27 98.68 391.29C79.78 361.88 82.41 361.92 64.16 390.76ZM301.67 382.8C287.78 383.63 276.42 384.65 276.42 385.06C276.42 385.48 290.48 393.34 307.67 402.55C324.85 411.75 340.9 420.43 343.32 421.83L347.72 424.37L347.05 409.43C346.19 390.5 345.57 386 343.83 386C343.08 386 341.73 384.88 340.82 383.5C338.88 380.53 339.57 380.54 301.67 382.8ZM350.59 385.06L348.27 386.94L349.33 403.13C349.92 412.03 350.58 419.5 350.8 419.72C351.02 419.94 354.23 414.13 357.94 406.81C361.64 399.49 365.35 392.72 366.19 391.76C367.59 390.15 367.26 389.82 361.82 387.41C358.58 385.98 355.25 384.45 354.42 384C353.44 383.48 352.07 383.86 350.59 385.06ZM226.29 409.49C205.74 421.14 188.79 431.32 188.63 432.13C188.4 433.32 195.7 434.43 229.51 438.33C252.15 440.94 270.9 442.85 271.17 442.58C271.66 442.09 269.86 406.38 268.83 395.99C267.8 385.72 268.81 385.4 226.29 409.49ZM273.01 389.31C271.26 390.59 271.24 391.67 272.63 415.82C273.43 429.67 274.37 441.29 274.73 441.65C275.09 442.01 279.03 440.66 283.48 438.65C288.58 436.35 293.11 435 295.7 435C298.67 435 300.51 434.33 302.36 432.58C304.64 430.42 306.81 429.94 322.57 428.08C332.28 426.94 340.97 426 341.88 426C342.79 426 343.29 425.6 342.98 425.11C342.58 424.46 279.38 389.95 275.44 388.24C275.11 388.09 274.01 388.57 273.01 389.31ZM187.78 437.48C187.41 438.47 193.8 445.76 206.87 459.23C232.41 485.56 229.9 485.17 244.45 465.06L254.98 450.5L264.7 450.86C270.21 451.06 274.42 450.82 274.42 450.3C274.42 449.8 273.83 448.58 273.11 447.6C272.01 446.1 265.38 445.06 230.36 440.92C207.57 438.23 188.79 436.02 188.64 436.01C188.48 436 188.1 436.67 187.78 437.48ZM159.1 449.55C147.74 457.14 143.38 460.58 143.61 461.79C143.87 463.13 152.13 465.46 184.31 473.27C206.52 478.66 224.91 482.84 225.18 482.57C225.45 482.3 216.59 472.74 205.49 461.33C185.6 440.88 185.25 440.59 181.46 440.86C179.35 441.01 177.32 440.66 176.96 440.07C176.6 439.48 175.99 439 175.6 439C175.22 439 167.79 443.75 159.1 449.55ZM279.67 443.03C275.09 445.06 274.74 445.69 276.68 448.34C277.82 449.9 278.3 449.64 281.73 445.53C285.93 440.5 285.78 440.31 279.67 443.03ZM245.85 467.21C241 473.97 237.1 480.17 237.18 481C237.27 481.82 237.63 483.97 237.99 485.76C238.4 487.79 238.18 489.58 237.41 490.5C236.4 491.72 236.93 493.23 240.33 498.86L244.48 505.73L254.7 506.75C260.32 507.32 265.01 507.7 265.13 507.6C265.48 507.29 255.66 455.91 255.15 455.4C254.89 455.14 250.7 460.45 245.85 467.21ZM258.68 458C258.98 459.38 261.13 470.85 263.45 483.5C265.77 496.15 268.03 506.89 268.46 507.36C269.17 508.14 290.5 511.07 291.21 510.48C291.37 510.35 290.51 508.18 289.29 505.67C287.48 501.95 286.51 501.04 284.09 500.8C282.24 500.61 280.34 499.46 279.07 497.74C277.25 495.3 277.16 494.6 278.26 491.56C279.49 488.16 279.39 487.95 269.35 472.31C263.76 463.61 258.96 456.27 258.66 456C258.37 455.72 258.38 456.63 258.68 458ZM141.39 468.14C140.45 469.43 138.61 470.27 136.53 470.38C133.26 470.54 132.89 471.07 117.24 497.87C108.46 512.9 101.42 525.31 101.6 525.44C102.02 525.77 222.55 487.2 223.23 486.52C223.52 486.23 223.56 485.82 223.33 485.59C222.87 485.15 144.73 465.98 143.61 466.04C143.23 466.06 142.23 467 141.39 468.14ZM173.91 505.15C146.41 513.87 118.26 522.8 111.34 524.98C100.96 528.26 98.56 529.38 97.64 531.4C96.77 533.31 96.83 534.1 97.91 535C98.67 535.63 99.44 537.34 99.61 538.79C99.88 541.09 100.89 541.8 107.3 544.16L114.68 546.88L165.15 530.69L215.62 514.5L218.52 508.78C220.11 505.63 222.48 500.65 223.78 497.71C228.26 487.58 230.11 487.31 173.91 505.15ZM223.98 503.25C221.61 508.34 219.76 512.61 219.87 512.74C220.19 513.14 239.86 506.87 240.66 506.12C241.07 505.73 239.8 502.85 237.83 499.71C234.79 494.84 233.82 494 231.28 494C228.49 494 228.01 494.61 223.98 503.25ZM290.42 501.21C290.42 501.55 291.28 503.84 292.33 506.29C293.88 509.92 294.8 510.83 297.26 511.19C299.78 511.56 300.15 511.37 299.43 510.07C298.4 508.17 290.42 500.34 290.42 501.21ZM96.92 545.6C95.78 546.47 93.57 546.98 91.8 546.78C88.98 546.47 88.42 546.9 85.95 551.29C84.45 553.95 83.38 556.28 83.57 556.45C84.19 557.01 109.42 548.68 109.42 547.92C109.42 547.27 100.94 543.95 99.49 544.03C99.17 544.05 98.02 544.75 96.92 545.6Z" />
</svg>