<svg width="151" height="164" viewBox="0 0 151 164" fill="none" xmlns="http://www.w3.org/2000/svg">
<path fill-rule="evenodd" clip-rule="evenodd" d="M28.9918 47.84C27.0955 49.0611 25.3413 50.49 23.7618 52.1C22.1327 53.6251 21.0298 55.628 20.6118 57.82C19.9744 60.6019 18.8101 63.2361 17.1818 65.58C16.1103 66.9765 14.7447 68.1202 13.1818 68.93C11.8995 69.5856 10.5607 70.1244 9.18179 70.54C8.05504 70.9643 7.11342 71.7714 6.52178 72.82C3.52178 77.41 8.79179 79.29 8.22179 80.01C7.33179 81.15 5.55179 81.83 4.22179 82.31C3.82933 82.4133 3.46367 82.5999 3.14965 82.857C2.83563 83.1141 2.58057 83.4357 2.40179 83.8C1.49179 85.36 1.97178 86.5 2.27178 88.96C0.851782 89.96 -0.52821 91.3 0.20179 93.2C0.468737 93.9372 0.962353 94.5708 1.61179 95.01C1.95563 95.2243 2.23193 95.5313 2.40885 95.8958C2.58578 96.2603 2.65613 96.6673 2.61179 97.07C2.49929 98.3211 2.18876 99.5464 1.6918 100.7C1.05185 101.888 0.728151 103.221 0.751793 104.57V104.71C0.671793 107.36 2.13179 108.27 4.18179 109.14C7.37179 110.83 12.0218 111.38 14.9618 111.75C16.5618 112 18.2218 112.29 20.0218 112.75C21.5707 113.171 23.0013 113.944 24.2018 115.01C27.2818 117.52 26.8518 120.75 27.9418 124.48C28.8718 130.82 31.0718 136.67 32.4718 142.72C34.7318 152.49 30.9018 155.66 25.8018 163.94H90.5218C87.8718 157.36 83.1218 153.94 79.4218 148.94C76.0118 144.48 76.2918 142.74 77.4218 138.68C77.5318 138.29 78.5618 135.45 79.2818 133.41L79.4418 133.8L80.0618 134.24L81.2518 134.04L81.7018 133.25L82.3218 133.03L82.8718 132.23L84.0418 131.75H84.8218L86.2018 132.22L86.8218 132.42L87.1718 133.49C87.1718 133.49 87.1718 133.91 87.2618 134.05C87.3518 134.19 88.2018 134.17 88.2018 134.17L88.9518 134.56L89.2618 135.3L90.2618 135.36L90.7018 134.68L91.1418 134.15H91.8318L92.4418 134.55L93.1518 134.28L93.7118 133.61L94.5918 132.68L95.3818 132.29L96.7018 131.52L97.9118 131.09L98.6918 130.95L99.4618 131.34L100.202 131.94L100.742 132.36L101.382 132.12L102.292 131.73L102.882 132.2L104.002 132.01L104.182 131.5L104.982 131.01L106.442 130.94L107.632 130.72L108.432 129.5L109.652 129.27L110.602 128.57L111.202 127.64L111.882 127.7L112.452 128.21L113.072 127.76L112.952 126.16L113.602 125.95L114.162 127.02L114.662 127.44L115.662 127.52L116.662 127.08L116.532 125.89L117.632 125.77L118.922 126.05L119.612 125.45L120.452 124.67L121.032 123.33L121.322 121.79L122.322 121.42L123.532 120.99L123.612 119.99L124.612 119.89L125.862 119.17L126.952 118.29L127.802 118.13L128.552 117.02L127.642 116.68L126.742 115.63L126.622 114.76L127.922 115.01L130.762 114.52L132.342 114.03L133.442 112.86L133.632 111.7H132.732V111.01L133.382 109.96L134.732 109.88L135.372 109.82L135.982 108.88L135.822 107.71L136.432 106.5L137.132 105.76L138.342 105.5L139.132 105.39L139.802 104.83L139.752 103.91L140.482 102.59L141.652 101.65L141.502 100.44L141.412 99.75L142.032 99.33L142.122 98.49L141.732 97.84L142.342 97.44L142.662 97.51L143.312 97.92H144.062L144.272 97L143.362 96.28L143.492 95.8L144.122 95.61L144.302 94.75L144.552 94.19L145.352 93.89L146.602 93.44L147.092 92.71L147.232 92.21L146.452 91.97L146.202 91.21L146.842 90.68L147.222 89.68L146.722 88.83L146.012 88.78L145.632 87.87L145.952 86.66L145.802 86.05L146.552 85.99L146.892 85.55L147.092 85.07L146.552 84.39L146.932 83.67L147.382 83.54L147.792 83.18L148.342 83.04L148.742 81.92L149.042 81.55H149.622L150.162 81.23L150.502 80.99L150.292 79.99L149.832 79.65L150.032 79.17L150.162 78.86L149.932 78.66L149.832 78.12L150.042 77.97L149.852 77.33H149.102L148.832 76.8L149.162 76.29L148.922 75.84L147.752 75.38L147.092 74.66L147.442 74.31L147.932 74.52H148.502L148.752 74.19V73.44L148.362 73.15L147.602 72.7L147.422 72.1L147.852 71.9L148.292 71.28L148.522 70.52L148.982 70.79L149.202 70.31L148.702 70.2L148.912 69.48L148.972 68.89L148.512 68.4L147.932 68.07L147.372 67.63L147.152 67.1L147.262 66.5L147.582 66.25L147.912 66.01L148.302 66.17L148.612 65.89L148.452 65.01L148.902 64.57L149.202 63.96L148.992 63.52L149.302 63.17L149.902 63.1L150.132 62.27C150.132 62.27 150.202 61.94 150.242 61.81C150.282 61.68 149.942 61.56 149.942 61.56L149.572 61.27L149.802 60.75L149.912 60.16L149.352 59.54L148.662 59.69L148.072 59.22L148.472 58.98L148.312 58.11L147.792 57.76L147.962 57.23H148.852L149.072 56.48L148.552 55.71L147.852 55.41L147.212 55.06L147.502 54.67L147.862 54.26L148.032 53.76L147.752 53.14L147.672 52.57L147.992 52.14L147.882 51.43L148.242 51.07H148.362L148.262 50.78L148.202 50.47H148.082L147.582 50.34L147.332 49.68L146.842 49.46L146.622 48.93L146.562 48.24L146.152 47.9L145.642 47.73L145.192 47.53L145.572 46.91L146.032 46.3L146.102 45.37L145.522 44.83L144.742 45.25L144.322 44.87L144.602 44.31L144.312 43.49H143.832L144.112 42.79L144.802 42.57L144.972 41.76L144.572 41.31L144.122 40.96L144.292 40.54C144.292 40.54 144.532 40.26 144.432 40.17C144.332 40.08 144.102 39.82 144.102 39.82L143.492 39.22L142.932 39.45L142.492 39.32V38.82L141.922 38.45L141.312 38.28L141.012 37.45L140.602 37.36L140.332 37.69H139.932L139.532 37.64L139.132 37.17L139.062 36.6L139.332 35.94L139.662 35.36L139.812 34.71L139.472 34.23L138.932 33.71L139.312 33.37L138.882 33.06L138.612 33.52L138.032 32.98L137.352 32.66L136.872 32.71L136.722 32.1L137.092 31.07L137.282 30.63L136.912 29.97L136.542 29.82L136.032 30.09L135.722 30.52L135.242 30.4L135.452 29.4L136.242 28.4V27.88L135.712 27.6V27.01L136.342 26.61L136.092 26.07H135.842L135.662 25.55L135.752 25.26L135.492 25.05L135.072 24.74L135.302 24.22L134.982 23.22H134.562H133.942L133.432 23.5L132.972 23.32L132.072 22.56L131.522 22.7L130.992 22.6L130.542 22.71L129.852 22.28L129.972 21.42L129.652 21.16L129.132 20.95L128.462 21.27L128.282 20.67L127.402 19.78L127.272 18.78L127.862 18.37V17.37L127.052 16.74L126.232 16.59L126.072 15.82L126.622 15.22L126.252 14.85L125.472 14.47L124.152 14.7L123.312 14.84L122.812 14.49L122.232 13.83L121.592 13.98L121.242 13.62L121.672 12.55L121.022 11.86L120.352 12.19L119.992 12.88L119.762 13.1L119.092 13.07V12.32L118.592 11.64L117.842 11.58L117.572 10.94L117.092 9.77002L115.602 9.55002L114.312 8.77002L113.902 7.94L113.042 7.79001L112.302 8.09L111.122 8.48001L110.122 8.17999L108.992 7.44L108.542 6.34L107.542 5.85001L106.952 6.11002L105.742 6.71002L104.652 6.13L104.332 5.52002L105.092 5.07001L104.342 4.14999L102.802 3.69L101.192 4.05002L98.4918 5.05002L97.4918 5.92001L97.1518 5.10001L97.4118 3.75L98.0318 2.99002L96.8218 2.41L96.0018 2.70001L94.6118 2.48001H93.1818L92.2418 2.89999L91.6718 2.08002L90.4018 2.32001L89.4018 2.49002L88.4018 1.30002L87.2318 0.429993L86.1118 0.170013L85.2118 0L84.2118 0.890015L83.2118 1.33002L82.7218 0.240021L81.6218 0.360016L80.8018 0.929993L80.5718 1.55002L80.6318 2.75L79.9618 2.89001L79.2618 1.45001L78.5018 1.37L78.2718 2.09L77.7118 2.49002L76.7118 1.99002L75.5418 1.85001L74.3718 2.27002L73.0618 1.61002L71.9218 2.02002L70.6218 2.67999H69.6818L69.2718 2.34L68.2118 2.73001L67.9318 3.42999L66.9318 3.55002L66.2618 3.66L66.0018 4.29001L65.6518 5.17999L65.1818 5.89999L64.4418 6.17001L63.1718 6.39999H61.6918L60.8018 6.46002L59.5718 6.09L58.7518 5.79001L58.0118 5.92001L57.6718 6.56L57.0618 6.87L56.4118 6.62L55.6918 6.26001L54.8818 6.78L54.9818 7.59L54.5318 8.30002C54.5318 8.30002 53.8018 8.68999 53.7718 8.87C53.7979 9.06252 53.8662 9.24692 53.9718 9.41L54.2118 10.51L53.7818 10.99L52.7818 12.08L52.1018 12.45L50.8418 12.64L49.9718 12.21L49.3218 12.33L48.5418 11.86L47.4118 12.29L47.0918 12.98L47.1918 13.74L46.3318 14L45.3318 13.91L44.9218 14.58L44.7918 15.45L43.9118 15.89L43.8418 16.34L44.0518 17.28L43.5118 17.56L43.3418 18.2L43.8818 18.96L43.9618 19.4L43.4418 19.28H42.6718L42.3818 19.57L41.8018 19.86L41.1418 19.59L40.6718 19.85L40.5618 20.63L40.2218 21.5L38.9218 21.76L38.5618 22.24L38.7918 23.24L39.3618 24.06L39.6418 24.5L37.5518 24.85L36.8218 25.31L36.7718 26.19L37.0918 26.96L36.8718 27.61L36.0318 28.32L35.0818 28.52L34.5018 28.78L34.3718 29.42L34.5918 29.75L33.6918 30.02L33.1718 30.26V30.94L33.0018 31.47L32.6718 31.77L31.6718 32.16L31.1118 32.61L31.0218 33.01V33.48L30.5618 33.66V34.54L30.7218 35.19L30.0318 35.45L29.3618 36.27L28.9218 37.17V38.07L29.1918 38.66V39.33L28.8218 40.17L29.1918 40.68L29.8318 40.9L29.6018 41.49L28.9918 41.88V42.51L29.4018 43.23L29.8318 43.34V43.91L29.3118 44.35L29.1218 45.04L29.4218 45.87L28.7418 46.36L28.6418 46.94L29.0418 47.65L28.9918 47.84Z" fill="#1F1F1F"/>
</svg>
