<svg width="50" height="28" viewBox="0 0 50 28" fill="none" xmlns="http://www.w3.org/2000/svg">
<path fill-rule="evenodd" clip-rule="evenodd" d="M48.2473 0.00425314C49.0249 2.40493 49.4498 4.96706 49.4498 7.63117C49.4498 10.291 49.0291 12.8532 48.2473 15.2581H44.7079C45.6129 12.8872 46.1101 10.3208 46.1101 7.63117C46.1101 4.94581 45.6129 2.37519 44.7079 0.00425314H48.2473ZM20.102 18.8868H23.4502C24.2023 18.8868 24.7801 18.942 25.1753 19.061C25.7064 19.2182 26.1653 19.4944 26.5392 19.898C26.9216 20.2974 27.2105 20.7861 27.406 21.3639C27.6015 21.9461 27.7034 22.6599 27.7034 23.5097C27.7034 24.2532 27.6099 24.8991 27.423 25.4387C27.1978 26.0973 26.8749 26.6327 26.45 27.0406C26.1313 27.3508 25.7064 27.5929 25.1625 27.7672C24.7589 27.8946 24.2193 27.9584 23.5394 27.9584H20.0935V18.8868H20.102ZM21.929 20.4207V26.4245H23.2972C23.8071 26.4245 24.1768 26.399 24.4062 26.3395C24.7036 26.2673 24.9501 26.1398 25.1455 25.9656C25.341 25.7871 25.4982 25.494 25.6257 25.0903C25.7489 24.6867 25.8126 24.13 25.8126 23.429C25.8126 22.7279 25.7489 22.1925 25.6257 21.8143C25.5025 21.4404 25.3283 21.143 25.1073 20.9348C24.8821 20.7223 24.6017 20.5821 24.2575 20.5099C24.0026 20.4504 23.5012 20.4249 22.7533 20.4249H21.929V20.4207ZM9.10559 27.9541H7.11281L6.3225 25.8934H2.6981L1.9503 27.9541H0.00850628L3.53942 18.8868H5.47696L9.10559 27.9541ZM5.73189 24.368L4.48268 21.0028L3.25897 24.368H5.73189ZM42.5961 27.9541L39.3542 18.8868H41.3427L43.6372 25.6002L45.8594 18.8868H47.8012L44.5549 27.9541H42.5961ZM27.4867 7.62692L25.3325 8.86765L23.1782 10.1084V7.62272V5.13702L25.3325 6.37774L27.4867 7.62692ZM24.7249 2.93607C22.133 2.93607 20.034 5.03504 20.034 7.62692C20.034 10.2188 22.133 12.3178 24.7249 12.3178C27.3168 12.3178 29.4158 10.2188 29.4158 7.62692C29.4158 5.03928 27.3168 2.93607 24.7249 2.93607ZM1.20247 15.2539C0.424906 12.8532 0 10.291 0 7.62692C0 4.96705 0.424906 2.40493 1.20247 0H4.74186C3.83683 2.37094 3.3397 4.94156 3.3397 7.62692C3.3397 10.3123 3.83683 12.883 4.74186 15.2539H1.20247ZM8.37052 15.2539H12.1521C10.8009 13.0317 10.0234 10.4185 10.0234 7.62692C10.0234 4.83533 10.8009 2.22647 12.1521 0H8.37052C7.28703 2.3157 6.68366 4.89907 6.68366 7.62692C6.67941 10.3548 7.28703 12.9382 8.37052 15.2539ZM16.2949 15.2539C14.4678 13.2356 13.3546 10.563 13.3546 7.62692C13.3546 4.69087 14.4678 2.01827 16.2949 0H22.2052C19.0057 1.058 16.6943 4.07051 16.6943 7.62692C16.6943 11.1833 19.0057 14.1959 22.2052 15.2539H16.2949ZM27.2445 15.2539H33.1549C34.9819 13.2356 36.0952 10.563 36.0952 7.62692C36.0952 4.69087 34.9819 2.01827 33.1591 0H27.2488C30.4483 1.058 32.7597 4.07051 32.7597 7.62692C32.7555 11.1833 30.444 14.2001 27.2445 15.2539ZM37.3019 15.2539H41.0835C42.167 12.9382 42.7703 10.3548 42.7703 7.62692C42.7703 4.90332 42.1628 2.3157 41.0835 0H37.3019C38.6531 2.22222 39.4306 4.83533 39.4306 7.62692C39.4306 10.4228 38.6531 13.0317 37.3019 15.2539Z" fill="#F93975"/>
</svg>
