<svg width="44" height="41" viewBox="0 0 44 41" fill="none" xmlns="http://www.w3.org/2000/svg">
<path fill-rule="evenodd" clip-rule="evenodd" d="M19.901 0.0606792C17.1312 0.265519 14.7398 0.866126 12.2629 1.97892C7.75042 4.00624 4.12721 7.48578 1.96844 11.8653C0.643705 14.5528 0.00713884 17.3302 5.92495e-05 20.4537C-0.00940864 24.616 1.11565 28.254 3.50301 31.7811C3.78218 32.1935 3.80086 32.2609 3.75591 32.6962C3.7096 33.1454 2.94986 35.0838 2.58317 35.6886C2.33948 36.0905 1.4843 38.0333 1.34603 38.4994C1.17416 39.0781 1.18935 39.3696 1.40224 39.5827C1.56252 39.743 1.65336 39.7591 2.19124 39.7219C2.82908 39.678 4.31921 39.231 5.83347 38.6295C7.12 38.1185 8.63247 37.6832 9.15363 37.674C9.58182 37.6664 9.71957 37.7188 10.7316 38.2739C12.7626 39.388 15.0447 40.2021 17.4849 40.683C18.8618 40.9543 21.2478 41.0714 23.0354 40.9554C27.5316 40.6634 31.8289 39.0119 35.2543 36.2594C40.3856 32.136 43.1991 26.1919 42.9923 19.9109C42.8217 14.7302 40.6501 9.8382 36.9029 6.19324C33.7254 3.10246 29.483 0.966412 25.2251 0.3134C23.2196 0.00579836 21.6496 -0.0687113 19.901 0.0606792ZM25.1007 9.92159C25.5101 10.0855 25.7957 10.5041 25.8199 10.976C25.8364 11.297 25.8593 11.3212 26.425 11.6163C27.6323 12.246 28.4099 13.0451 28.9931 14.2556C29.3834 15.0656 29.4782 15.6079 29.4333 16.7747L29.3951 17.7652L28.0599 21.76C27.3255 23.9572 26.7247 25.8507 26.7247 25.9678C26.7247 26.343 26.9674 26.6689 27.4624 26.9584C28.0396 27.2958 28.2587 27.5678 28.3134 28.0146C28.3899 28.6404 27.9218 29.2148 27.2629 29.3032C26.9179 29.3495 26.2979 29.1626 22.2466 27.7907C21.5898 27.5683 18.9854 26.7027 16.4589 25.867C13.9324 25.0314 11.7687 24.2716 11.6507 24.1787C11.009 23.6737 11.0935 22.6963 11.8184 22.2403C12.0599 22.0883 12.1822 22.0723 12.7513 22.1183C13.4788 22.1772 13.7989 22.0752 14.0393 21.7081C14.1133 21.5951 14.7718 19.7062 15.5027 17.5104C16.2337 15.3146 16.937 13.3214 17.0656 13.0811C17.1942 12.8408 17.6065 12.3325 17.9818 11.9515C18.6852 11.2375 19.387 10.8153 20.381 10.5081C21.2074 10.2528 22.4037 10.2562 23.3605 10.5166C23.492 10.5525 23.5616 10.5085 23.6378 10.3412C23.7385 10.12 24.3174 9.79057 24.6119 9.78682C24.693 9.78579 24.913 9.84639 25.1007 9.92159ZM21.4296 28.963C22.4889 29.3133 23.3927 29.636 23.438 29.6799C23.6723 29.9067 22.6627 31.009 22.0535 31.1916C21.177 31.4544 20.2002 31.2376 19.6129 30.65C19.0105 30.0472 18.7672 29.3046 18.9146 28.5183C18.9698 28.2242 18.9855 28.212 19.2382 28.2676C19.3843 28.2996 20.3705 28.6125 21.4296 28.963Z" fill="#F93975"/>
</svg>
