<svg width="19" height="19" viewBox="0 0 19 19" fill="none" xmlns="http://www.w3.org/2000/svg">
<path d="M4.8131 13.5714L8.59501 15.6343V18.0952H2.26167C1.25739 18.0952 0.452148 17.29 0.452148 16.2857V1.80952C0.452148 1.32961 0.642794 0.869349 0.982146 0.529997C1.3215 0.190646 1.78176 0 2.26167 0H3.16643V6.33333L5.42834 4.97619L7.69024 6.33333V0H13.1188C13.5987 0 14.059 0.190646 14.3983 0.529997C14.7377 0.869349 14.9283 1.32961 14.9283 1.80952V9.53619L13.5712 8.79429L4.8131 13.5714ZM18.5474 13.5714L13.5712 10.8571L8.59501 13.5714L13.5712 16.2857L18.5474 13.5714ZM10.4045 15.4624V17.2719L13.5712 19L16.7379 17.2719V15.4624L13.5712 17.1905L10.4045 15.4624Z" fill="black"/>
</svg>
