<svg width="33" height="36" viewBox="0 0 33 36" fill="none" xmlns="http://www.w3.org/2000/svg">
<path d="M19.75 19.5833H22.125V24.0483L25.9883 26.2808L24.8008 28.3391L19.75 25.4258V19.5833ZM26.0833 11.6666H3.91667V29.0833H11.3108C10.63 27.6424 10.25 26.0274 10.25 24.3333C10.25 21.3938 11.4177 18.5747 13.4962 16.4962C15.5748 14.4176 18.3939 13.2499 21.3333 13.2499C23.0275 13.2499 24.6425 13.6299 26.0833 14.3108V11.6666ZM3.91667 32.2499C3.07681 32.2499 2.27136 31.9163 1.6775 31.3224C1.08363 30.7286 0.75 29.9231 0.75 29.0833V6.91658C0.75 5.15908 2.15917 3.74992 3.91667 3.74992H5.5V0.583252H8.66667V3.74992H21.3333V0.583252H24.5V3.74992H26.0833C26.9232 3.74992 27.7286 4.08355 28.3225 4.67741C28.9164 5.27128 29.25 6.07673 29.25 6.91658V16.5749C31.2133 18.5699 32.4167 21.3091 32.4167 24.3333C32.4167 27.2727 31.249 30.0918 29.1704 32.1703C27.0919 34.2489 24.2728 35.4166 21.3333 35.4166C18.3092 35.4166 15.57 34.2132 13.575 32.2499H3.91667ZM21.3333 16.6541C19.2967 16.6541 17.3435 17.4631 15.9033 18.9033C14.4632 20.3434 13.6542 22.2966 13.6542 24.3333C13.6542 28.5766 17.09 32.0124 21.3333 32.0124C22.3418 32.0124 23.3403 31.8138 24.272 31.4279C25.2037 31.042 26.0502 30.4763 26.7633 29.7632C27.4764 29.0502 28.042 28.2036 28.428 27.2719C28.8139 26.3403 29.0125 25.3417 29.0125 24.3333C29.0125 20.0899 25.5767 16.6541 21.3333 16.6541Z" fill="#F93975"/>
</svg>
