<svg width="19" height="19" viewBox="0 0 19 19" fill="none" xmlns="http://www.w3.org/2000/svg">
<path d="M10.5239 8.99922C9.31903 8.99922 8.29485 8.03529 8.29485 6.83038C8.29485 6.40866 8.41535 6.04719 8.59608 5.68571L10.5239 2.37221L10.3432 2.13123H1.84858C1.24612 2.13123 0.76416 2.67344 0.76416 3.27589V17.8553C0.76416 18.4578 1.24612 19 1.84858 19H14.0784C14.6809 19 15.1628 18.4578 15.1628 17.8553V8.99922H10.5239Z" fill="black"/>
<path d="M13.3553 0.384264L9.86111 6.34857C9.62012 6.71005 9.74061 7.19201 10.0418 7.43299C10.1623 7.55348 10.3431 7.55348 10.5238 7.55348H17.452C17.8738 7.55348 18.2352 7.25226 18.2352 6.83054C18.2352 6.6498 18.175 6.52931 18.1147 6.34857L14.6808 0.384264C14.4398 0.0227905 14.018 -0.0977006 13.5963 0.0830361C13.4758 0.203527 13.4156 0.324018 13.3553 0.384264Z" fill="black"/>
</svg>
