<svg width="26" height="24" viewBox="0 0 26 24" fill="none" xmlns="http://www.w3.org/2000/svg">
<path d="M15.1016 19.8022C19.5331 19.8022 21.7494 19.8022 23.1255 18.4249C24.5027 17.0488 24.5027 14.8325 24.5027 10.4011C24.5027 5.96965 24.5027 3.75334 23.1255 2.37726C21.7494 1 19.5331 1 15.1016 1H10.4011C5.96965 1 3.75334 1 2.37726 2.37726C1 3.75334 1 5.96965 1 10.4011C1 14.8325 1 17.0488 2.37726 18.4249C3.14462 19.1935 4.17287 19.5331 5.70054 19.6823" stroke="#F93975" stroke-width="2" stroke-linecap="round" stroke-linejoin="round"/>
<path d="M12.75 10.4009V10.9884" stroke="#F93975" stroke-width="2" stroke-linecap="round"/>
<path d="M8.05078 10.4011V10.9887" stroke="#F93975" stroke-width="2" stroke-linecap="round"/>
<path d="M17.4531 10.4009V10.9884" stroke="#F93975" stroke-width="2" stroke-linecap="round"/>
<path d="M15.1024 19.8023C13.6499 19.8023 12.0494 20.3898 10.5887 21.1478C8.24076 22.3664 7.0668 22.9763 6.48863 22.5873C5.91047 22.1995 6.01975 20.995 6.2395 18.5872L6.28886 18.0396" stroke="#F93975" stroke-width="2" stroke-linecap="round"/>
</svg>
