<svg width="45" height="45" viewBox="0 0 45 45" fill="none" xmlns="http://www.w3.org/2000/svg">
<circle cx="22.5" cy="22.5" r="22.5" fill="#F93975"/>
<path d="M28.7846 17.728L26.2729 15.2163C25.9451 14.9084 25.5156 14.7317 25.066 14.7199C24.6164 14.708 24.1781 14.8619 23.8346 15.1521L15.5846 23.4021C15.2883 23.7009 15.1038 24.0926 15.0621 24.5113L14.6679 28.3338C14.6556 28.4681 14.673 28.6034 14.7189 28.7301C14.7649 28.8569 14.8382 28.972 14.9337 29.0671C15.0194 29.1521 15.121 29.2193 15.2327 29.2649C15.3444 29.3105 15.4639 29.3337 15.5846 29.333H15.6671L19.4896 28.9846C19.9083 28.9429 20.2999 28.7584 20.5987 28.4621L28.8487 20.2121C29.169 19.8738 29.342 19.4224 29.33 18.9568C29.318 18.4911 29.1218 18.0493 28.7846 17.728ZM19.3246 27.1513L16.5746 27.408L16.8221 24.658L22.0012 19.543L24.4762 22.018L19.3246 27.1513ZM25.6679 20.7896L23.2112 18.333L24.9987 16.4996L27.5012 19.0021L25.6679 20.7896Z" fill="white"/>
</svg>
