<svg width="12" height="10" viewBox="0 0 12 10" fill="none" xmlns="http://www.w3.org/2000/svg">
<path d="M11.3735 2.46408V7.53026C11.3735 8.00158 11.1863 8.4536 10.853 8.78687C10.5197 9.12014 10.0677 9.30737 9.59639 9.30737H1.77711C1.30579 9.30737 0.853776 9.12014 0.520503 8.78687C0.187231 8.4536 0 8.00158 0 7.53026V2.46408L5.50619 5.7041C5.56089 5.73637 5.62324 5.75338 5.68675 5.75338C5.75025 5.75338 5.8126 5.73637 5.8673 5.7041L11.3735 2.46408ZM9.59639 0.0664063C10.0337 0.0663375 10.4556 0.227488 10.7815 0.519029C11.1074 0.810569 11.3144 1.21203 11.3628 1.64661L5.68675 4.98544L0.0106627 1.64661C0.0591125 1.21203 0.266086 0.810569 0.591987 0.519029C0.917888 0.227488 1.33984 0.0663375 1.77711 0.0664063H9.59639Z" fill="#1F1F1F"/>
</svg>
