<svg width="12" height="12" viewBox="0 0 12 12" fill="none" xmlns="http://www.w3.org/2000/svg">
<g clip-path="url(#clip0_3_2376)">
<path d="M11.3735 3.46408V8.53026C11.3735 9.00158 11.1863 9.4536 10.853 9.78687C10.5197 10.1201 10.0677 10.3074 9.59639 10.3074H1.77711C1.30579 10.3074 0.853776 10.1201 0.520503 9.78687C0.187231 9.4536 0 9.00158 0 8.53026V3.46408L5.50619 6.7041C5.56089 6.73637 5.62324 6.75338 5.68675 6.75338C5.75025 6.75338 5.8126 6.73637 5.8673 6.7041L11.3735 3.46408ZM9.59639 1.06641C10.0337 1.06634 10.4556 1.22749 10.7815 1.51903C11.1074 1.81057 11.3144 2.21203 11.3628 2.64661L5.68675 5.98544L0.0106627 2.64661C0.0591125 2.21203 0.266086 1.81057 0.591987 1.51903C0.917888 1.22749 1.33984 1.06634 1.77711 1.06641H9.59639Z" fill="white"/>
</g>
<defs>
<clipPath id="clip0_3_2376">
<rect width="11.3735" height="11.3735" fill="white"/>
</clipPath>
</defs>
</svg>
