<svg width="26" height="24" viewBox="0 0 26 24" fill="none" xmlns="http://www.w3.org/2000/svg">
<path d="M20.32 0.75C23.175 0.75 25.4988 3.05252 25.4988 5.88143L25.5 9.22806C25.5 9.4733 25.4013 9.71111 25.2262 9.88451C25.05 10.0591 24.8125 10.157 24.5625 10.157C23.5362 10.157 22.7013 10.9844 22.7013 12.0012C22.7013 13.0181 23.5362 13.8455 24.5625 13.8455C25.08 13.8455 25.5 14.2616 25.5 14.7744V18.1198C25.5 20.9487 23.1775 23.25 20.3225 23.25H5.67875C2.82375 23.25 0.5 20.9487 0.5 18.1198V14.7744C0.5 14.2616 0.92 13.8455 1.4375 13.8455C2.465 13.8455 3.3 13.0181 3.3 12.0012C3.3 11.0104 2.49875 10.2648 1.4375 10.2648C1.18875 10.2648 0.95125 10.1669 0.775 9.99227C0.59875 9.81763 0.5 9.58106 0.5 9.33582L0.5025 5.88143C0.5025 3.05252 2.825 0.75 5.68 0.75H20.32ZM13.0025 7.19184C12.6475 7.19184 12.33 7.38754 12.1712 7.70214L11.26 9.53152L9.2275 9.82506C8.87625 9.8746 8.58875 10.1124 8.4775 10.4468C8.3675 10.7812 8.45625 11.1429 8.71125 11.3881L10.185 12.81L9.8375 14.8202C9.7775 15.167 9.91875 15.5114 10.2063 15.7182C10.3687 15.8334 10.5575 15.8928 10.7488 15.8928C10.895 15.8928 11.0425 15.8569 11.1775 15.7863L13 14.8376L14.8188 15.7839C15.1337 15.9511 15.5075 15.9251 15.7937 15.717C16.0825 15.5114 16.2238 15.167 16.1637 14.8202L15.815 12.81L17.2887 11.3881C17.545 11.1429 17.6338 10.7812 17.5225 10.4468C17.4125 10.1124 17.125 9.8746 16.7775 9.8263L14.7412 9.53152L13.83 7.70337C13.6737 7.38878 13.3562 7.19308 13.0025 7.19184Z" fill="#F93975"/>
</svg>
