<svg width="40" height="30" viewBox="0 0 40 30" fill="none" xmlns="http://www.w3.org/2000/svg">
<path d="M37.875 12.0781H33.2344V7.19687C33.2344 6.43633 32.6199 5.82187 31.8594 5.82187H18.3242L13.284 1.00078C13.2199 0.940744 13.1355 0.907003 13.0477 0.90625H2.125C1.36445 0.90625 0.75 1.5207 0.75 2.28125V27.7188C0.75 28.4793 1.36445 29.0938 2.125 29.0938H32.1172C32.6758 29.0938 33.1828 28.7543 33.3934 28.2344L39.1512 13.9688C39.2156 13.8055 39.25 13.6293 39.25 13.4531C39.25 12.6926 38.6355 12.0781 37.875 12.0781ZM30.1406 12.0781H8.22656C7.66797 12.0781 7.16094 12.4176 6.95039 12.9375L3.84375 20.6375V4H11.9434L17.0824 8.91562H30.1406V12.0781Z" fill="#F93975"/>
</svg>
