<svg width="17" height="18" viewBox="0 0 17 18" fill="none" xmlns="http://www.w3.org/2000/svg">
<path d="M8.29481 10.8655C10.6751 10.8655 12.7075 11.2429 12.7075 12.753C12.7075 14.2624 10.6881 14.6535 8.29481 14.6535C5.91452 14.6535 3.88208 14.2762 3.88208 12.7667C3.88208 11.2566 5.90148 10.8655 8.29481 10.8655ZM12.1006 9.95624C13.0106 9.93937 13.9889 10.0643 14.3504 10.153C15.1163 10.3036 15.6201 10.611 15.8288 11.0577C16.0052 11.4245 16.0052 11.8499 15.8288 12.216C15.5095 12.9089 14.4803 13.1313 14.0802 13.1888C13.9976 13.2013 13.9312 13.1295 13.9399 13.0464C14.1442 11.1264 12.5186 10.2161 12.0981 10.0068C12.0801 9.99747 12.0764 9.9831 12.0782 9.97436C12.0795 9.96811 12.0869 9.95811 12.1006 9.95624ZM4.38884 9.95494L4.5602 9.95649C4.57387 9.95836 4.5807 9.96836 4.58194 9.97398C4.58381 9.98335 4.58008 9.9971 4.56269 10.0071C4.14154 10.2164 2.51596 11.1267 2.72032 13.046C2.72902 13.1297 2.66318 13.2009 2.58056 13.1891C2.18053 13.1316 1.15127 12.9092 0.831992 12.2163C0.654961 11.8495 0.654961 11.4247 0.831992 11.058C1.0407 10.6112 1.54384 10.3039 2.30973 10.1527C2.67187 10.0646 3.64958 9.93962 4.5602 9.95649L4.38884 9.95494ZM8.29481 3.55396C9.91542 3.55396 11.2149 4.85973 11.2149 6.49038C11.2149 8.12041 9.91542 9.42743 8.29481 9.42743C6.6742 9.42743 5.37473 8.12041 5.37473 6.49038C5.37473 4.85973 6.6742 3.55396 8.29481 3.55396ZM12.259 4.04365C13.8243 4.04365 15.0536 5.52498 14.6349 7.17501C14.3523 8.28585 13.3293 9.0237 12.1894 8.99372C12.0751 8.99059 11.9627 8.97997 11.854 8.96123C11.7751 8.94748 11.7354 8.85814 11.7801 8.79191C12.2149 8.1484 12.4627 7.37431 12.4627 6.54336C12.4627 5.67618 12.1919 4.86772 11.7217 4.20484C11.7068 4.18422 11.6956 4.15236 11.7105 4.12862C11.7229 4.10925 11.7459 4.09926 11.7677 4.09426C11.9261 4.06177 12.0888 4.04365 12.259 4.04365ZM4.40087 4.04359C4.57107 4.04359 4.73382 4.06171 4.89283 4.0942C4.91395 4.09919 4.93756 4.10981 4.94998 4.12856C4.96427 4.1523 4.95371 4.18416 4.9388 4.20478C4.46858 4.86766 4.19775 5.67612 4.19775 6.5433C4.19775 7.37425 4.4456 8.14834 4.88041 8.79185C4.92513 8.85808 4.88538 8.94742 4.80649 8.96116C4.69717 8.98053 4.58536 8.99053 4.47107 8.99365C3.33123 9.02364 2.30818 8.28579 2.02555 7.17494C1.60627 5.52492 2.83555 4.04359 4.40087 4.04359Z" fill="#231F20" fill-opacity="0.5"/>
</svg>
