<svg width="13" height="19" viewBox="0 0 13 19" fill="none" xmlns="http://www.w3.org/2000/svg">
<path d="M3.19574 18.9457C3.05688 18.8871 2.94148 18.7839 2.86776 18.6524C2.79404 18.521 2.76619 18.3687 2.7886 18.2197L4.02359 10.1787H0.746129C0.642224 10.1815 0.539066 10.1604 0.444613 10.117C0.35016 10.0736 0.266938 10.0091 0.201368 9.92842C0.135798 9.84777 0.0896323 9.75314 0.0664332 9.65182C0.0432342 9.5505 0.0436219 9.4452 0.0675664 9.34405L2.10325 0.522736C2.13908 0.370921 2.22611 0.236082 2.3497 0.140918C2.47329 0.0457532 2.62589 -0.00392614 2.78182 0.000242526H9.56744C9.66882 -0.000102165 9.76898 0.0222712 9.86057 0.0657186C9.95216 0.109166 10.0329 0.172583 10.0967 0.251311C10.1615 0.330927 10.2074 0.424199 10.2309 0.524104C10.2544 0.624009 10.2549 0.727946 10.2324 0.828089L9.05852 6.10731H12.2817C12.4089 6.10705 12.5336 6.14254 12.6415 6.20973C12.7495 6.27692 12.8364 6.3731 12.8924 6.4873C12.941 6.59692 12.9597 6.71746 12.9466 6.83665C12.9335 6.95585 12.8891 7.06944 12.8178 7.16587L3.99644 18.7014C3.93683 18.7898 3.85722 18.8629 3.76409 18.9148C3.67095 18.9666 3.56691 18.9958 3.46038 19C3.36958 18.9983 3.27987 18.9799 3.19574 18.9457Z" fill="#F2915E"/>
</svg>
