<svg width="49" height="27" viewBox="0 0 49 27" fill="none" xmlns="http://www.w3.org/2000/svg">
<path fill-rule="evenodd" clip-rule="evenodd" d="M47.8083 0.00410735C48.5789 2.3225 49 4.79682 49 7.36962C49 9.93831 48.5831 12.4126 47.8083 14.7351H44.3008C45.1977 12.4455 45.6904 9.96703 45.6904 7.36962C45.6904 4.7763 45.1977 2.29377 44.3008 0.00410735H47.8083ZM3.35592 18.2394V25.3792H7.73506V27H1.37691V18.2435H3.35592V18.2394ZM17.5923 18.2394V26.9959H15.6175V18.2394H17.5923ZM28.0517 27L25.1421 18.2435H27.1675L29.1676 24.4026H29.1928L31.2182 18.2435H33.2561L30.275 27H28.0517ZM47.522 18.2394V19.8602H42.7766V21.7354H47.1304V23.2331H42.7766V25.3792H47.6231V27H40.8017V18.2435H47.522V18.2394ZM27.2348 7.36962L25.1 8.56778L22.9694 9.76595V7.36551V4.96506L25.1 6.16323L27.2348 7.36962ZM24.5021 2.83953C21.9336 2.83953 19.8535 4.86658 19.8535 7.36962C19.8535 9.87265 21.9336 11.8997 24.5021 11.8997C27.0706 11.8997 29.1507 9.87265 29.1507 7.36962C29.1507 4.86658 27.0664 2.83953 24.5021 2.83953ZM1.19164 14.731C0.421078 12.4126 0 9.9383 0 7.36551C0 4.79681 0.421078 2.32249 1.19164 0H4.69914C3.80226 2.28967 3.30961 4.77219 3.30961 7.36551C3.30961 9.95882 3.80226 12.4413 4.69914 14.731H1.19164ZM8.29088 14.731H12.0384C10.6994 12.585 9.92885 10.0614 9.92885 7.36551C9.92885 4.66961 10.6994 2.15015 12.0384 0H8.29088C7.21715 2.23632 6.61922 4.73116 6.61922 7.36551C6.61922 9.99986 7.22136 12.4947 8.29088 14.731ZM16.148 14.731C14.3374 12.7819 13.2342 10.2009 13.2342 7.36551C13.2342 4.5301 14.3375 1.94909 16.1439 0H22.0009C18.8303 1.02173 16.5396 3.93101 16.5396 7.36551C16.5396 10.7959 18.8303 13.7093 22.0009 14.731H16.148ZM26.9948 14.731H32.8519C34.6625 12.7819 35.7657 10.2009 35.7657 7.36551C35.7657 4.5301 34.6625 1.94909 32.8561 0H26.999C30.1697 1.02173 32.4603 3.93101 32.4603 7.36551C32.4603 10.8 30.1697 13.7134 26.9948 14.731ZM36.9658 14.731H40.7133C41.787 12.4947 42.3849 9.99986 42.3849 7.36551C42.3849 4.73526 41.7828 2.23632 40.7133 0H36.9658C38.3048 2.14605 39.0753 4.66961 39.0753 7.36551C39.0753 10.0655 38.3048 12.585 36.9658 14.731Z" fill="#F93975"/>
</svg>
