<svg width="9" height="12" viewBox="0 0 9 12" fill="none" xmlns="http://www.w3.org/2000/svg">
<path d="M4.46816 0C3.28356 0.00139751 2.14788 0.472597 1.31024 1.31024C0.472602 2.14788 0.00140226 3.28356 4.75367e-06 4.46816C-0.00141405 5.43621 0.314799 6.378 0.900136 7.14905C0.900136 7.14905 1.02199 7.3095 1.0419 7.33265L4.46816 11.3735L7.89605 7.33062C7.91393 7.30909 8.03619 7.14905 8.03619 7.14905L8.0366 7.14783C8.62164 6.37712 8.93771 5.43577 8.93632 4.46816C8.93492 3.28356 8.46372 2.14788 7.62608 1.31024C6.78844 0.472597 5.65276 0.00139751 4.46816 0ZM4.46816 6.09294C4.14681 6.09294 3.83268 5.99765 3.56548 5.81912C3.29829 5.64058 3.09003 5.38683 2.96706 5.08994C2.84408 4.79305 2.81191 4.46636 2.8746 4.15118C2.93729 3.836 3.09204 3.54649 3.31927 3.31926C3.5465 3.09203 3.83601 2.93729 4.15118 2.87459C4.46636 2.8119 4.79305 2.84408 5.08994 2.96705C5.38683 3.09003 5.64059 3.29828 5.81912 3.56548C5.99766 3.83267 6.09295 4.14681 6.09295 4.46816C6.09241 4.89891 5.92106 5.31187 5.61647 5.61646C5.31188 5.92105 4.89892 6.09241 4.46816 6.09294Z" fill="#1F1F1F"/>
</svg>
