<svg width="10" height="12" viewBox="0 0 10 12" fill="none" xmlns="http://www.w3.org/2000/svg">
<path d="M4.68691 0.373535C3.50231 0.374933 2.36663 0.846133 1.52899 1.68377C0.691352 2.52141 0.220152 3.65709 0.218755 4.84169C0.217336 5.80975 0.533549 6.75154 1.11889 7.52259C1.11889 7.52259 1.24074 7.68304 1.26065 7.70619L4.68691 11.747L8.1148 7.70416C8.13268 7.68263 8.25494 7.52259 8.25494 7.52259L8.25535 7.52137C8.84039 6.75066 9.15646 5.80931 9.15507 4.84169C9.15367 3.65709 8.68247 2.52141 7.84483 1.68377C7.00719 0.846133 5.87151 0.374933 4.68691 0.373535ZM4.68691 6.46648C4.36556 6.46648 4.05143 6.37119 3.78423 6.19265C3.51704 6.01412 3.30878 5.76036 3.18581 5.46347C3.06283 5.16658 3.03066 4.83989 3.09335 4.52471C3.15604 4.20954 3.31079 3.92003 3.53802 3.6928C3.76525 3.46557 4.05476 3.31082 4.36993 3.24813C4.68511 3.18544 5.0118 3.21761 5.30869 3.34059C5.60558 3.46356 5.85934 3.67182 6.03787 3.93901C6.21641 4.20621 6.3117 4.52034 6.3117 4.84169C6.31116 5.27245 6.13981 5.68541 5.83522 5.99C5.53063 6.29459 5.11767 6.46594 4.68691 6.46648Z" fill="white"/>
</svg>
