<svg width="307" height="70" viewBox="0 0 307 70" fill="none" xmlns="http://www.w3.org/2000/svg">
<path fill-rule="evenodd" clip-rule="evenodd" d="M23.7788 1.80867C21.7015 2.71076 19.7564 3.8247 19.4568 4.28404C19.1573 4.74337 17.9397 5.4164 16.7506 5.78055C15.3319 6.21471 14.5208 6.88897 14.3924 7.74009C14.2855 8.45365 13.5327 9.32442 12.7197 9.67506C10.5107 10.6287 6.81887 20.0543 6.77089 24.865C6.75079 26.8915 6.3929 29.3785 5.976 30.3917C5.55845 31.405 5.04624 33.2969 4.83682 34.5963C4.58525 36.1561 3.69958 37.6753 2.22844 39.0687C-0.283985 41.4483 -0.450615 42.1053 1.06073 43.6866C2.043 44.7146 2.043 44.8257 1.06073 45.1825C0.278798 45.4668 0 46.3572 0 48.5728C0 50.2253 0.291765 51.5775 0.648367 51.5775C1.00497 51.5775 1.29673 52.5251 1.29673 53.6832C1.29673 56.352 2.73092 57.7184 5.53251 57.7184C8.01511 57.7184 7.78753 58.2078 10.4504 47.1255L11.8885 41.1382H38.2835C59.7366 41.1382 64.8146 40.9822 65.4092 40.3036C66.3811 39.194 68.107 33.6961 67.6856 33.0501C67.5034 32.7701 55.4088 32.541 40.8088 32.541C22.3524 32.541 14.2641 32.3402 14.2641 31.8827C14.2641 30.1522 17.7406 17.1853 18.8338 14.837C20.8197 10.5728 23.7652 7.55648 29.242 4.1778C32.0591 2.43995 34.3634 0.798507 34.3634 0.529539C34.3634 -0.613881 27.4253 0.223726 23.7788 1.80867ZM39.2755 0.937289C35.6401 2.12062 27.9725 6.66176 25.2416 9.24827C23.8696 10.5477 22.145 12.7283 21.4097 14.0934C20.1778 16.3796 16.7596 28.2873 17.2012 28.7527C17.3587 28.9179 49.9262 15.2092 57.551 11.7679L59.6666 10.813L57.5588 8.98913C56.3995 7.98633 55.1481 6.58868 54.7786 5.8831C54.409 5.17752 53.3839 4.51186 52.5015 4.40317C51.6191 4.29509 50.5253 3.74978 50.0714 3.1922C49.6176 2.634 47.5201 1.73007 45.4103 1.18292C42.243 0.361895 41.1739 0.318909 39.2755 0.937289ZM38.7451 20.7691C18.4149 29.6677 18.2022 29.7801 21.3151 29.9606C24.1614 30.1258 26.2141 29.3895 42.5445 22.3509C52.4872 18.0653 60.9906 14.285 61.4405 13.9503C62.3677 13.2607 61.3562 11.6242 60.0569 11.7114C59.6543 11.7384 50.0643 15.8146 38.7451 20.7691ZM48.6463 23.5152L34.0769 29.7776L50.2329 29.9422C68.8332 30.1314 69.1373 30.0601 67.0988 25.9924C66.4563 24.7096 65.8468 22.5542 65.7457 21.2038C65.6439 19.8528 65.2503 18.6499 64.8704 18.5301C64.4911 18.4104 64.3452 18.0597 64.5468 17.7509C65.3502 16.519 62.6244 17.5071 48.6463 23.5152ZM21.1043 44.1711C22.3985 45.3821 46.3712 58.3324 47.3185 58.3324C47.867 58.3324 48.6761 57.7853 49.117 57.1166C50.061 55.6851 51.0213 56.3545 37.2973 48.8811C28.3421 44.0047 27.3131 43.5945 24.0382 43.5945C21.8214 43.5945 20.7199 43.8106 21.1043 44.1711ZM30.4732 43.8272C30.4732 43.9556 35.4475 46.7435 41.5266 50.0233C52.1274 55.7422 52.6389 55.9461 54.0076 55.0017C54.7928 54.46 56.38 53.3989 57.5348 52.6436C58.6889 51.8883 59.6374 50.9131 59.642 50.4759C59.6458 50.0393 60.3707 48.945 61.2518 48.0453C62.2996 46.975 62.6069 46.2633 62.1388 45.99C61.7025 45.7346 61.9625 45.4091 62.806 45.1555C66.7351 43.9746 62.9694 43.5945 47.3308 43.5945C38.0591 43.5945 30.4732 43.6995 30.4732 43.8272ZM12.732 46.4672C12.2023 48.1479 10.3739 55.881 10.3739 56.4392C10.3739 56.7076 11.3218 57.1798 12.4811 57.4893C13.9302 57.8768 14.9423 58.7193 15.7216 60.1882C16.9477 62.4978 17.2628 67.8483 16.2092 68.4648C14.1402 69.6758 16.6034 70 27.8798 70C34.6552 70 40.1987 69.8324 40.1987 69.6279C40.1987 69.4234 39.4239 68.3874 38.4773 67.3251C36.6937 65.3244 34.4023 61.0639 34.3777 59.7018C34.3686 59.2051 34.947 59.0227 35.974 59.1989C39.9316 59.8787 37.4484 58.0223 26.7237 52.2837C13.001 44.9412 13.1884 45.0185 12.732 46.4672Z" fill="url(#paint0_linear_17_29)"/>
<mask id="mask0_17_29" style="mask-type:alpha" maskUnits="userSpaceOnUse" x="84" y="2" width="223" height="68">
<path fill-rule="evenodd" clip-rule="evenodd" d="M90.1262 4.28836C89.8111 5.49432 89.3766 7.46721 89.1599 8.67258L88.7657 10.8647H92.3635C95.0213 10.8647 96.0491 10.6355 96.298 9.98784C96.4837 9.50558 97.2943 9.111 98.0996 9.111C99.1942 9.111 99.4741 9.34424 99.2083 10.0358C99.0126 10.5443 98.8527 11.202 98.8527 11.4972C98.8527 11.7924 96.486 12.0338 93.5928 12.0338C88.6175 12.0338 88.3165 12.1051 88.0336 13.3491C87.869 14.0728 87.0731 17.5152 86.2655 21.0004C85.4578 24.485 84.7966 27.7071 84.7966 28.1613C84.7966 28.8271 86.177 28.9832 91.9711 28.9703C98.9107 28.9551 99.2082 28.9025 101.06 27.3628C102.626 26.061 103.099 25.1011 103.657 22.0947C104.302 18.6177 104.27 18.3494 103.051 17.1335L101.764 15.8481L103.865 14.0874C105.524 12.6967 106.135 11.603 106.766 8.89237C107.524 5.64046 107.5 5.37039 106.32 3.77746L105.075 2.09626H97.8864H90.6984L90.1262 4.28836ZM109.088 2.82696C108.564 4.24335 104.124 24.4891 104.124 25.46C104.124 26.0013 104.734 27.0161 105.479 27.7153C106.717 28.875 107.452 28.9861 113.897 28.9861H120.958L121.326 26.794C121.528 25.5886 121.856 24.0097 122.055 23.2866C122.409 21.9965 122.32 21.9714 117.37 21.9714C113.506 21.9714 112.323 21.7849 112.323 21.1764C112.323 20.7391 113.243 16.4648 114.366 11.6772C115.49 6.89025 116.412 2.7761 116.416 2.53468C116.428 1.75254 109.381 2.03371 109.088 2.82696ZM128.853 3.70789C127.479 4.85539 126.69 6.2256 126.078 8.52644C124.574 14.1751 124.663 14.3721 128.714 14.3721H132.219L132.883 11.7415C133.443 9.52019 133.77 9.111 134.981 9.111C136.07 9.111 136.342 9.35651 136.114 10.134C135.948 10.6969 135.639 12.1338 135.427 13.328L135.042 15.4991L129.73 15.6663L124.418 15.8335L123.084 21.6791C122.351 24.8942 121.738 27.8661 121.722 28.2835C121.701 28.8446 122.644 28.9966 125.353 28.868L129.011 28.6938L129.627 25.771C130.175 23.1709 130.426 22.8272 131.906 22.6553C133.256 22.4992 133.498 22.6459 133.194 23.4374C132.988 23.9735 132.654 25.4413 132.453 26.6987L132.086 28.9861H135.664C138.892 28.9861 139.272 28.8575 139.551 27.6708C139.722 26.9477 140.93 21.6405 142.236 15.8779C144.605 5.43177 144.608 5.39552 143.487 3.89437C142.426 2.47389 142.034 2.38036 136.567 2.24649C131.007 2.1097 130.694 2.16933 128.853 3.70789ZM147.431 3.57578C145.475 5.0103 145.341 5.3739 143.026 15.4722L140.639 25.8891L141.973 27.4376C143.251 28.92 143.552 28.9849 149.046 28.9621C154.432 28.9399 154.896 28.8411 156.598 27.3546C157.782 26.3211 158.647 24.8176 159.087 23.0277C160.206 18.4839 160.194 18.464 156.306 18.464C152.992 18.464 152.824 18.5365 152.237 20.2177C151.824 21.3979 151.231 21.9714 150.422 21.9714C148.952 21.9714 148.955 21.8492 150.594 14.9566C151.732 10.1708 152.092 9.37756 153.203 9.21622C154.291 9.05897 154.492 9.30858 154.492 10.8238V12.6184H157.934H161.376L162.282 9.02741C163.158 5.55569 163.147 5.38091 161.951 3.76635C160.739 2.13075 160.598 2.09626 155.081 2.09626C149.976 2.09626 149.259 2.2348 147.431 3.57578ZM164.739 2.82696C164.281 4.1241 159.177 27.4224 159.177 28.2174C159.177 28.7669 160.176 28.9861 162.68 28.9861C165.831 28.9861 166.214 28.854 166.49 27.6708C166.659 26.9477 167.145 24.7773 167.569 22.8482C168.259 19.7126 168.507 19.321 169.908 19.1561C170.77 19.0544 171.471 19.0544 171.466 19.1561C171.46 19.2578 170.938 21.3137 170.305 23.725C169.672 26.1364 169.149 28.3063 169.143 28.5477C169.138 28.7891 170.801 28.9861 172.841 28.9861H176.547L177.526 24.4423C178.767 18.6768 178.755 18.2874 177.301 16.9739L176.098 15.8867L178.205 14.1067C179.932 12.647 180.466 11.6404 181.166 8.52644C181.635 6.43663 182.156 4.13521 182.323 3.41152C182.613 2.15355 182.464 2.09626 178.9 2.09626H175.174L174.129 7.06503C173.173 11.6112 172.966 12.0338 171.695 12.0338C170.053 12.0338 169.999 11.4264 171.195 6.48047C171.662 4.55142 172.048 2.7761 172.052 2.53468C172.069 1.75137 165.019 2.03313 164.739 2.82696ZM197 6.15721C196.491 8.39082 196.074 10.3637 196.074 10.5414C196.074 10.7191 197.664 10.8647 199.607 10.8647C202.206 10.8647 203.228 10.6332 203.476 9.98784C203.662 9.50558 204.472 9.111 205.278 9.111C206.372 9.111 206.652 9.34424 206.386 10.0358C206.191 10.5443 206.031 11.202 206.031 11.4972C206.031 11.7924 203.706 12.0338 200.866 12.0338H195.7L193.832 20.0715C192.806 24.4926 191.967 28.3063 191.97 28.5477C191.972 28.7891 195.203 28.9791 199.149 28.9703C206.09 28.9551 206.386 28.9031 208.233 27.3628C210.535 25.4437 212.113 19.7717 210.839 17.9987C209.355 15.9334 209.405 15.4506 211.269 13.8945C212.695 12.7043 213.341 11.4925 213.952 8.86665C214.706 5.6235 214.682 5.30433 213.575 3.75174L212.394 2.09626H205.159H197.925L197 6.15721ZM216.234 3.7038C216.036 4.58824 215.637 6.23203 215.348 7.35731C214.463 10.8027 214.516 10.8647 218.348 10.8647C220.948 10.8647 221.97 10.6332 222.218 9.98784C222.403 9.50558 223.214 9.111 224.019 9.111C225.114 9.111 225.394 9.34424 225.128 10.0358C224.932 10.5443 224.772 11.202 224.772 11.4972C224.772 11.7924 222.426 12.0338 219.559 12.0338H214.345L212.825 18.6101C211.989 22.2274 211.14 26.0411 210.938 27.0863L210.57 28.9861H214.134H217.699L218.276 26.794C218.594 25.5886 219.162 23.3521 219.54 21.8252C220.126 19.4554 220.436 19.0485 221.66 19.0485C222.754 19.0485 223.021 19.2911 222.783 20.0715C222.612 20.6339 222.19 22.4098 221.844 24.0173C221.498 25.6249 221.076 27.4008 220.905 27.9631C220.646 28.8148 220.968 28.9832 222.83 28.9703C226.374 28.9452 228.634 26.6356 229.545 22.107C230.25 18.6031 230.226 18.3857 228.983 17.1452L227.683 15.8481L229.768 14.0874C231.412 12.6985 232.021 11.5954 232.651 8.86782C233.405 5.60187 233.381 5.31778 232.222 3.75291L230.995 2.09626H223.795H216.595L216.234 3.7038ZM235.264 2.2424C235.237 2.32307 233.838 8.30723 232.157 15.5412L229.1 28.6938L232.568 28.8698C234.475 28.9662 236.131 28.9499 236.248 28.8335C236.48 28.602 242.343 3.33553 242.343 2.568C242.343 2.16231 235.402 1.84314 235.264 2.2424ZM243.029 5.06349C242.077 9.17822 242.046 9.111 244.901 9.111H247.46L245.488 17.7333C244.403 22.4752 243.378 26.9477 243.21 27.6708C242.919 28.9276 243.07 28.9861 246.583 28.9861H250.26L251.338 24.1635C251.932 21.5107 252.953 17.0394 253.606 14.2259L254.794 9.111H257.284C259.741 9.111 259.782 9.07709 260.429 6.51379C261.612 1.82444 262.107 2.09626 252.4 2.09626H243.715L243.029 5.06349ZM259.617 14.5182C258.064 21.3506 256.67 27.4136 256.519 27.9929C256.275 28.9382 256.628 29.0276 259.973 28.8698L263.7 28.6938L266.468 16.7103C267.99 10.1194 269.383 4.13521 269.563 3.41152C269.878 2.15121 269.736 2.09626 266.167 2.09626H262.442L259.617 14.5182ZM271.845 3.72777C270.327 5.03953 269.837 6.13032 268.988 10.086C267.965 14.8555 267.965 14.8619 269.249 16.6624C270.434 18.3231 270.802 18.464 273.958 18.464H277.382L276.953 20.0715C276.414 22.097 273.969 22.7289 273.969 20.8432C273.969 19.7471 273.62 19.6331 270.26 19.6331H266.551L265.98 22.774C265.471 25.5799 265.541 26.0797 266.637 27.4505C267.809 28.9183 268.114 28.9861 273.531 28.9861C278.988 28.9861 279.273 28.9212 281.192 27.24C282.813 25.8195 283.314 24.8112 283.881 21.8328C284.264 19.819 284.702 17.7415 284.855 17.2154C285.008 16.6893 284.442 15.4395 283.598 14.4387C282.223 12.806 281.731 12.6184 278.832 12.6184C276.126 12.6184 275.659 12.4681 275.956 11.6936C276.152 11.185 276.312 10.3959 276.312 9.93991C276.312 9.43543 276.911 9.111 277.844 9.111C279.088 9.111 279.319 9.33079 279.07 10.2801C278.788 11.3586 279.052 11.4492 282.474 11.4492H286.184L286.906 8.22656C287.595 5.15585 287.565 4.93547 286.261 3.55006C284.984 2.19388 284.517 2.09801 279.284 2.12023C274.044 2.14244 273.556 2.24766 271.845 3.72777ZM289.196 2.46395C289.196 2.66621 287.879 8.57671 286.268 15.5985C284.657 22.6202 283.34 28.5173 283.34 28.7038C283.34 28.8896 284.98 28.9633 286.985 28.868L290.631 28.6938L291.783 23.8712C292.813 19.5554 293.076 19.0485 294.286 19.0485C295.888 19.0485 295.875 18.7615 294.522 24.4557L293.447 28.9861H297.167C300.544 28.9861 300.916 28.8645 301.193 27.6708C304.153 14.9227 306.767 3.23089 306.767 2.73226C306.767 2.34528 305.4 2.09626 303.275 2.09626H299.784L299.207 4.28836C298.889 5.49432 298.321 7.72968 297.943 9.25714C297.357 11.627 297.047 12.0338 295.823 12.0338C294.726 12.0338 294.463 11.793 294.706 11.0108C294.881 10.4479 295.394 8.21253 295.845 6.04205L296.667 2.09626H292.932C290.877 2.09626 289.196 2.26169 289.196 2.46395ZM96.8656 19.9733C96.6699 20.4819 96.5101 21.1395 96.5101 21.4347C96.5101 21.7299 95.8512 21.9714 95.0459 21.9714C94.2406 21.9714 93.5817 21.7299 93.5817 21.4347C93.5817 19.9844 94.435 19.0485 95.7569 19.0485C96.8515 19.0485 97.1315 19.2818 96.8656 19.9733ZM204.274 19.5852C204.274 21.0355 203.42 21.9714 202.099 21.9714C201.004 21.9714 200.724 21.7381 200.99 21.0466C201.186 20.538 201.345 19.8804 201.345 19.5852C201.345 19.29 202.004 19.0485 202.81 19.0485C203.615 19.0485 204.274 19.29 204.274 19.5852ZM88.0055 43.7463C87.8251 44.4694 86.9431 48.2386 86.0453 52.1219L84.4136 59.1822L86.7375 64.2515C89.0539 69.3039 89.0685 69.3209 91.2519 69.3209C93.0675 69.3209 93.7105 68.9701 95.006 67.2749C95.8658 66.1496 96.8029 65.2289 97.0875 65.2289C97.3728 65.2289 97.9391 66.1496 98.3467 67.2749C99.0091 69.1022 99.3154 69.3209 101.218 69.3209C103.146 69.3209 103.78 68.8474 107.901 64.3281L112.455 59.336L114.349 50.8832L116.244 42.431H112.538C109.175 42.431 108.803 42.5532 108.526 43.7463C108.357 44.4694 107.584 47.7914 106.807 51.1287C105.341 57.4279 103.964 60.0035 103.169 57.9353C102.829 57.0509 103.691 52.216 105.704 43.7165C106.014 42.4076 105.923 42.3761 102.294 42.5473L98.564 42.7233L97.0008 49.6194C96.1411 53.412 94.9768 57.2169 94.4133 58.0751C93.4001 59.6189 93.3837 59.6224 92.8314 58.3878C92.4314 57.4922 92.7079 55.2703 93.8113 50.5161C94.657 46.8731 95.3469 43.5639 95.344 43.1617C95.3405 42.659 94.2447 42.431 91.8358 42.431C88.6907 42.431 88.2995 42.5655 88.0055 43.7463ZM118.259 44.0386C116.522 45.4883 116.165 46.3639 114.631 52.9531C113.695 56.972 112.925 60.47 112.919 60.7266C112.914 60.9827 114.536 61.1142 116.525 61.0189L120.141 60.8447L120.936 57.3373C122.646 49.7866 122.796 49.4458 124.392 49.4458C125.527 49.4458 125.802 49.6848 125.57 50.4687C125.404 51.0317 124.705 53.9247 124.018 56.8989L122.768 62.3061H117.619H112.47L112.091 64.196C111.815 65.5726 112.01 66.4851 112.811 67.5572C113.841 68.9362 114.275 69.0373 119.706 69.1706C125.273 69.3074 125.575 69.2501 127.384 67.7092C129.136 66.2168 129.427 65.3984 131.579 55.8946L133.891 45.6835L132.731 44.0573C131.598 42.4696 131.435 42.431 125.878 42.431C120.526 42.431 120.07 42.5269 118.259 44.0386ZM137.012 44.0386C135.191 45.5672 134.969 46.2196 132.495 57.2982C131.064 63.7073 129.893 69.0338 129.893 69.1356C129.893 69.2378 131.543 69.3209 133.559 69.3209H137.225L138.304 64.4982C141.709 49.278 141.655 49.4458 143.158 49.4458C144.311 49.4458 144.503 49.6772 144.246 50.761C144.075 51.4841 143.055 55.8905 141.978 60.5524L140.021 69.0286L143.517 69.2045C145.441 69.301 147.116 69.2782 147.241 69.1537C147.366 69.0286 148.426 64.7408 149.598 59.6247C150.77 54.5086 151.925 50.1028 152.164 49.8345C152.404 49.5662 153.12 49.4347 153.757 49.5422C154.966 49.7468 154.884 50.2384 150.681 68.0056C150.383 69.2636 150.531 69.3209 154.075 69.3209H157.781L160.433 57.4835L163.086 45.6461L161.9 44.0386C160.812 42.5637 160.391 42.431 156.803 42.431C153.779 42.431 152.555 42.6964 151.403 43.6001C150.585 44.2432 149.667 44.7693 149.365 44.7693C149.064 44.7693 148.339 44.2432 147.756 43.6001C146.9 42.6549 145.953 42.431 142.812 42.431C139.429 42.431 138.68 42.6385 137.012 44.0386ZM166.14 43.9953C164.214 45.4935 164.038 45.9664 161.944 55.2481C160.742 60.577 159.769 65.3312 159.78 65.8135C159.792 66.2957 160.303 67.2907 160.916 68.0237C161.98 69.2981 162.351 69.3501 169.205 69.1928L176.379 69.0286L177.138 66.1058C177.555 64.4982 177.901 62.9854 177.907 62.7445C177.913 62.5037 175.66 62.3061 172.899 62.3061C168.029 62.3061 167.886 62.2669 168.068 60.9909C168.244 59.751 168.561 59.6662 173.611 59.5084L178.967 59.3412L179.362 57.1702C179.578 55.9759 179.898 54.4069 180.072 53.6838C180.381 52.3966 180.28 52.3686 175.306 52.3686C170.37 52.3686 170.229 52.3306 170.41 51.0533C170.585 49.8275 170.953 49.7182 175.827 49.4458L181.055 49.1535L181.805 45.9384C182.217 44.1701 182.565 42.6578 182.579 42.5772C182.593 42.4965 179.352 42.431 175.377 42.431C168.434 42.431 168.072 42.4924 166.14 43.9953ZM185.01 44.0497C183.158 45.5923 182.948 46.2009 180.507 57.0562C179.099 63.3197 177.94 68.6539 177.933 68.9105C177.925 69.1665 179.55 69.2981 181.544 69.2028L185.171 69.0286L185.884 66.1058C186.277 64.4982 187.306 60.0924 188.172 56.3144C189.65 49.8696 189.834 49.4458 191.165 49.4458C192.41 49.4458 192.535 49.6363 192.189 51.0118C191.972 51.8734 190.954 56.2793 189.925 60.8032L188.056 69.0286L191.547 69.2045C193.468 69.301 195.13 69.2887 195.243 69.1771C195.355 69.0654 196.69 63.6617 198.211 57.1696L200.975 45.3655L199.594 43.8983C198.305 42.5292 197.837 42.431 192.583 42.431C187.289 42.431 186.836 42.5281 185.01 44.0497ZM220.282 44.0543C218.572 45.5222 218.246 46.4382 216.089 55.8239L213.749 66.0017L214.978 67.6613L216.207 69.3209H223.396H230.584L231.13 67.1287C232.463 61.7806 232.875 62.3061 227.353 62.3061C222.492 62.3061 222.43 62.2874 222.43 60.8447C222.43 59.3944 222.47 59.3833 227.678 59.3833H232.927L233.57 56.8989C233.923 55.5322 234.347 53.9545 234.51 53.3915C234.778 52.4714 234.281 52.3686 229.578 52.3686H224.349L224.629 50.9072C224.902 49.4808 225.032 49.4458 230.042 49.4458H235.176L235.83 46.8485C237.002 42.206 237.333 42.4293 229.311 42.4468C222.357 42.462 222.08 42.5111 220.282 44.0543ZM237.141 45.0282C236.233 48.628 236.311 49.7339 237.657 52.3686C238.301 53.6289 238.828 55.0125 238.828 55.4439C238.828 55.8748 237.555 57.6606 235.998 59.4125C234.091 61.5596 232.945 63.4934 232.484 65.3417C231.457 69.4635 231.405 69.3957 235.455 69.2028C238.576 69.0537 239.14 68.8579 239.32 67.8595C239.632 66.121 241.234 62.8907 241.784 62.8907C242.627 62.8907 242.908 64.8688 242.386 67.1287L241.88 69.3209H245.563C249.671 69.3209 249.685 69.3074 250.29 64.7502C250.588 62.5072 250.41 61.417 249.433 59.5055C248.754 58.1779 248.199 56.7727 248.199 56.3827C248.199 55.9934 249.474 54.207 251.031 52.4142C252.588 50.6207 254.025 48.3292 254.223 47.322C254.423 46.3143 254.758 44.802 254.97 43.9608L255.354 42.431H251.559H247.764L247.405 44.6705C247.207 45.9027 246.538 47.3682 245.919 47.9282C244.846 48.8974 244.775 48.8951 244.463 47.8809C244.283 47.2946 244.363 45.8291 244.642 44.6231L245.147 42.431H241.472H237.796L237.141 45.0282ZM256.104 43.1617C255.961 43.5639 254.563 49.5481 252.998 56.4605L250.15 69.0286L253.635 69.2045C255.552 69.301 257.21 69.2899 257.321 69.1794C257.542 68.9596 263.427 43.6112 263.427 42.8817C263.427 42.0908 256.387 42.3597 256.104 43.1617ZM265.901 44.0427C264.26 45.4152 263.84 46.3371 262.99 50.4489C262.012 55.1774 262.015 55.2762 263.211 56.879C264.25 58.2726 264.9 58.5316 267.733 58.6818C270.055 58.8046 271.04 59.0951 271.04 59.6569C271.04 61.3591 270.271 62.3061 268.889 62.3061C267.714 62.3061 267.516 62.0898 267.819 61.137C268.165 60.0509 267.925 59.9679 264.445 59.9679H260.699L260.011 62.9439C259.386 65.6481 259.434 66.0754 260.536 67.6204C261.734 69.2981 261.825 69.3209 267.442 69.3209C272.854 69.3209 273.234 69.2378 275.152 67.6397C276.912 66.1736 277.29 65.3569 278.111 61.258L279.052 56.5575L277.64 54.7553C276.364 53.1285 275.911 52.9531 272.98 52.9531C269.898 52.9531 269.75 52.8859 270.086 51.6379C270.28 50.9148 270.443 50.125 270.447 49.8842C270.451 49.6433 271.131 49.4458 271.958 49.4458C273.196 49.4458 273.396 49.6533 273.09 50.6149C272.745 51.701 272.985 51.784 276.464 51.784H280.21L280.916 48.7338C281.549 45.9963 281.508 45.5321 280.516 44.2034C279.478 42.8139 279.055 42.7145 273.615 42.5813C268.054 42.4445 267.741 42.5041 265.901 44.0427ZM283.15 42.8694C283.008 43.1103 282.709 44.2285 282.486 45.3538C282.263 46.4791 281.951 47.8598 281.792 48.4228C281.547 49.2903 281.912 49.4458 284.19 49.4458C286.675 49.4458 286.853 49.544 286.571 50.761C286.404 51.4841 285.379 55.9566 284.294 60.6986L282.322 69.3209H285.995H289.667L291.242 62.4523C294.444 48.4818 293.889 49.7784 296.805 49.4458C299.526 49.1354 299.572 49.0722 300.506 44.3308L300.881 42.431H292.145C287.34 42.431 283.292 42.6286 283.15 42.8694Z" fill="url(#paint1_linear_17_29)"/>
</mask>
<g mask="url(#mask0_17_29)">
<path fill-rule="evenodd" clip-rule="evenodd" d="M90.1262 4.28836C89.8111 5.49432 89.3766 7.46721 89.1599 8.67258L88.7657 10.8647H92.3635C95.0213 10.8647 96.0491 10.6355 96.298 9.98784C96.4837 9.50558 97.2943 9.111 98.0996 9.111C99.1942 9.111 99.4741 9.34424 99.2083 10.0358C99.0126 10.5443 98.8527 11.202 98.8527 11.4972C98.8527 11.7924 96.486 12.0338 93.5928 12.0338C88.6175 12.0338 88.3165 12.1051 88.0336 13.3491C87.869 14.0728 87.0731 17.5152 86.2655 21.0004C85.4578 24.485 84.7966 27.7071 84.7966 28.1613C84.7966 28.8271 86.177 28.9832 91.9711 28.9703C98.9107 28.9551 99.2083 28.9025 101.06 27.3628C102.626 26.0609 103.099 25.1011 103.657 22.0947C104.302 18.6177 104.27 18.3494 103.051 17.1335L101.764 15.8481L103.865 14.0874C105.524 12.6967 106.135 11.603 106.766 8.89237C107.524 5.64046 107.5 5.37039 106.32 3.77746L105.075 2.09626H97.8864H90.6984L90.1262 4.28836ZM109.088 2.82696C108.564 4.24335 104.124 24.4891 104.124 25.46C104.124 26.0013 104.734 27.0161 105.479 27.7153C106.717 28.875 107.452 28.9861 113.897 28.9861H120.958L121.326 26.794C121.528 25.5886 121.856 24.0097 122.055 23.2866C122.409 21.9965 122.32 21.9714 117.37 21.9714C113.506 21.9714 112.323 21.7849 112.323 21.1764C112.323 20.7391 113.243 16.4648 114.366 11.6772C115.49 6.89025 116.412 2.7761 116.416 2.53468C116.428 1.75254 109.381 2.03371 109.088 2.82696ZM128.853 3.70789C127.479 4.85539 126.69 6.2256 126.078 8.52644C124.574 14.1751 124.663 14.3721 128.714 14.3721H132.219L132.883 11.7415C133.443 9.52019 133.77 9.111 134.981 9.111C136.07 9.111 136.342 9.35651 136.114 10.134C135.948 10.6969 135.639 12.1338 135.427 13.328L135.042 15.4991L129.73 15.6663L124.418 15.8335L123.084 21.6791C122.351 24.8942 121.738 27.8661 121.722 28.2835C121.701 28.8446 122.644 28.9966 125.353 28.868L129.011 28.6938L129.627 25.771C130.175 23.1709 130.426 22.8272 131.906 22.6553C133.256 22.4992 133.498 22.6459 133.194 23.4374C132.988 23.9735 132.654 25.4413 132.453 26.6987L132.086 28.9861H135.664C138.892 28.9861 139.272 28.8575 139.551 27.6708C139.722 26.9477 140.93 21.6405 142.236 15.8779C144.605 5.43177 144.608 5.39552 143.487 3.89437C142.426 2.47388 142.034 2.38036 136.567 2.24649C131.007 2.1097 130.694 2.16933 128.853 3.70789ZM147.431 3.57578C145.475 5.0103 145.341 5.3739 143.026 15.4722L140.639 25.8891L141.973 27.4376C143.251 28.92 143.552 28.9849 149.046 28.9621C154.432 28.9399 154.896 28.8411 156.598 27.3546C157.782 26.3211 158.647 24.8176 159.087 23.0277C160.206 18.4839 160.194 18.464 156.306 18.464C152.992 18.464 152.824 18.5365 152.237 20.2177C151.824 21.3979 151.231 21.9714 150.422 21.9714C148.952 21.9714 148.955 21.8492 150.594 14.9566C151.732 10.1708 152.092 9.37756 153.203 9.21622C154.291 9.05897 154.492 9.30858 154.492 10.8238V12.6184H157.934H161.376L162.282 9.02741C163.158 5.55569 163.147 5.38091 161.951 3.76635C160.739 2.13075 160.598 2.09626 155.081 2.09626C149.976 2.09626 149.259 2.2348 147.431 3.57578ZM164.739 2.82696C164.281 4.1241 159.177 27.4224 159.177 28.2174C159.177 28.7669 160.176 28.9861 162.68 28.9861C165.831 28.9861 166.214 28.854 166.49 27.6708C166.659 26.9477 167.145 24.7773 167.569 22.8482C168.259 19.7126 168.507 19.321 169.908 19.1561C170.77 19.0544 171.471 19.0544 171.466 19.1561C171.46 19.2578 170.938 21.3137 170.305 23.725C169.672 26.1364 169.149 28.3063 169.143 28.5477C169.138 28.7891 170.801 28.9861 172.841 28.9861H176.547L177.526 24.4423C178.767 18.6768 178.755 18.2874 177.301 16.9739L176.098 15.8867L178.205 14.1067C179.932 12.647 180.466 11.6404 181.166 8.52644C181.635 6.43663 182.156 4.13521 182.323 3.41152C182.613 2.15355 182.464 2.09626 178.9 2.09626H175.174L174.129 7.06503C173.173 11.6112 172.966 12.0338 171.695 12.0338C170.053 12.0338 169.999 11.4264 171.195 6.48047C171.662 4.55142 172.048 2.7761 172.052 2.53468C172.069 1.75137 165.019 2.03313 164.739 2.82696ZM197 6.15721C196.491 8.39082 196.074 10.3637 196.074 10.5414C196.074 10.7191 197.664 10.8647 199.607 10.8647C202.206 10.8647 203.228 10.6332 203.476 9.98784C203.662 9.50558 204.472 9.111 205.278 9.111C206.372 9.111 206.652 9.34424 206.386 10.0358C206.191 10.5443 206.031 11.202 206.031 11.4972C206.031 11.7924 203.706 12.0338 200.866 12.0338H195.7L193.832 20.0715C192.806 24.4926 191.967 28.3063 191.97 28.5477C191.972 28.7891 195.203 28.9791 199.149 28.9703C206.09 28.9551 206.386 28.9031 208.233 27.3628C210.535 25.4437 212.113 19.7717 210.839 17.9987C209.355 15.9334 209.405 15.4506 211.269 13.8945C212.695 12.7043 213.341 11.4925 213.952 8.86665C214.706 5.6235 214.682 5.30433 213.575 3.75174L212.394 2.09626H205.159H197.925L197 6.15721ZM216.234 3.7038C216.036 4.58824 215.637 6.23203 215.348 7.35731C214.463 10.8027 214.516 10.8647 218.348 10.8647C220.948 10.8647 221.97 10.6332 222.218 9.98784C222.403 9.50558 223.214 9.111 224.019 9.111C225.114 9.111 225.394 9.34424 225.128 10.0358C224.932 10.5443 224.772 11.202 224.772 11.4972C224.772 11.7924 222.426 12.0338 219.559 12.0338H214.345L212.825 18.6101C211.989 22.2274 211.14 26.0411 210.938 27.0863L210.57 28.9861H214.134H217.699L218.276 26.794C218.594 25.5886 219.162 23.3521 219.54 21.8252C220.126 19.4554 220.436 19.0485 221.66 19.0485C222.754 19.0485 223.021 19.2911 222.783 20.0715C222.612 20.6339 222.19 22.4098 221.844 24.0173C221.498 25.6249 221.076 27.4008 220.905 27.9631C220.646 28.8148 220.968 28.9832 222.83 28.9703C226.374 28.9452 228.634 26.6356 229.545 22.107C230.25 18.6031 230.226 18.3857 228.983 17.1452L227.683 15.8481L229.768 14.0874C231.412 12.6985 232.021 11.5954 232.651 8.86782C233.405 5.60187 233.381 5.31778 232.222 3.75291L230.995 2.09626H223.795H216.595L216.234 3.7038ZM235.264 2.2424C235.237 2.32307 233.838 8.30723 232.157 15.5412L229.1 28.6938L232.568 28.8698C234.475 28.9662 236.131 28.9499 236.248 28.8335C236.48 28.602 242.343 3.33553 242.343 2.568C242.343 2.16231 235.402 1.84314 235.264 2.2424ZM243.029 5.06349C242.077 9.17822 242.046 9.111 244.901 9.111H247.46L245.488 17.7333C244.403 22.4752 243.378 26.9477 243.21 27.6708C242.919 28.9276 243.07 28.9861 246.583 28.9861H250.26L251.338 24.1635C251.932 21.5107 252.953 17.0394 253.606 14.2259L254.794 9.111H257.284C259.741 9.111 259.782 9.07709 260.429 6.51379C261.612 1.82444 262.107 2.09626 252.4 2.09626H243.715L243.029 5.06349ZM259.617 14.5182C258.064 21.3505 256.67 27.4136 256.519 27.9929C256.275 28.9382 256.628 29.0276 259.973 28.8698L263.7 28.6938L266.468 16.7103C267.99 10.1194 269.383 4.13521 269.563 3.41152C269.878 2.15121 269.736 2.09626 266.167 2.09626H262.442L259.617 14.5182ZM271.845 3.72777C270.327 5.03953 269.837 6.13032 268.988 10.086C267.965 14.8555 267.965 14.8619 269.249 16.6624C270.434 18.3231 270.802 18.464 273.958 18.464H277.382L276.953 20.0715C276.414 22.097 273.969 22.7289 273.969 20.8432C273.969 19.7471 273.62 19.6331 270.26 19.6331H266.551L265.98 22.774C265.471 25.5799 265.541 26.0797 266.637 27.4505C267.809 28.9183 268.114 28.9861 273.531 28.9861C278.988 28.9861 279.273 28.9212 281.192 27.24C282.813 25.8195 283.314 24.8112 283.881 21.8328C284.264 19.819 284.702 17.7415 284.855 17.2154C285.008 16.6893 284.442 15.4395 283.598 14.4387C282.223 12.806 281.731 12.6184 278.832 12.6184C276.126 12.6184 275.659 12.4681 275.956 11.6936C276.152 11.185 276.312 10.3959 276.312 9.93991C276.312 9.43543 276.911 9.111 277.844 9.111C279.088 9.111 279.319 9.33079 279.07 10.2801C278.788 11.3586 279.053 11.4492 282.474 11.4492H286.184L286.906 8.22656C287.595 5.15585 287.565 4.93547 286.261 3.55006C284.984 2.19388 284.517 2.09801 279.284 2.12023C274.044 2.14244 273.556 2.24766 271.845 3.72777ZM289.196 2.46395C289.196 2.66621 287.879 8.57671 286.268 15.5985C284.657 22.6202 283.34 28.5173 283.34 28.7038C283.34 28.8896 284.98 28.9633 286.985 28.868L290.631 28.6938L291.783 23.8712C292.813 19.5554 293.076 19.0485 294.286 19.0485C295.888 19.0485 295.875 18.7615 294.522 24.4557L293.447 28.9861H297.167C300.544 28.9861 300.916 28.8645 301.193 27.6708C304.153 14.9227 306.767 3.23089 306.767 2.73226C306.767 2.34528 305.4 2.09626 303.275 2.09626H299.784L299.207 4.28836C298.889 5.49432 298.321 7.72968 297.943 9.25714C297.357 11.627 297.047 12.0338 295.823 12.0338C294.726 12.0338 294.463 11.793 294.706 11.0108C294.881 10.4479 295.394 8.21253 295.845 6.04205L296.667 2.09626H292.932C290.877 2.09626 289.196 2.26169 289.196 2.46395ZM96.8656 19.9733C96.6699 20.4819 96.5101 21.1395 96.5101 21.4347C96.5101 21.7299 95.8512 21.9714 95.0459 21.9714C94.2406 21.9714 93.5817 21.7299 93.5817 21.4347C93.5817 19.9844 94.435 19.0485 95.7569 19.0485C96.8515 19.0485 97.1315 19.2818 96.8656 19.9733ZM204.274 19.5852C204.274 21.0355 203.42 21.9714 202.099 21.9714C201.004 21.9714 200.724 21.7381 200.99 21.0466C201.186 20.538 201.345 19.8804 201.345 19.5852C201.345 19.29 202.004 19.0485 202.81 19.0485C203.615 19.0485 204.274 19.29 204.274 19.5852ZM88.0055 43.7463C87.8251 44.4694 86.9431 48.2386 86.0453 52.1219L84.4136 59.1822L86.7375 64.2515C89.0539 69.3039 89.0685 69.3209 91.2519 69.3209C93.0675 69.3209 93.7105 68.9701 95.006 67.2749C95.8658 66.1496 96.8029 65.2289 97.0875 65.2289C97.3728 65.2289 97.9391 66.1496 98.3467 67.2749C99.0091 69.1022 99.3154 69.3209 101.218 69.3209C103.146 69.3209 103.78 68.8474 107.901 64.3281L112.455 59.336L114.349 50.8832L116.244 42.431H112.538C109.175 42.431 108.803 42.5532 108.526 43.7463C108.357 44.4694 107.584 47.7914 106.807 51.1287C105.341 57.4279 103.964 60.0035 103.169 57.9353C102.829 57.0509 103.691 52.216 105.704 43.7165C106.014 42.4076 105.923 42.3761 102.294 42.5473L98.564 42.7233L97.0008 49.6194C96.1411 53.412 94.9768 57.2169 94.4133 58.0751C93.4001 59.6189 93.3837 59.6224 92.8314 58.3878C92.4314 57.4922 92.7079 55.2703 93.8113 50.5161C94.657 46.8731 95.3469 43.5639 95.344 43.1617C95.3405 42.659 94.2447 42.431 91.8358 42.431C88.6907 42.431 88.2995 42.5655 88.0055 43.7463ZM118.259 44.0386C116.522 45.4883 116.165 46.3639 114.631 52.9531C113.695 56.972 112.925 60.47 112.919 60.7266C112.914 60.9827 114.536 61.1142 116.525 61.0189L120.141 60.8447L120.936 57.3373C122.646 49.7866 122.796 49.4458 124.392 49.4458C125.527 49.4458 125.802 49.6848 125.57 50.4687C125.404 51.0317 124.705 53.9247 124.018 56.8989L122.768 62.3061H117.619H112.47L112.091 64.196C111.815 65.5726 112.01 66.4851 112.811 67.5572C113.841 68.9362 114.275 69.0373 119.706 69.1706C125.273 69.3074 125.575 69.2501 127.384 67.7092C129.136 66.2168 129.427 65.3984 131.579 55.8946L133.891 45.6835L132.731 44.0573C131.598 42.4696 131.435 42.431 125.878 42.431C120.526 42.431 120.07 42.5269 118.259 44.0386ZM137.012 44.0386C135.191 45.5672 134.969 46.2196 132.495 57.2982C131.064 63.7073 129.893 69.0338 129.893 69.1355C129.893 69.2378 131.543 69.3209 133.559 69.3209H137.225L138.304 64.4982C141.709 49.278 141.655 49.4458 143.158 49.4458C144.311 49.4458 144.503 49.6772 144.246 50.761C144.075 51.4841 143.055 55.8905 141.978 60.5524L140.021 69.0286L143.517 69.2045C145.441 69.301 147.116 69.2782 147.241 69.1537C147.366 69.0286 148.426 64.7408 149.598 59.6247C150.77 54.5086 151.925 50.1028 152.164 49.8345C152.404 49.5662 153.12 49.4347 153.757 49.5422C154.966 49.7468 154.884 50.2384 150.681 68.0056C150.383 69.2636 150.531 69.3209 154.075 69.3209H157.781L160.433 57.4835L163.086 45.6461L161.9 44.0386C160.812 42.5637 160.391 42.431 156.803 42.431C153.779 42.431 152.555 42.6964 151.403 43.6001C150.585 44.2432 149.667 44.7693 149.365 44.7693C149.064 44.7693 148.339 44.2432 147.756 43.6001C146.9 42.6549 145.953 42.431 142.812 42.431C139.429 42.431 138.68 42.6385 137.012 44.0386ZM166.14 43.9953C164.214 45.4935 164.038 45.9664 161.944 55.2481C160.742 60.577 159.769 65.3312 159.78 65.8135C159.792 66.2957 160.303 67.2907 160.916 68.0237C161.98 69.298 162.351 69.3501 169.205 69.1928L176.379 69.0286L177.138 66.1058C177.555 64.4982 177.901 62.9854 177.907 62.7445C177.913 62.5037 175.66 62.3061 172.899 62.3061C168.029 62.3061 167.886 62.2669 168.068 60.9908C168.244 59.751 168.561 59.6662 173.611 59.5084L178.967 59.3412L179.362 57.1702C179.578 55.9759 179.898 54.4069 180.072 53.6838C180.381 52.3966 180.28 52.3686 175.306 52.3686C170.37 52.3686 170.229 52.3306 170.41 51.0533C170.585 49.8275 170.953 49.7182 175.827 49.4458L181.055 49.1535L181.805 45.9384C182.217 44.1701 182.565 42.6578 182.579 42.5772C182.593 42.4965 179.352 42.431 175.377 42.431C168.434 42.431 168.072 42.4924 166.14 43.9953ZM185.01 44.0497C183.158 45.5923 182.948 46.2009 180.507 57.0562C179.099 63.3197 177.94 68.6539 177.933 68.9105C177.925 69.1665 179.55 69.2981 181.544 69.2028L185.171 69.0286L185.884 66.1058C186.277 64.4982 187.306 60.0924 188.172 56.3144C189.65 49.8696 189.834 49.4458 191.165 49.4458C192.41 49.4458 192.535 49.6363 192.189 51.0118C191.972 51.8734 190.954 56.2793 189.925 60.8032L188.056 69.0286L191.547 69.2045C193.468 69.301 195.13 69.2887 195.243 69.177C195.355 69.0654 196.69 63.6617 198.211 57.1696L200.975 45.3655L199.594 43.8983C198.305 42.5292 197.837 42.431 192.583 42.431C187.289 42.431 186.836 42.5281 185.01 44.0497ZM220.282 44.0543C218.572 45.5222 218.246 46.4382 216.089 55.8239L213.749 66.0017L214.978 67.6613L216.207 69.3209H223.396H230.584L231.13 67.1287C232.463 61.7806 232.875 62.3061 227.353 62.3061C222.492 62.3061 222.43 62.2874 222.43 60.8447C222.43 59.3944 222.47 59.3833 227.678 59.3833H232.927L233.57 56.8989C233.923 55.5322 234.347 53.9545 234.51 53.3915C234.778 52.4714 234.281 52.3686 229.578 52.3686H224.349L224.629 50.9072C224.902 49.4808 225.032 49.4458 230.042 49.4458H235.176L235.83 46.8485C237.002 42.206 237.333 42.4293 229.311 42.4468C222.357 42.462 222.08 42.5111 220.282 44.0543ZM237.141 45.0282C236.233 48.628 236.311 49.7339 237.657 52.3686C238.301 53.6289 238.829 55.0125 238.829 55.4439C238.829 55.8748 237.555 57.6606 235.998 59.4125C234.091 61.5596 232.945 63.4934 232.484 65.3417C231.457 69.4635 231.405 69.3957 235.455 69.2028C238.576 69.0537 239.14 68.8579 239.32 67.8594C239.632 66.121 241.234 62.8907 241.784 62.8907C242.627 62.8907 242.908 64.8688 242.386 67.1287L241.88 69.3209H245.563C249.671 69.3209 249.685 69.3074 250.29 64.7502C250.588 62.5072 250.41 61.417 249.433 59.5055C248.754 58.1779 248.199 56.7726 248.199 56.3827C248.199 55.9934 249.474 54.207 251.031 52.4142C252.588 50.6207 254.025 48.3292 254.223 47.322C254.423 46.3143 254.758 44.802 254.97 43.9608L255.354 42.431H251.559H247.764L247.405 44.6705C247.207 45.9027 246.538 47.3682 245.919 47.9282C244.846 48.8974 244.775 48.8951 244.463 47.8809C244.283 47.2946 244.363 45.8291 244.642 44.6231L245.147 42.431H241.472H237.796L237.141 45.0282ZM256.103 43.1617C255.961 43.5639 254.563 49.5481 252.998 56.4605L250.15 69.0286L253.635 69.2045C255.552 69.301 257.21 69.2899 257.321 69.1794C257.542 68.9596 263.427 43.6112 263.427 42.8817C263.427 42.0908 256.387 42.3597 256.103 43.1617ZM265.901 44.0427C264.26 45.4152 263.84 46.3371 262.99 50.4489C262.012 55.1774 262.015 55.2762 263.211 56.879C264.25 58.2726 264.9 58.5316 267.733 58.6818C270.055 58.8046 271.04 59.0951 271.04 59.6569C271.04 61.3591 270.271 62.3061 268.889 62.3061C267.714 62.3061 267.516 62.0898 267.819 61.137C268.165 60.0509 267.925 59.9679 264.445 59.9679H260.699L260.011 62.9439C259.386 65.6481 259.434 66.0754 260.536 67.6204C261.734 69.2981 261.825 69.3209 267.442 69.3209C272.854 69.3209 273.234 69.2378 275.152 67.6396C276.912 66.1736 277.29 65.3569 278.111 61.258L279.052 56.5575L277.64 54.7553C276.364 53.1285 275.911 52.9531 272.98 52.9531C269.898 52.9531 269.75 52.8859 270.086 51.6379C270.28 50.9148 270.443 50.125 270.447 49.8842C270.451 49.6433 271.131 49.4458 271.958 49.4458C273.196 49.4458 273.396 49.6533 273.09 50.6149C272.745 51.701 272.985 51.784 276.464 51.784H280.21L280.916 48.7338C281.549 45.9963 281.508 45.5321 280.516 44.2034C279.478 42.8139 279.055 42.7145 273.615 42.5812C268.054 42.4445 267.741 42.5041 265.901 44.0427ZM283.15 42.8694C283.008 43.1103 282.709 44.2285 282.486 45.3538C282.263 46.4791 281.951 47.8598 281.792 48.4228C281.547 49.2903 281.912 49.4458 284.19 49.4458C286.675 49.4458 286.853 49.544 286.571 50.761C286.404 51.4841 285.379 55.9566 284.294 60.6986L282.322 69.3209H285.995H289.667L291.242 62.4523C294.444 48.4818 293.889 49.7784 296.805 49.4458C299.526 49.1353 299.572 49.0722 300.506 44.3308L300.881 42.431H292.145C287.34 42.431 283.292 42.6286 283.15 42.8694Z" fill="url(#paint2_linear_17_29)"/>
</g>
<defs>
<linearGradient id="paint0_linear_17_29" x1="3.54476" y1="10.3409" x2="71.2263" y2="12.0723" gradientUnits="userSpaceOnUse">
<stop stop-color="#DD2679"/>
<stop offset="1" stop-color="#62AFB5"/>
</linearGradient>
<linearGradient id="paint1_linear_17_29" x1="96.0146" y1="11.9955" x2="315.993" y2="31.1626" gradientUnits="userSpaceOnUse">
<stop stop-color="#DD2679"/>
<stop offset="1" stop-color="#62AFB5"/>
</linearGradient>
<linearGradient id="paint2_linear_17_29" x1="96.0146" y1="11.9955" x2="315.993" y2="31.1626" gradientUnits="userSpaceOnUse">
<stop stop-color="#DD2679"/>
<stop offset="1" stop-color="#62AFB5"/>
</linearGradient>
</defs>
</svg>
