<svg width="19" height="19" viewBox="0 0 19 19" fill="none" xmlns="http://www.w3.org/2000/svg">
<g clip-path="url(#clip0_3_3313)">
<path d="M9.49999 1.26672L-7.62939e-06 5.70006L2.53333 6.84006V8.99339C1.77333 9.24672 1.26666 10.0067 1.26666 10.7667C1.26666 11.5267 1.77333 12.2867 2.53333 12.5401V12.6667L1.39333 15.3267C1.01333 16.4667 1.26666 17.7334 3.16666 17.7334C5.06666 17.7334 5.31999 16.4667 4.93999 15.3267L3.79999 12.6667C4.55999 12.2867 5.06666 11.6534 5.06666 10.7667C5.06666 9.88006 4.55999 9.24672 3.79999 8.99339V7.47339L9.49999 10.1334L19 5.70006L9.49999 1.26672ZM15.0733 9.50006L9.37333 12.0334L6.33333 10.6401V10.7667C6.33333 11.6534 5.95333 12.4134 5.31999 13.0467L6.07999 14.8201V14.9467C6.20666 15.4534 6.33333 15.9601 6.20666 16.4667C7.09333 16.8467 8.10666 17.1001 9.37333 17.1001C13.5533 17.1001 15.0733 14.5667 15.0733 13.3001V9.50006Z" fill="#F2915E"/>
</g>
<defs>
<clipPath id="clip0_3_3313">
<rect width="19" height="19" fill="white"/>
</clipPath>
</defs>
</svg>
