<svg width="88" height="88" viewBox="0 0 88 88" fill="none" xmlns="http://www.w3.org/2000/svg">
<rect width="88" height="88" fill="#E5E5E5"/>
<rect x="-1166" y="-701" width="1440" height="2098" rx="20" fill="#020C18"/>
<g clip-path="url(#clip0_0_1)">
<g opacity="0.7">
<path d="M-1078.01 35.1594C-1078.5 34.8874 -1079.11 35.0566 -1079.38 35.5373C-1079.65 36.018 -1079.48 36.6281 -1079 36.9001L-1078.01 35.1594ZM-947.932 81.9883L-947.853 80.9914L-947.932 81.9883ZM-794.581 -5.86846L-793.643 -5.52316L-793.643 -5.52319L-794.581 -5.86846ZM-686.794 -180.837L-686.348 -179.942L-686.348 -179.942L-686.794 -180.837ZM-510.946 -169.82L-510.33 -170.607L-510.33 -170.607L-510.946 -169.82ZM-431.11 -89.8798L-430.417 -90.6007L-430.417 -90.6008L-431.11 -89.8798ZM-244.961 -100.6L-245.743 -101.223L-244.961 -100.6ZM-149.536 -171.139L-149.518 -170.139L-149.518 -170.139L-149.536 -171.139ZM0.509156 -117.139L0.343388 -118.126L0.509156 -117.139ZM70.2816 -167.889L69.5785 -168.6L69.5785 -168.6L70.2816 -167.889ZM218.934 -198.851L218.453 -199.727L218.452 -199.727L218.934 -198.851ZM253.038 -227.942L253.639 -227.143L253.639 -227.143L253.038 -227.942ZM296.5 -220.454C296.583 -219.908 297.093 -219.533 297.639 -219.616C298.185 -219.7 298.56 -220.21 298.477 -220.756L296.5 -220.454ZM-1068.71 51.6051C-1069.19 51.3328 -1069.8 51.5017 -1070.08 51.9822C-1070.35 52.4627 -1070.18 53.0729 -1069.7 53.3452L-1068.71 51.6051ZM-939.463 94.3152L-939.425 93.3159L-939.427 93.3158L-939.463 94.3152ZM-845.495 70.1046L-844.969 70.9551L-844.968 70.9549L-845.495 70.1046ZM-789.466 3.37165L-788.532 3.72881L-788.531 3.72814L-789.466 3.37165ZM-725.48 -137.541L-724.737 -136.872L-724.736 -136.872L-725.48 -137.541ZM-682.577 -170.686L-683.052 -171.567L-683.052 -171.567L-682.577 -170.686ZM-509.532 -167.063L-508.953 -167.878L-508.953 -167.878L-509.532 -167.063ZM-427.54 -90.0329L-426.855 -90.7616L-426.856 -90.7627L-427.54 -90.0329ZM-385.044 -58.7021L-385.516 -57.8203L-385.514 -57.8195L-385.044 -58.7021ZM-240.566 -91.9096L-241.28 -92.6092L-241.28 -92.6092L-240.566 -91.9096ZM-195.927 -140.665L-196.631 -141.375L-196.632 -141.374L-195.927 -140.665ZM-123.921 -175.377L-123.94 -176.377L-123.944 -176.377L-123.921 -175.377ZM18.4993 -125.758L18.6533 -124.77L18.6538 -124.77L18.4993 -125.758ZM85.1798 -171.665L84.4943 -172.393L84.4942 -172.393L85.1798 -171.665ZM225.762 -201.5L226.25 -200.627L226.251 -200.627L225.762 -201.5ZM257.863 -229.195L258.476 -228.404L257.863 -229.195ZM298.22 -224.158C298.313 -223.613 298.83 -223.247 299.374 -223.34C299.918 -223.433 300.284 -223.95 300.191 -224.494L298.22 -224.158ZM-1059.42 68.0469C-1059.9 67.7744 -1060.51 67.9429 -1060.78 68.4232C-1061.05 68.9035 -1060.88 69.5139 -1060.4 69.7864L-1059.42 68.0469ZM-930.993 106.641L-930.997 105.641L-931 105.641L-930.993 106.641ZM-839.305 79.3753L-838.755 80.2104L-838.754 80.2099L-839.305 79.3753ZM-784.35 12.6096L-783.42 12.979L-783.42 12.9777L-784.35 12.6096ZM-719.939 -126.708L-719.186 -126.05L-719.185 -126.051L-719.939 -126.708ZM-678.361 -160.537L-678.864 -161.402L-678.864 -161.402L-678.361 -160.537ZM-508.12 -164.307L-508.658 -163.465L-508.658 -163.465L-508.12 -164.307ZM-423.972 -90.1871L-423.295 -90.9236L-423.298 -90.9255L-423.972 -90.1871ZM-381.443 -58.7317L-381.93 -57.8582L-381.927 -57.8568L-381.443 -58.7317ZM-236.17 -83.2211L-236.823 -83.9778L-236.17 -83.2211ZM-182.918 -139.24L-183.632 -139.941L-183.632 -139.94L-182.918 -139.24ZM-98.3053 -179.618L-98.2823 -178.619L-98.2822 -178.619L-98.3053 -179.618ZM36.4896 -134.381L36.6306 -133.391L36.6316 -133.391L36.4896 -134.381ZM100.077 -175.442L100.742 -174.695L100.077 -175.442ZM232.588 -204.15L233.084 -203.282L233.085 -203.282L232.588 -204.15ZM262.69 -230.451L263.314 -229.669L263.314 -229.669L262.69 -230.451ZM299.94 -227.859C300.046 -227.316 300.571 -226.963 301.113 -227.068C301.655 -227.174 302.009 -227.699 301.903 -228.241L299.94 -227.859ZM-1050.11 84.4925C-1050.6 84.2196 -1051.21 84.3877 -1051.48 84.8679C-1051.75 85.348 -1051.58 85.9585 -1051.1 86.2313L-1050.11 84.4925ZM-922.523 118.97L-922.473 119.968L-922.473 119.968L-922.523 118.97ZM-833.117 88.6464L-832.542 89.465L-832.542 89.4644L-833.117 88.6464ZM-779.235 21.848L-778.31 22.2298L-778.31 22.2281L-779.235 21.848ZM-714.399 -115.872L-713.635 -115.227L-713.634 -115.228L-714.399 -115.872ZM-674.145 -150.387L-673.613 -149.54L-673.613 -149.54L-674.145 -150.387ZM-506.705 -161.552L-507.202 -160.684L-507.202 -160.684L-506.705 -161.552ZM-420.402 -90.3418L-419.734 -91.0862L-419.737 -91.0888L-420.402 -90.3418ZM-377.842 -58.7579L-377.342 -59.6238L-377.342 -59.6239L-377.842 -58.7579ZM-231.773 -74.5313L-232.372 -75.3321L-232.372 -75.332L-231.773 -74.5313ZM-169.91 -137.814L-170.629 -138.509L-170.63 -138.508L-169.91 -137.814ZM-72.6905 -183.859L-72.7153 -184.859L-72.7154 -184.859L-72.6905 -183.859ZM54.4801 -143L54.6064 -142.008L54.6079 -142.008L54.4801 -143ZM114.975 -179.22L115.615 -178.451L114.975 -179.22ZM239.416 -206.798L239.92 -205.934L239.921 -205.935L239.416 -206.798ZM267.518 -231.705L268.155 -230.934L268.155 -230.934L267.518 -231.705ZM301.662 -231.549C301.785 -231.011 302.321 -230.674 302.859 -230.797C303.398 -230.919 303.735 -231.455 303.612 -231.994L301.662 -231.549ZM-1040.82 100.937C-1041.3 100.664 -1041.91 100.832 -1042.18 101.312C-1042.46 101.792 -1042.29 102.402 -1041.81 102.676L-1040.82 100.937ZM-914.059 131.296L-914.155 130.3L-914.155 130.3L-914.059 131.296ZM-826.931 97.9177L-826.333 98.7188L-826.332 98.718L-826.931 97.9177ZM-774.122 31.0867L-773.204 31.4811L-773.203 31.4791L-774.122 31.0867ZM-708.862 -105.038L-708.088 -104.405L-708.087 -104.407L-708.862 -105.038ZM-669.932 -140.237L-670.493 -141.065L-670.493 -141.065L-669.932 -140.237ZM-505.296 -158.796L-505.748 -157.904L-505.748 -157.904L-505.296 -158.796ZM-416.837 -90.4958L-416.18 -91.2496L-416.18 -91.2496L-416.837 -90.4958ZM-374.245 -58.7833L-374.759 -57.9257L-374.759 -57.9257L-374.245 -58.7833ZM-227.381 -65.8421L-227.929 -66.6783L-227.929 -66.6783L-227.381 -65.8421ZM-156.906 -136.39L-157.631 -137.079L-157.631 -137.078L-156.906 -136.39ZM-47.0801 -188.099L-47.1062 -189.098L-47.1063 -189.098L-47.0801 -188.099ZM72.4636 -151.621L72.5732 -150.627L72.5752 -150.627L72.4636 -151.621ZM129.869 -182.996L130.479 -182.204L130.479 -182.204L129.869 -182.996ZM246.237 -209.449L246.751 -208.591L246.753 -208.592L246.237 -209.449ZM272.341 -232.958L272.993 -232.199L272.994 -232.2L272.341 -232.958ZM303.384 -235.228C303.531 -234.696 304.082 -234.383 304.614 -234.531C305.146 -234.678 305.459 -235.228 305.312 -235.761L303.384 -235.228ZM-1031.52 117.383C-1032 117.11 -1032.61 117.277 -1032.88 117.757C-1033.16 118.237 -1032.99 118.847 -1032.51 119.121L-1031.52 117.383ZM-905.587 143.621L-905.729 142.631L-905.729 142.631L-905.587 143.621ZM-820.741 107.188L-820.118 107.971L-820.117 107.97L-820.741 107.188ZM-769.003 40.327L-768.09 40.7345L-768.089 40.7322L-769.003 40.327ZM-703.32 -94.2018L-702.536 -93.5817L-702.534 -93.5836L-703.32 -94.2018ZM-665.713 -130.088L-665.124 -129.28L-665.124 -129.28L-665.713 -130.088ZM-503.88 -156.04L-504.286 -155.126L-504.286 -155.126L-503.88 -156.04ZM-413.267 -90.6504L-413.915 -89.8887L-413.915 -89.8887L-413.267 -90.6504ZM-370.641 -58.8105L-370.112 -59.6596L-370.641 -58.8105ZM-222.982 -57.1526L-222.481 -56.2872L-222.982 -57.1526ZM-143.895 -134.964L-144.624 -135.649L-144.625 -135.648L-143.895 -134.964ZM-21.4619 -192.338L-21.4895 -193.338L-21.4619 -192.338ZM90.4548 -160.241L90.5455 -159.245L90.5477 -159.246L90.4548 -160.241ZM144.768 -186.774L144.196 -187.594L144.768 -186.774ZM253.065 -212.098L253.59 -211.247L253.592 -211.248L253.065 -212.098ZM277.169 -234.211L277.837 -233.467L277.837 -233.468L277.169 -234.211ZM305.122 -238.881C305.307 -238.361 305.878 -238.088 306.399 -238.273C306.92 -238.457 307.192 -239.029 307.007 -239.549L305.122 -238.881ZM-1022.22 133.83C-1022.7 133.556 -1023.31 133.723 -1023.59 134.203C-1023.86 134.682 -1023.69 135.293 -1023.21 135.567L-1022.22 133.83ZM-897.12 155.951L-896.931 156.933L-896.931 156.933L-897.12 155.951ZM-814.553 116.461L-813.906 117.223L-813.905 117.222L-814.553 116.461ZM-763.891 49.566L-762.984 49.9867L-762.983 49.9844L-763.891 49.566ZM-697.781 -83.3666L-696.986 -82.7596L-696.985 -82.7616L-697.781 -83.3666ZM-661.5 -119.936L-662.118 -120.722L-662.118 -120.722L-661.5 -119.936ZM-502.469 -153.284L-502.11 -154.218L-502.11 -154.218L-502.469 -153.284ZM-409.7 -90.8032L-410.338 -90.0336L-410.338 -90.0336L-409.7 -90.8032ZM-367.043 -58.8376L-366.501 -59.6781L-366.501 -59.6781L-367.043 -58.8376ZM-218.589 -48.4617L-218.33 -47.496L-218.589 -48.4617ZM-130.892 -133.537L-131.624 -134.218L-131.625 -134.218L-130.892 -133.537ZM4.15064 -196.577L4.1796 -195.577L4.15064 -196.577ZM108.443 -168.86L108.511 -167.862L108.514 -167.862L108.443 -168.86ZM159.664 -190.55L159.138 -191.401L159.138 -191.401L159.664 -190.55ZM259.889 -214.746L260.428 -213.903L260.43 -213.905L259.889 -214.746ZM281.995 -235.465L282.682 -234.738L282.682 -234.739L281.995 -235.465ZM306.884 -242.491C307.131 -241.997 307.732 -241.797 308.226 -242.045C308.72 -242.292 308.92 -242.892 308.673 -243.386L306.884 -242.491ZM-1012.92 150.272C-1013.4 149.997 -1014.01 150.164 -1014.29 150.643C-1014.56 151.123 -1014.39 151.734 -1013.91 152.008L-1012.92 150.272ZM-888.649 168.277L-888.885 167.305L-888.885 167.305L-888.649 168.277ZM-808.364 125.733L-807.693 126.474L-807.692 126.473L-808.364 125.733ZM-758.775 58.8051L-757.874 59.2393L-757.873 59.2371L-758.775 58.8051ZM-692.24 -72.532L-691.436 -71.9386L-691.434 -71.9404L-692.24 -72.532ZM-657.282 -109.785L-656.635 -109.023L-656.635 -109.023L-657.282 -109.785ZM-501.055 -150.528L-501.365 -149.577L-501.365 -149.577L-501.055 -150.528ZM-406.129 -90.9573L-406.758 -90.1799L-406.129 -90.9573ZM-363.44 -58.8632L-363.996 -58.0315L-363.996 -58.0315L-363.44 -58.8632ZM-214.192 -39.7726L-213.952 -38.8018L-213.952 -38.8018L-214.192 -39.7726ZM-117.883 -132.111L-118.618 -132.79L-118.618 -132.789L-117.883 -132.111ZM29.7663 -200.817L29.7965 -199.817L29.7663 -200.817ZM126.432 -177.481L126.476 -176.482L126.479 -176.482L126.432 -177.481ZM174.563 -194.327L174.096 -195.211L174.563 -194.327ZM266.717 -217.394L267.271 -216.561L267.273 -216.563L266.717 -217.394ZM286.821 -236.72L287.529 -236.013L287.53 -236.014L286.821 -236.72ZM308.741 -246.003C309.105 -245.588 309.736 -245.545 310.152 -245.909C310.568 -246.272 310.611 -246.904 310.247 -247.32L308.741 -246.003ZM-1079 36.9001C-1037.91 60.1494 -993.818 79.3542 -948.011 82.9852L-947.853 80.9914C-993.228 77.3947 -1037.01 58.3566 -1078.01 35.1594L-1079 36.9001ZM-948.011 82.9852C-885.967 87.9035 -817.2 58.5053 -793.643 -5.52316L-795.52 -6.21375C-818.677 56.7261 -886.409 85.8621 -947.853 80.9914L-948.011 82.9852ZM-793.643 -5.52319C-786.911 -23.8197 -781.454 -41.6083 -775.91 -58.5167C-770.361 -75.4415 -764.722 -91.4995 -757.609 -106.423C-743.404 -136.229 -723.324 -161.511 -686.348 -179.942L-687.241 -181.732C-724.689 -163.066 -745.056 -137.412 -759.415 -107.283C-766.585 -92.238 -772.257 -76.078 -777.81 -59.1398C-783.369 -42.1851 -788.805 -24.4656 -795.52 -6.21373L-793.643 -5.52319ZM-686.348 -179.942C-634.125 -205.973 -560.719 -207.461 -511.562 -169.032L-510.33 -170.607C-560.243 -209.628 -634.513 -208.014 -687.241 -181.732L-686.348 -179.942ZM-511.562 -169.032C-496.93 -157.593 -483.798 -144.176 -470.912 -130.331C-458.041 -116.503 -445.395 -102.225 -431.803 -89.1589L-430.417 -90.6008C-443.956 -103.615 -456.531 -117.817 -469.448 -131.694C-482.348 -145.553 -495.568 -159.067 -510.33 -170.607L-511.562 -169.032ZM-431.803 -89.1589C-399.142 -57.7609 -365.898 -43.2374 -333.902 -45.2482C-301.903 -47.2592 -271.397 -65.7904 -244.179 -99.9774L-245.743 -101.223C-272.739 -67.3149 -302.772 -49.2085 -334.027 -47.2443C-365.283 -45.28 -398.007 -59.444 -430.417 -90.6007L-431.803 -89.1589ZM-244.179 -99.9774C-231.216 -116.259 -217.52 -133.628 -202.036 -147.032C-186.562 -160.426 -169.398 -169.774 -149.518 -170.139L-149.555 -172.139C-170.081 -171.762 -187.682 -162.103 -203.345 -148.544C-218.997 -134.995 -232.811 -117.466 -245.743 -101.223L-244.179 -99.9774ZM-149.518 -170.139C-136.477 -170.379 -123.887 -166.638 -111.481 -160.971C-99.0653 -155.3 -86.9071 -147.736 -74.696 -140.365C-50.3789 -125.686 -25.7928 -111.705 0.674913 -116.153L0.343388 -118.126C-25.2776 -113.819 -49.224 -127.325 -73.6624 -142.077C-85.8291 -149.422 -98.1044 -157.06 -110.65 -162.791C-123.206 -168.526 -136.105 -172.386 -149.555 -172.139L-149.518 -170.139ZM0.674799 -116.153C15.1566 -118.587 27.5177 -126.211 38.8459 -135.762C50.1476 -145.29 60.5541 -156.861 70.9849 -167.178L69.5785 -168.6C59.0289 -158.166 48.7805 -146.754 37.5567 -137.291C26.3596 -127.85 14.3247 -120.475 0.343388 -118.126L0.674799 -116.153ZM70.9849 -167.178C83.3504 -179.407 95.4951 -185.647 107.549 -188.601C119.625 -191.561 131.667 -191.237 143.87 -190.246C168.197 -188.272 193.239 -183.594 219.416 -197.974L218.452 -199.727C192.925 -185.704 168.617 -190.244 144.032 -192.24C131.778 -193.234 119.473 -193.583 107.073 -190.544C94.6504 -187.499 82.1886 -181.07 69.5785 -168.6L70.9849 -167.178ZM219.415 -197.974C226.032 -201.609 231.66 -206.723 237.08 -211.989C242.528 -217.283 247.745 -222.707 253.639 -227.143L252.436 -228.741C246.411 -224.207 241.064 -218.65 235.686 -213.423C230.278 -208.169 224.814 -203.222 218.453 -199.727L219.415 -197.974ZM253.639 -227.143C259.636 -231.656 269.651 -235.551 278.537 -235.47C282.964 -235.429 287.029 -234.403 290.18 -232.065C293.31 -229.743 295.647 -226.05 296.5 -220.454L298.477 -220.756C297.556 -226.793 294.987 -230.99 291.372 -233.672C287.779 -236.337 283.258 -237.427 278.555 -237.47C269.178 -237.556 258.741 -233.486 252.436 -228.741L253.639 -227.143ZM-1069.7 53.3452C-1028.81 76.512 -984.728 93.6663 -939.499 95.3145L-939.427 93.3158C-984.209 91.6839 -1027.97 74.69 -1068.71 51.6051L-1069.7 53.3452ZM-939.501 95.3144C-907.028 96.5525 -873.071 88.3343 -844.969 70.9551L-846.021 69.2541C-873.762 86.4104 -907.322 94.5399 -939.425 93.3159L-939.501 95.3144ZM-844.968 70.9549C-820.165 55.6013 -799.783 33.1529 -788.532 3.72881L-790.4 3.01447C-801.478 31.9847 -821.547 54.1048 -846.021 69.2543L-844.968 70.9549ZM-788.531 3.72814C-783.401 -9.71619 -778.949 -22.9064 -774.632 -35.6984C-770.313 -48.4967 -766.132 -60.8921 -761.537 -72.78C-752.347 -96.5524 -741.526 -118.229 -724.737 -136.872L-726.223 -138.21C-743.246 -119.308 -754.173 -97.3756 -763.402 -73.5011C-768.016 -61.5655 -772.211 -49.128 -776.527 -36.3378C-780.845 -23.5412 -785.286 -10.3871 -790.4 3.01514L-788.531 3.72814ZM-724.736 -136.872C-713.603 -149.254 -699.77 -160.285 -682.103 -169.806L-683.052 -171.567C-700.91 -161.943 -714.928 -150.772 -726.224 -138.21L-724.736 -136.872ZM-682.103 -169.806C-631.065 -197.31 -559.96 -201.607 -510.11 -166.247L-508.953 -167.878C-559.579 -203.789 -631.532 -199.331 -683.052 -171.567L-682.103 -169.806ZM-510.11 -166.247C-495.142 -155.63 -481.592 -142.884 -468.315 -129.536C-455.059 -116.21 -442.039 -102.244 -428.223 -89.3031L-426.856 -90.7627C-440.64 -103.674 -453.577 -117.556 -466.897 -130.947C-480.197 -144.317 -493.843 -157.16 -508.953 -167.878L-510.11 -166.247ZM-428.225 -89.3042C-414.019 -75.953 -399.745 -65.4329 -385.516 -57.8203L-384.572 -59.5838C-398.618 -67.0985 -412.752 -77.5068 -426.855 -90.7616L-428.225 -89.3042ZM-385.514 -57.8195C-360.064 -44.2627 -335.227 -40.7348 -310.923 -46.5761C-286.643 -52.4115 -262.996 -67.5725 -239.851 -91.21L-241.28 -92.6092C-264.261 -69.139 -287.593 -54.2402 -311.39 -48.5207C-335.163 -42.8071 -359.502 -46.2292 -384.574 -59.5847L-385.514 -57.8195ZM-239.851 -91.21C-232.526 -98.6912 -225.237 -107.037 -217.855 -115.421C-210.465 -123.814 -202.977 -132.25 -195.222 -139.955L-196.632 -141.374C-204.44 -133.615 -211.969 -125.132 -219.356 -116.743C-226.751 -108.344 -234 -100.044 -241.28 -92.6092L-239.851 -91.21ZM-195.222 -139.955C-175.114 -159.908 -151.187 -173.75 -123.898 -174.378L-123.944 -176.377C-151.921 -175.734 -176.307 -161.542 -196.631 -141.375L-195.222 -139.955ZM-123.902 -174.378C-99.2489 -174.848 -76.2757 -160.708 -53.012 -147.169C-29.8932 -133.714 -6.47746 -120.851 18.6533 -124.77L18.3451 -126.746C-5.97401 -122.954 -28.7741 -135.377 -52.006 -148.898C-75.093 -162.334 -98.6051 -176.86 -123.94 -176.377L-123.902 -174.378ZM18.6538 -124.77C32.3787 -126.917 44.1876 -133.779 55.0437 -142.418C65.8749 -151.037 75.8782 -161.531 85.8655 -170.937L84.4942 -172.393C74.3962 -162.883 64.5439 -152.533 53.7985 -143.983C43.0779 -135.452 31.5892 -128.818 18.3446 -126.746L18.6538 -124.77ZM85.8654 -170.937C97.6334 -182.018 109.179 -187.701 120.626 -190.437C132.094 -193.178 143.51 -192.975 155.057 -192.211C178.077 -190.688 201.685 -186.889 226.25 -200.627L225.274 -202.373C201.342 -188.988 178.443 -192.668 155.189 -194.207C143.598 -194.973 131.934 -195.196 120.161 -192.382C108.367 -189.563 96.5103 -183.708 84.4943 -172.393L85.8654 -170.937ZM226.251 -200.627C232.472 -204.111 237.785 -208.955 242.897 -213.952C248.037 -218.976 252.951 -224.129 258.476 -228.404L257.251 -229.986C251.607 -225.618 246.568 -220.337 241.499 -215.382C236.401 -210.399 231.247 -205.718 225.274 -202.373L226.251 -200.627ZM258.476 -228.404C264.096 -232.755 273.357 -236.564 281.577 -236.782C285.675 -236.89 289.425 -236.104 292.336 -234.144C295.219 -232.203 297.387 -229.039 298.22 -224.158L300.191 -224.494C299.278 -229.843 296.847 -233.518 293.453 -235.803C290.087 -238.069 285.883 -238.896 281.524 -238.781C272.831 -238.551 263.167 -234.565 257.251 -229.986L258.476 -228.404ZM-1060.4 69.7864C-1019.72 92.871 -975.638 107.973 -930.985 107.641L-931 105.641C-975.195 105.97 -1018.93 91.0199 -1059.42 68.0469L-1060.4 69.7864ZM-930.989 107.641C-899.048 107.502 -865.994 98.1501 -838.755 80.2104L-839.855 78.5401C-866.752 96.2546 -899.423 105.504 -930.997 105.641L-930.989 107.641ZM-838.754 80.2099C-814.69 64.3306 -794.891 41.8389 -783.42 12.979L-785.279 12.2403C-796.584 40.6838 -816.099 62.8643 -839.856 78.5406L-838.754 80.2099ZM-783.42 12.9777C-778.222 -0.152468 -773.656 -13.0715 -769.219 -25.638C-764.781 -38.2106 -760.475 -50.4263 -755.79 -62.1811C-746.42 -85.6878 -735.557 -107.289 -719.186 -126.05L-720.693 -127.365C-737.277 -108.359 -748.241 -86.5216 -757.647 -62.9216C-762.35 -51.123 -766.67 -38.8683 -771.105 -26.3038C-775.543 -13.7332 -780.098 -0.848445 -785.28 12.2416L-783.42 12.9777ZM-719.185 -126.051C-708.287 -138.575 -694.817 -149.802 -677.858 -159.673L-678.864 -161.402C-696 -151.427 -709.643 -140.063 -720.694 -127.364L-719.185 -126.051ZM-677.858 -159.673C-628.01 -188.684 -559.169 -195.769 -508.658 -163.465L-507.581 -165.149C-558.888 -197.964 -628.558 -190.679 -678.864 -161.402L-677.858 -159.673ZM-508.658 -163.465C-493.346 -153.672 -479.378 -141.598 -465.712 -128.746C-452.089 -115.934 -438.667 -102.25 -424.646 -89.4486L-423.298 -90.9255C-437.341 -103.748 -450.603 -117.282 -464.342 -130.203C-478.039 -143.085 -492.113 -155.258 -507.581 -165.149L-508.658 -163.465ZM-424.648 -89.4505C-410.413 -76.3763 -396.145 -65.7836 -381.93 -57.8582L-380.956 -59.6051C-395.009 -67.44 -409.151 -77.9331 -423.295 -90.9236L-424.648 -89.4505ZM-381.927 -57.8568C-356.744 -43.9164 -332.271 -39.5467 -307.988 -43.9592C-283.728 -48.3677 -259.755 -61.5244 -235.516 -82.4644L-236.823 -83.9778C-260.896 -63.1821 -284.551 -50.2509 -308.346 -45.927C-332.118 -41.6071 -356.126 -45.8605 -380.959 -59.6066L-381.927 -57.8568ZM-235.516 -82.4644C-226.315 -90.4131 -217.488 -99.8497 -208.72 -109.577C-199.939 -119.32 -191.227 -129.343 -182.205 -138.539L-183.632 -139.94C-192.694 -130.704 -201.458 -120.622 -210.206 -110.916C-218.967 -101.195 -227.724 -91.839 -236.823 -83.9778L-235.516 -82.4644ZM-182.205 -138.539C-159.043 -162.106 -130.278 -177.881 -98.2823 -178.619L-98.3284 -180.618C-130.983 -179.865 -160.215 -163.766 -183.632 -139.941L-182.205 -138.539ZM-98.2822 -178.619C-75.1169 -179.154 -53.3846 -166.359 -31.3271 -154.033C-9.40704 -141.784 12.8384 -130.001 36.6306 -133.391L36.3485 -135.371C13.3301 -132.091 -8.32508 -143.471 -30.3515 -155.779C-52.2405 -168.011 -74.5002 -181.169 -98.3284 -180.618L-98.2822 -178.619ZM36.6316 -133.391C49.5994 -135.251 60.8535 -141.35 71.2361 -149.075C81.5955 -156.784 91.1948 -166.201 100.742 -174.695L99.4128 -176.189C89.7639 -167.605 80.3084 -158.319 70.0422 -150.68C59.7995 -143.058 48.8577 -137.165 36.3476 -135.371L36.6316 -133.391ZM100.742 -174.695C123.029 -194.525 144.501 -195.251 166.24 -194.178C187.958 -193.106 210.133 -190.185 233.084 -203.282L232.092 -205.019C209.757 -192.273 188.262 -195.093 166.339 -196.175C144.436 -197.257 122.296 -196.55 99.4128 -176.189L100.742 -174.695ZM233.085 -203.282C238.911 -206.614 243.909 -211.189 248.713 -215.917C253.546 -220.672 258.158 -225.553 263.314 -229.669L262.066 -231.232C256.803 -227.031 252.071 -222.026 247.311 -217.342C242.522 -212.631 237.679 -208.214 232.092 -205.018L233.085 -203.282ZM263.314 -229.669C268.557 -233.857 277.065 -237.582 284.622 -238.098C288.393 -238.355 291.83 -237.808 294.501 -236.222C297.136 -234.657 299.129 -232.021 299.94 -227.859L301.903 -228.241C300.995 -232.905 298.696 -236.057 295.522 -237.942C292.385 -239.805 288.498 -240.367 284.486 -240.093C276.479 -239.547 267.591 -235.645 262.066 -231.232L263.314 -229.669ZM-1051.1 86.2313C-1010.62 109.234 -966.546 122.19 -922.473 119.968L-922.574 117.971C-966.185 120.169 -1009.89 107.352 -1050.11 84.4925L-1051.1 86.2313ZM-922.473 119.968C-891.071 118.385 -858.917 107.967 -832.542 89.465L-833.691 87.8277C-859.74 106.101 -891.526 116.405 -922.574 117.971L-922.473 119.968ZM-832.542 89.4644C-809.212 73.0616 -789.998 50.5283 -778.31 22.2298L-780.159 21.4663C-791.69 49.3861 -810.648 71.6264 -833.692 87.8283L-832.542 89.4644ZM-778.31 22.2281C-773.044 9.41183 -768.363 -3.23613 -763.807 -15.5773C-759.249 -27.9241 -754.817 -39.9601 -750.042 -51.5815C-740.491 -74.8222 -729.588 -96.3464 -713.635 -115.227L-715.163 -116.518C-731.309 -97.4083 -742.307 -75.6665 -751.891 -52.3417C-756.683 -40.6804 -761.128 -28.6087 -765.683 -16.2699C-770.24 -3.92552 -774.909 8.68996 -780.16 21.468L-778.31 22.2281ZM-713.634 -115.228C-702.97 -127.899 -689.866 -139.334 -673.613 -149.54L-674.676 -151.234C-691.094 -140.925 -704.358 -129.355 -715.164 -116.516L-713.634 -115.228ZM-673.613 -149.54C-624.959 -180.091 -558.35 -189.954 -507.202 -160.684L-506.209 -162.42C-558.174 -192.158 -625.591 -182.056 -674.676 -151.234L-673.613 -149.54ZM-507.202 -160.684C-475.825 -142.727 -449.689 -115.071 -421.067 -89.5949L-419.737 -91.0888C-448.176 -116.401 -474.591 -144.326 -506.209 -162.42L-507.202 -160.684ZM-421.07 -89.5975C-406.805 -76.7998 -392.563 -66.1043 -378.342 -57.8919L-377.342 -59.6239C-391.416 -67.7514 -405.546 -78.3576 -419.734 -91.0862L-421.07 -89.5975ZM-378.342 -57.8919C-353.455 -43.5194 -329.118 -38.1292 -304.736 -41.0361C-280.371 -43.941 -256.054 -55.1207 -231.174 -73.7305L-232.372 -75.332C-257.068 -56.8597 -281.06 -45.873 -304.973 -43.022C-328.869 -40.1729 -352.777 -45.4372 -377.342 -59.6238L-378.342 -57.8919ZM-231.174 -73.7305C-219.985 -82.0987 -209.62 -92.6257 -199.497 -103.705C-189.346 -114.815 -179.485 -126.427 -169.189 -137.121L-170.63 -138.508C-180.94 -127.8 -190.899 -116.081 -200.973 -105.054C-211.075 -93.9976 -221.339 -83.5842 -232.372 -75.3321L-231.174 -73.7305ZM-169.19 -137.12C-142.97 -164.304 -109.361 -181.948 -72.6657 -182.859L-72.7154 -184.859C-110.043 -183.932 -144.127 -165.986 -170.629 -138.509L-169.19 -137.12ZM-72.6658 -182.859C-50.9831 -183.396 -30.4892 -171.943 -9.63882 -160.846C11.083 -149.818 32.1552 -139.149 54.6064 -142.008L54.3537 -143.992C32.6325 -141.226 12.1206 -151.532 -8.69919 -162.612C-29.3905 -173.623 -50.3956 -185.411 -72.7153 -184.859L-72.6658 -182.859ZM54.6079 -142.008C66.8161 -143.58 77.5129 -148.915 87.4213 -155.728C97.3084 -162.526 106.504 -170.867 115.615 -178.451L114.336 -179.988C105.134 -172.329 96.0743 -164.105 86.2882 -157.376C76.5234 -150.662 66.129 -145.508 54.3524 -143.992L54.6079 -142.008ZM115.615 -178.451C136.702 -196.003 156.978 -196.767 177.42 -196.144C197.838 -195.522 218.584 -193.479 239.92 -205.934L238.911 -207.661C218.17 -195.554 198.074 -197.516 177.481 -198.143C156.911 -198.769 136.005 -198.025 114.336 -179.988L115.615 -178.451ZM239.921 -205.935C245.352 -209.117 250.035 -213.422 254.532 -217.881C259.057 -222.366 263.367 -226.977 268.155 -230.934L266.881 -232.475C262 -228.442 257.576 -223.714 253.124 -219.301C248.646 -214.861 244.111 -210.708 238.91 -207.66L239.921 -205.935ZM268.155 -230.934C273.022 -234.96 280.779 -238.6 287.676 -239.414C291.12 -239.82 294.249 -239.51 296.681 -238.293C299.068 -237.098 300.879 -234.986 301.662 -231.549L303.612 -231.994C302.703 -235.98 300.528 -238.604 297.576 -240.081C294.668 -241.536 291.104 -241.832 287.441 -241.4C280.124 -240.537 272.013 -236.721 266.88 -232.475L268.155 -230.934ZM-1041.81 102.676C-1001.53 125.595 -957.46 136.48 -913.963 132.291L-914.155 130.3C-957.186 134.444 -1000.85 123.682 -1040.82 100.937L-1041.81 102.676ZM-913.963 132.291C-883.098 129.319 -851.844 117.78 -826.333 98.7188L-827.53 97.1166C-852.734 115.949 -883.637 127.362 -914.155 130.3L-913.963 132.291ZM-826.332 98.718C-803.74 81.7921 -785.109 59.2151 -773.204 31.4811L-775.041 30.6922C-786.8 58.0857 -805.203 80.3889 -827.531 97.1174L-826.332 98.718ZM-773.203 31.4791C-767.869 18.9769 -763.074 6.60025 -758.399 -5.51559C-753.721 -17.6367 -749.164 -29.493 -744.298 -40.9814C-734.567 -63.9564 -723.621 -85.4046 -708.088 -104.405L-709.636 -105.671C-725.344 -86.4579 -736.377 -64.8115 -746.14 -41.7614C-751.021 -30.2373 -755.59 -18.3485 -760.264 -6.23566C-764.941 5.88246 -769.724 18.2285 -775.042 30.6943L-773.203 31.4791ZM-708.087 -104.407C-697.658 -117.222 -684.925 -128.878 -669.371 -139.409L-670.493 -141.065C-686.197 -130.432 -699.078 -118.646 -709.638 -105.669L-708.087 -104.407ZM-669.371 -139.409C-621.924 -171.533 -557.51 -184.164 -505.748 -157.904L-504.843 -159.688C-557.442 -186.372 -622.642 -173.462 -670.493 -141.065L-669.371 -139.409ZM-505.748 -157.904C-473.665 -141.628 -446.5 -115.033 -417.494 -89.7421L-416.18 -91.2496C-445.048 -116.42 -472.473 -143.266 -504.843 -159.688L-505.748 -157.904ZM-417.494 -89.7421C-403.176 -77.2577 -388.972 -66.4503 -374.759 -57.9257L-373.73 -59.6409C-387.813 -68.0871 -401.92 -78.8162 -416.18 -91.2496L-417.494 -89.7421ZM-374.759 -57.9257C-350.148 -43.1671 -325.81 -36.6159 -301.269 -37.9364C-276.737 -39.2565 -252.086 -48.4379 -226.832 -65.006L-227.929 -66.6783C-252.97 -50.25 -277.284 -41.2299 -301.377 -39.9335C-325.461 -38.6376 -349.408 -45.0553 -373.73 -59.6409L-374.759 -57.9257ZM-226.832 -65.006C-213.564 -73.7093 -201.661 -85.326 -190.207 -97.7763C-184.479 -104.003 -178.851 -110.451 -173.221 -116.854C-167.587 -123.261 -161.948 -129.624 -156.181 -135.702L-157.631 -137.078C-163.427 -130.971 -169.088 -124.582 -174.722 -118.175C-180.361 -111.763 -185.97 -105.336 -191.679 -99.1304C-203.099 -86.717 -214.87 -75.245 -227.929 -66.6783L-226.832 -65.006ZM-156.181 -135.701C-126.9 -166.506 -88.4498 -186.012 -47.0538 -187.099L-47.1063 -189.098C-89.1137 -187.995 -128.045 -168.205 -157.631 -137.079L-156.181 -135.701ZM-47.0538 -187.099C-26.8524 -187.629 -7.5954 -177.515 12.0467 -167.651C31.5701 -157.847 51.4665 -148.298 72.5732 -150.627L72.3539 -152.614C51.9274 -150.361 32.557 -159.589 12.9442 -169.438C-6.5498 -179.228 -26.2981 -189.644 -47.1062 -189.098L-47.0538 -187.099ZM72.5752 -150.627C95.4163 -153.193 113.148 -168.882 130.479 -182.204L129.26 -183.789C111.715 -170.303 94.5024 -155.103 72.352 -152.614L72.5752 -150.627ZM130.479 -182.204C150.359 -197.486 169.441 -198.286 188.59 -198.115C207.713 -197.944 227.031 -196.778 246.751 -208.591L245.723 -210.306C226.575 -198.836 207.871 -199.943 188.608 -200.115C169.37 -200.287 149.701 -199.503 129.26 -183.789L130.479 -182.204ZM246.753 -208.592C251.788 -211.621 256.155 -215.656 260.346 -219.845C264.563 -224.062 268.571 -228.401 272.993 -232.199L271.69 -233.716C267.192 -229.853 263.074 -225.401 258.932 -221.26C254.763 -217.092 250.538 -213.203 245.722 -210.305L246.753 -208.592ZM272.994 -232.2C277.485 -236.066 284.493 -239.624 290.734 -240.735C293.854 -241.291 296.68 -241.217 298.879 -240.362C301.024 -239.528 302.637 -237.929 303.384 -235.228L305.312 -235.761C304.395 -239.079 302.329 -241.166 299.604 -242.226C296.932 -243.265 293.695 -243.294 290.383 -242.704C283.76 -241.525 276.429 -237.795 271.689 -233.716L272.994 -232.2ZM-1032.51 119.121C-992.433 141.957 -948.365 150.776 -905.445 144.611L-905.729 142.631C-948.182 148.729 -991.804 140.014 -1031.52 117.383L-1032.51 119.121ZM-905.445 144.611C-875.12 140.257 -844.765 127.592 -820.118 107.971L-821.364 106.406C-845.722 125.799 -875.743 138.326 -905.729 142.631L-905.445 144.611ZM-820.117 107.97C-798.263 90.5225 -780.213 67.9023 -768.09 40.7345L-769.917 39.9196C-781.905 66.7855 -799.752 89.1521 -821.365 106.407L-820.117 107.97ZM-768.089 40.7322C-762.688 28.5437 -757.779 16.4378 -752.984 4.54694C-748.187 -7.34879 -743.505 -19.0256 -738.548 -30.381C-728.637 -53.0904 -717.65 -74.4619 -702.536 -93.5817L-704.104 -94.8219C-719.374 -75.5067 -730.441 -53.9562 -740.381 -31.1811C-745.351 -19.7942 -750.045 -8.08822 -754.839 3.79895C-759.634 15.691 -764.532 27.768 -769.918 39.9219L-768.089 40.7322ZM-702.534 -93.5836C-692.338 -106.547 -679.982 -118.438 -665.124 -129.28L-666.303 -130.895C-681.299 -119.952 -693.79 -107.936 -704.106 -94.82L-702.534 -93.5836ZM-665.124 -129.28C-618.899 -163.012 -556.642 -178.405 -504.286 -155.126L-503.474 -156.953C-556.685 -180.613 -619.704 -164.901 -666.303 -130.895L-665.124 -129.28ZM-504.286 -155.126C-471.481 -140.54 -443.366 -114.942 -413.915 -89.8887L-412.619 -91.4121C-441.966 -116.376 -470.34 -142.221 -503.474 -156.953L-504.286 -155.126ZM-413.915 -89.8887C-399.565 -77.6829 -385.373 -66.7972 -371.169 -57.9614L-370.112 -59.6596C-384.204 -68.4252 -398.314 -79.2438 -412.619 -91.4121L-413.915 -89.8887ZM-371.169 -57.9614C-346.832 -42.8218 -322.417 -35.0002 -297.681 -34.6791C-272.945 -34.3581 -247.959 -41.5381 -222.481 -56.2872L-223.483 -58.0181C-248.709 -43.4151 -273.342 -36.3634 -297.655 -36.679C-321.966 -36.9945 -346.029 -44.6778 -370.112 -59.6596L-371.169 -57.9614ZM-222.481 -56.2872C-207.061 -65.2145 -193.62 -77.9199 -180.854 -91.7671C-174.469 -98.6922 -168.24 -105.918 -162.016 -113.107C-155.788 -120.302 -149.562 -127.461 -143.166 -134.28L-144.625 -135.648C-151.052 -128.797 -157.302 -121.608 -163.528 -114.416C-169.759 -107.219 -175.965 -100.02 -182.324 -93.1227C-195.045 -79.325 -208.324 -66.7943 -223.483 -58.0181L-222.481 -56.2872ZM-143.167 -134.279C-110.822 -168.71 -67.5291 -190.065 -21.4343 -191.339L-21.4895 -193.338C-68.1775 -192.048 -111.958 -170.421 -144.624 -135.649L-143.167 -134.279ZM-21.4343 -191.339C-2.71112 -191.856 15.3117 -183.08 33.7447 -174.45C52.0698 -165.871 70.7877 -157.447 90.5455 -159.246L90.3641 -161.237C71.23 -159.495 52.9985 -167.645 34.5927 -176.262C16.2949 -184.828 -2.19472 -193.871 -21.4895 -193.338L-21.4343 -191.339ZM90.5477 -159.246C111.875 -161.238 128.854 -174.452 145.341 -185.954L144.196 -187.594C127.535 -175.971 111.043 -163.169 90.3617 -161.237L90.5477 -159.246ZM145.341 -185.954C164.007 -198.976 181.898 -199.812 199.76 -200.091C217.595 -200.369 235.49 -200.079 253.59 -211.247L252.54 -212.949C234.985 -202.117 217.663 -202.371 199.729 -202.091C181.822 -201.811 163.393 -200.986 144.196 -187.594L145.341 -185.954ZM253.592 -211.248C258.231 -214.126 262.281 -217.889 266.165 -221.81C270.076 -225.758 273.781 -229.824 277.837 -233.467L276.5 -234.955C272.388 -231.262 268.575 -227.085 264.744 -223.217C260.886 -219.322 256.97 -215.697 252.538 -212.947L253.592 -211.248ZM277.837 -233.468C281.957 -237.174 288.219 -240.652 293.809 -242.062C296.607 -242.769 299.139 -242.932 301.114 -242.431C303.034 -241.943 304.43 -240.835 305.122 -238.881L307.007 -239.549C306.064 -242.212 304.087 -243.739 301.606 -244.369C299.179 -244.985 296.278 -244.748 293.319 -244.002C287.395 -242.506 280.845 -238.865 276.5 -234.955L277.837 -233.468ZM-1023.21 135.567C-983.339 158.32 -939.272 165.079 -896.931 156.933L-897.309 154.969C-939.183 163.026 -982.764 156.346 -1022.22 133.83L-1023.21 135.567ZM-896.931 156.933C-867.143 151.2 -837.689 137.404 -813.906 117.223L-815.2 115.698C-838.715 135.651 -867.851 149.3 -897.309 154.969L-896.931 156.933ZM-813.905 117.222C-792.788 99.2527 -775.322 76.5925 -762.984 49.9867L-764.798 49.1453C-777.014 75.4882 -794.303 97.9161 -815.201 115.699L-813.905 117.222ZM-762.983 49.9844C-757.513 38.1101 -752.49 26.2756 -747.575 14.6101C-742.658 2.94002 -737.851 -8.55699 -732.804 -19.7794C-722.711 -42.223 -711.682 -63.5186 -696.986 -82.7596L-698.576 -83.9735C-713.407 -64.5549 -724.509 -43.0998 -734.628 -20.5997C-739.687 -9.35036 -744.505 2.17264 -749.418 13.8335C-754.333 25.4989 -759.345 37.3063 -764.799 49.1476L-762.983 49.9844ZM-696.985 -82.7616C-687.026 -95.8713 -675.052 -108.004 -660.882 -119.15L-662.118 -120.722C-676.414 -109.478 -688.509 -97.2245 -698.577 -83.9715L-696.985 -82.7616ZM-660.882 -119.15C-615.899 -154.526 -555.762 -172.678 -502.827 -152.35L-502.11 -154.218C-555.918 -174.88 -616.792 -156.368 -662.118 -120.722L-660.882 -119.15ZM-502.827 -152.35C-469.29 -139.471 -440.241 -114.844 -410.338 -90.0336L-409.061 -91.5728C-438.89 -116.321 -468.204 -141.196 -502.11 -154.218L-502.827 -152.35ZM-410.338 -90.0336C-395.962 -78.1061 -381.777 -67.1451 -367.584 -57.9971L-366.501 -59.6781C-380.598 -68.7646 -394.714 -79.6693 -409.061 -91.5728L-410.338 -90.0336ZM-367.584 -57.9972C-319.297 -26.8637 -273.654 -32.6149 -218.33 -47.496L-218.849 -49.4274C-274.049 -34.5799 -318.961 -29.0264 -366.501 -59.6781L-367.584 -57.9972ZM-218.33 -47.496C-199.062 -52.6789 -184.013 -66.572 -170.318 -82.8152C-163.466 -90.9413 -156.919 -99.6992 -150.35 -108.285C-143.772 -116.884 -137.165 -125.318 -130.16 -132.856L-131.625 -134.218C-138.702 -126.603 -145.358 -118.101 -151.938 -109.501C-158.528 -100.888 -165.035 -92.1837 -171.847 -84.1044C-185.478 -67.9367 -200.195 -54.4453 -218.849 -49.4274L-218.33 -47.496ZM-130.16 -132.856C-94.7463 -170.915 -46.6103 -194.107 4.1796 -195.577L4.12167 -197.576C-47.2456 -196.089 -95.8756 -172.637 -131.624 -134.218L-130.16 -132.856ZM4.1796 -195.577C21.428 -196.077 38.2192 -188.638 55.4419 -181.244C72.5687 -173.892 90.105 -166.595 108.511 -167.862L108.374 -169.858C90.5261 -168.629 73.4299 -175.698 56.2309 -183.082C39.1279 -190.424 21.9001 -198.091 4.12167 -197.576L4.1796 -195.577ZM108.514 -167.862C128.321 -169.283 144.532 -180.024 160.19 -189.699L159.138 -191.401C143.354 -181.647 127.588 -171.236 108.371 -169.857L108.514 -167.862ZM160.19 -189.699C177.631 -200.475 194.335 -201.346 210.917 -202.074C227.469 -202.8 243.948 -203.379 260.428 -213.903L259.351 -215.589C243.385 -205.392 227.435 -204.8 210.829 -204.072C194.252 -203.344 177.066 -202.477 159.138 -191.401L160.19 -189.699ZM260.43 -213.905C264.67 -216.629 268.404 -220.121 271.982 -223.774C275.589 -227.458 278.986 -231.248 282.682 -234.738L281.308 -236.192C277.583 -232.673 274.071 -228.766 270.553 -225.174C267.005 -221.551 263.397 -218.188 259.349 -215.587L260.43 -213.905ZM282.682 -234.739C286.429 -238.287 291.949 -241.686 296.893 -243.399C299.37 -244.257 301.62 -244.663 303.389 -244.51C305.129 -244.36 306.283 -243.692 306.884 -242.491L308.673 -243.386C307.665 -245.398 305.754 -246.313 303.561 -246.503C301.396 -246.69 298.843 -246.191 296.238 -245.289C291.019 -243.48 285.255 -239.93 281.307 -236.191L282.682 -234.739ZM-1013.91 152.008C-974.242 174.683 -930.172 179.387 -888.413 169.248L-888.885 167.305C-930.181 177.331 -973.723 172.677 -1012.92 150.272L-1013.91 152.008ZM-888.413 169.248C-859.163 162.148 -830.612 147.213 -807.693 126.474L-809.035 124.991C-831.705 145.504 -859.956 160.282 -888.885 167.305L-888.413 169.248ZM-807.692 126.473C-787.312 107.98 -770.428 85.2799 -757.874 59.2393L-759.676 58.3708C-772.122 84.1881 -788.853 106.678 -809.036 124.992L-807.692 126.473ZM-757.873 59.2371C-746.825 36.174 -737.299 12.933 -727.055 -9.17978C-716.781 -31.3579 -705.711 -52.5773 -691.436 -71.9386L-693.045 -73.1255C-707.438 -53.6052 -718.574 -32.2457 -728.87 -10.0205C-739.196 12.2701 -748.604 35.2568 -759.677 58.3731L-757.873 59.2371ZM-691.434 -71.9404C-681.708 -85.1959 -670.127 -97.5871 -656.635 -109.023L-657.928 -110.548C-671.534 -99.0164 -683.223 -86.5112 -693.047 -73.1236L-691.434 -71.9404ZM-656.635 -109.023C-612.925 -146.077 -554.866 -166.986 -501.365 -149.577L-500.746 -151.479C-555.138 -169.177 -613.905 -147.868 -657.928 -110.548L-656.635 -109.023ZM-501.365 -149.577C-467.087 -138.423 -437.119 -114.746 -406.758 -90.1799L-405.5 -91.7347C-435.813 -116.263 -466.059 -140.192 -500.746 -151.479L-501.365 -149.577ZM-406.758 -90.1799C-392.358 -78.528 -378.173 -67.4972 -363.996 -58.0315L-362.885 -59.6948C-376.985 -69.1088 -391.113 -80.0936 -405.5 -91.7347L-406.758 -90.1799ZM-363.996 -58.0315C-316.27 -26.1688 -268.567 -25.3135 -213.952 -38.8018L-214.432 -40.7434C-268.721 -27.3355 -315.787 -28.2512 -362.885 -59.6949L-363.996 -58.0315ZM-213.952 -38.8018C-192.641 -44.0661 -176.063 -59.036 -161.035 -76.7067C-153.517 -85.5465 -146.354 -95.1038 -139.176 -104.498C-131.99 -113.904 -124.784 -123.153 -117.148 -131.433L-118.618 -132.789C-126.324 -124.433 -133.579 -115.118 -140.765 -105.712C-147.961 -96.2945 -155.083 -86.7916 -162.558 -78.0024C-177.515 -60.4153 -193.75 -45.8522 -214.432 -40.7434L-213.952 -38.8018ZM-117.148 -131.433C-78.668 -173.121 -25.688 -198.138 29.7965 -199.817L29.736 -201.816C-26.3118 -200.12 -79.7916 -174.852 -118.618 -132.79L-117.148 -131.433ZM29.7965 -199.817C45.574 -200.295 61.1377 -194.191 77.1484 -188.034C93.0763 -181.91 109.427 -175.745 126.476 -176.482L126.389 -178.48C109.823 -177.764 93.8589 -183.752 77.8662 -189.901C61.9563 -196.018 45.9942 -202.308 29.736 -201.816L29.7965 -199.817ZM126.479 -176.482C144.76 -177.327 160.178 -185.608 175.03 -193.442L174.096 -195.211C159.174 -187.34 144.148 -179.301 126.386 -178.48L126.479 -176.482ZM175.03 -193.442C191.239 -201.992 206.76 -202.896 222.068 -204.07C237.345 -205.242 252.414 -206.684 267.271 -216.561L266.163 -218.227C251.783 -208.666 237.195 -207.236 221.915 -206.064C206.665 -204.895 190.728 -203.984 174.096 -195.211L175.03 -193.442ZM267.273 -216.563C271.115 -219.135 274.532 -222.355 277.803 -225.74C281.121 -229.174 284.181 -232.657 287.529 -236.013L286.113 -237.426C282.793 -234.098 279.554 -230.431 276.364 -227.13C273.127 -223.78 269.827 -220.679 266.161 -218.225L267.273 -216.563ZM287.53 -236.014C290.908 -239.408 295.689 -242.731 299.994 -244.751C302.15 -245.763 304.129 -246.42 305.717 -246.621C307.35 -246.827 308.288 -246.522 308.741 -246.003L310.247 -247.32C309.119 -248.61 307.298 -248.836 305.466 -248.605C303.588 -248.368 301.396 -247.618 299.145 -246.562C294.636 -244.446 289.661 -240.99 286.113 -237.425L287.53 -236.014Z" fill="url(#paint0_linear_0_1)"/>
<path d="M-938.726 314.563C-860.654 341.378 -772.455 333.021 -702.416 293.781C-649.118 263.921 -602.951 220.175 -570.213 171.331C-562.344 159.591 -555.182 147.522 -548.162 135.643C-531.951 108.209 -517.008 81.25 -493.628 60.3429C-486.65 54.1033 -479.22 48.7447 -471.329 44.3188C-422.564 16.9692 -358.123 21.8757 -303.224 46.158C-289.011 52.3919 -275.345 58.4789 -262.043 63.3787C-224.508 77.2086 -189.548 81.1715 -150.642 47.0097C-123.99 23.4739 -106.182 -8.86546 -91.1322 -43.0581C-84.3567 -58.4485 -78.1368 -74.2148 -71.9087 -89.7352C-51.9631 -139.493 -28.3508 -191.29 13.3175 -219.62C24.835 -227.398 37.1083 -232.971 49.8341 -237.028C70.8453 -243.725 93.1407 -246.166 116.098 -246.451C128.912 -246.609 141.923 -245.78 154.831 -244.485C174.481 -242.512 210.275 -233.1 244.729 -229.101C297.372 -222.993 349.47 -228.629 341.292 -289.562" stroke="url(#paint1_linear_0_1)" stroke-width="2" stroke-linecap="round" stroke-linejoin="round"/>
<path d="M-964.755 308.467C-886.23 334.919 -794.409 327.05 -725.161 285.324C-671.508 252.995 -624.535 208.547 -587.959 165.862C-579.253 155.702 -571.108 145.529 -563.132 135.716C-544.852 113.229 -528.572 91.7772 -504.355 75.448C-497.148 70.5874 -489.556 66.4051 -481.492 63.078C-431.377 42.3968 -366.33 47.9317 -310.488 67.8795C-295.988 73.0596 -281.993 77.7836 -268.437 81.4257C-230.543 91.6045 -195.405 92.3029 -157.294 57.7138C-130.587 33.4741 -112.252 0.740733 -96.5905 -33.7962C-89.5393 -49.3446 -83.0337 -65.2781 -76.5557 -81.019C-55.9297 -131.246 -32.4274 -183.722 7.51028 -214.825C18.4698 -223.361 30.1731 -229.821 42.2362 -234.995C62.2622 -243.583 83.4841 -248.335 105.957 -250.478C118.714 -251.696 131.831 -251.444 144.968 -250.296C165.904 -248.468 201.823 -238.041 235.799 -232.833C288.372 -224.775 341.537 -227.364 337.904 -286.45" stroke="url(#paint2_linear_0_1)" stroke-width="2" stroke-linecap="round" stroke-linejoin="round"/>
<path d="M-988.441 301.132C-909.546 327.008 -814.167 319.471 -745.665 275.366C-691.649 240.587 -643.938 195.591 -603.376 159.131C-593.852 150.57 -584.741 142.337 -575.747 134.583C-555.508 117.132 -537.778 101.181 -512.693 89.4381C-505.262 85.9595 -497.486 82.9618 -489.259 80.7243C-437.745 66.7219 -372.142 72.6399 -315.47 88.206C-300.683 92.2683 -286.396 95.6318 -272.587 97.9736C-234.399 104.45 -199.132 101.741 -161.725 66.8663C-134.98 41.9319 -116.04 8.94972 -99.7275 -25.8245C-92.3809 -41.4844 -85.5688 -57.5315 -78.824 -73.4449C-57.4574 -123.977 -33.9511 -176.883 4.23635 -210.779C14.6582 -220.03 25.7839 -227.398 37.1889 -233.675C56.235 -244.157 76.3893 -251.249 98.3589 -255.234C111.063 -257.538 124.27 -257.871 137.627 -256.888C159.832 -255.253 195.841 -243.881 229.312 -237.552C281.775 -227.634 335.975 -227.279 336.968 -284.299" stroke="url(#paint3_linear_0_1)" stroke-width="2" stroke-linecap="round" stroke-linejoin="round"/>
<path d="M-1014.69 292.121C-935.159 318.103 -836.098 311.23 -768.411 264.56C-714.117 227.123 -665.909 181.255 -621.31 150.841C-611.02 143.825 -601.003 137.492 -590.933 131.761C-568.932 119.239 -549.65 108.72 -523.658 101.582C-516.013 99.4826 -508.037 97.6864 -499.644 96.5516C-446.643 89.3811 -380.362 96.0048 -322.707 107.645C-307.587 110.699 -292.981 112.818 -278.876 113.935C-240.326 116.986 -204.87 110.935 -168.255 75.5388C-141.549 49.7242 -122.119 16.188 -105.288 -19.1665C-97.7061 -35.0912 -90.6542 -51.4142 -83.7022 -67.661C-61.7955 -119.012 -38.4815 -172.865 -2.14982 -209.815C7.71202 -219.844 18.2399 -228.177 28.972 -235.577C47.0192 -248.017 66.1118 -257.483 87.593 -263.224C100.257 -266.609 113.572 -267.46 127.177 -266.558C150.702 -265 186.921 -252.344 219.98 -244.673C272.482 -232.49 327.825 -228.939 333.184 -284.557" stroke="url(#paint4_linear_0_1)" stroke-width="2" stroke-linecap="round" stroke-linejoin="round"/>
<path d="M-1039.63 286.872C-959.72 312.121 -857.075 305.389 -789.989 256.439C-735.279 216.517 -686.46 170.077 -637.575 145.987C-626.516 140.536 -615.597 136.113 -604.364 132.484C-580.692 124.836 -559.688 119.891 -532.752 117.35C-524.894 116.608 -516.704 116.015 -508.156 115.94C-453.657 115.474 -386.832 122.235 -328.34 129.452C-312.924 131.355 -298.036 132.133 -283.658 131.906C-244.824 131.292 -209.19 121.711 -173.192 86.0835C-146.413 59.5823 -126.309 25.8601 -108.773 -9.6745C-100.869 -25.6864 -93.488 -42.0974 -86.2438 -58.4886C-63.515 -110.062 -40.0951 -164.227 -5.4596 -203.951C3.89206 -214.677 13.8515 -223.935 23.9463 -232.414C41.0367 -246.765 59.1014 -258.612 80.0967 -266.126C92.7247 -270.645 106.139 -272.066 119.971 -271.335C144.778 -270.024 181.089 -256.445 213.652 -247.749C266.055 -233.757 322.461 -227.402 332.513 -280.854" stroke="url(#paint5_linear_0_1)" stroke-width="2" stroke-linecap="round" stroke-linejoin="round"/>
<path d="M-1066.14 282.926C-985.76 307.457 -879.45 300.801 -812.858 249.582C-757.68 207.137 -708.244 159.983 -654.977 142.233C-643.157 138.297 -631.347 135.703 -618.924 134.225C-593.629 131.212 -570.859 131.903 -542.973 133.94C-534.902 134.53 -526.494 135.143 -517.784 136.109C-461.764 142.324 -394.324 149.138 -334.923 151.991C-319.187 152.749 -303.998 152.216 -289.324 150.64C-250.149 146.435 -214.292 133.293 -178.859 97.4241C-151.98 70.2099 -131.171 36.2812 -112.905 0.531271C-104.672 -15.5793 -96.9501 -32.0931 -89.4022 -48.6429C-65.8232 -100.485 -42.2508 -154.994 -9.27381 -197.501C-0.416246 -208.919 8.97965 -219.107 18.4581 -228.65C34.6128 -244.913 51.6744 -259.147 72.233 -268.388C84.8345 -274.054 98.3712 -276.028 112.443 -275.461C138.561 -274.411 174.986 -259.89 207.087 -250.192C259.428 -234.375 316.947 -225.276 331.7 -276.649" stroke="url(#paint6_linear_0_1)" stroke-width="2" stroke-linecap="round" stroke-linejoin="round"/>
<path d="M-1088.75 274.249C-1008.06 298.25 -898.386 291.816 -832.521 238.418C-777.098 193.486 -727.248 145.524 -669.777 134.265C-657.245 131.81 -644.559 131.003 -631.007 131.75C-604.132 133.232 -579.704 139.66 -550.959 146.321C-542.696 148.236 -534.1 150.084 -525.248 152.09C-467.883 165.093 -399.965 172.015 -339.784 170.67C-323.764 170.313 -308.302 168.526 -293.372 165.623C-253.943 157.954 -217.987 141.282 -183.262 105.191C-156.403 77.2745 -134.998 43.1317 -116.112 7.15017C-107.598 -9.06958 -99.5874 -25.6939 -91.7838 -42.4141C-67.5097 -94.5562 -43.9272 -149.431 -12.7707 -194.707C-4.44289 -206.805 4.34199 -217.922 13.1736 -228.512C28.3147 -246.67 44.3085 -263.275 64.3824 -274.18C76.9086 -280.983 90.5445 -283.471 104.824 -283.04C132.187 -282.214 168.654 -266.647 200.232 -255.892C252.395 -238.125 310.896 -226.214 330.209 -275.586" stroke="url(#paint7_linear_0_1)" stroke-width="2" stroke-linecap="round" stroke-linejoin="round"/>
<path d="M-1111.94 266.952C-1030.75 290.726 -917.55 284.668 -852.37 228.919C-796.714 181.315 -746.396 132.245 -684.677 127.646C-671.404 126.656 -657.786 127.632 -643.124 130.685C-614.522 136.638 -588.449 148.951 -558.802 160.353C-550.318 163.617 -541.528 166.734 -532.511 169.805C-473.696 189.823 -405.139 196.969 -344.064 191.558C-327.735 190.111 -311.971 187.109 -296.772 182.878C-257.012 171.808 -220.953 151.535 -186.931 115.079C-160.109 86.3353 -138.125 51.8204 -118.658 15.4266C-109.879 -0.983444 -101.595 -17.8076 -93.5559 -34.7827C-68.646 -87.4928 -45.105 -143.02 -15.813 -191.281C-8.01841 -204.12 0.13849 -216.216 8.32543 -227.898C22.4379 -248.035 37.3517 -267.101 56.9774 -279.672C69.4243 -287.645 83.1904 -290.625 97.7037 -290.295C126.362 -289.64 162.966 -272.84 194.106 -260.917C246.212 -240.968 305.838 -226.081 329.642 -273.714" stroke="url(#paint8_linear_0_1)" stroke-width="2" stroke-linecap="round" stroke-linejoin="round"/>
<path d="M-1137.46 258.227C-1055.63 282.277 -938.911 276.976 -874.588 218.624C-818.887 168.094 -768.185 117.597 -702.23 120.063C-688.189 120.587 -673.588 123.439 -657.828 128.934C-627.345 139.563 -599.599 158.078 -568.987 174.51C-560.254 179.198 -551.259 183.67 -542.046 187.876C-481.679 215.434 -412.391 223.086 -350.438 213.751C-333.805 211.246 -317.739 207.059 -302.295 201.493C-262.231 187.054 -226.183 163.059 -192.981 126.055C-166.302 96.3211 -143.853 61.2278 -123.933 24.1811C-114.949 7.47236 -106.453 -9.66371 -98.2392 -27.0119C-72.8792 -80.6509 -49.5658 -137.222 -22.3397 -188.827C-15.1266 -202.498 -7.65368 -215.667 -0.150777 -228.53C12.8368 -250.799 26.579 -272.485 45.7297 -286.774C58.0515 -295.966 71.9558 -299.411 86.7078 -299.12C116.678 -298.529 153.493 -280.177 184.269 -266.867C236.413 -244.316 297.28 -226.078 325.421 -272.237" stroke="url(#paint9_linear_0_1)" stroke-width="2" stroke-linecap="round" stroke-linejoin="round"/>
<path d="M-1162.04 248.96C-1079.82 272.29 -959.75 266.856 -895.78 206.521C-839.836 153.367 -788.226 101.97 -718.159 111.087C-703.347 113.013 -687.769 117.609 -670.994 125.356C-638.641 140.297 -609.38 164.474 -577.995 185.53C-569.032 191.491 -559.89 197.205 -550.51 202.416C-488.856 236.663 -418.942 244.088 -356.068 230.608C-339.138 226.932 -322.737 221.538 -307.036 214.603C-266.573 196.736 -230.482 169.074 -197.796 131.94C-171.115 101.468 -147.913 66.2568 -127.287 29.0282C-117.983 12.2343 -109.156 -4.9884 -100.646 -22.4803C-74.465 -76.3422 -50.9111 -133.154 -25.4747 -187.499C-18.7309 -201.825 -11.9057 -215.925 -4.97359 -229.807C6.98745 -253.968 19.7284 -278.017 38.5141 -293.928C50.7464 -304.29 64.8185 -308.264 79.797 -308.102C111.049 -307.849 147.909 -288.454 178.213 -274.209C230.18 -249.782 292.13 -228.942 324.93 -273.041" stroke="url(#paint10_linear_0_1)" stroke-width="2" stroke-linecap="round" stroke-linejoin="round"/>
<path d="M-1189.94 245.146C-1107.16 268.028 -983.345 262.853 -919.92 200.109C-851.681 132.598 -789.237 69.5762 -686.888 127.348C-642.766 152.252 -604.602 194.835 -561.416 223.05C-481.31 275.385 -388.838 273.359 -313.774 234.301C-238.711 195.246 -179.488 122.446 -132.638 39.8004C-85.7849 -42.8474 -50.1393 -135.812 -12.0236 -226.337C-1.03379 -252.443 10.5941 -278.999 29.0399 -296.572C67.1442 -332.871 126.276 -299.137 170.172 -276.69C222.071 -250.148 285.254 -226.523 322.692 -268.769" stroke="url(#paint11_linear_0_1)" stroke-width="2" stroke-linecap="round" stroke-linejoin="round"/>
</g>
</g>
<g clip-path="url(#clip1_0_1)">
<rect x="-1121" y="-527" width="1350" height="1819" rx="20" fill="white"/>
<g clip-path="url(#clip2_0_1)">
<rect x="-672" y="-236" width="862" height="1430" rx="19" fill="white"/>
<g clip-path="url(#clip3_0_1)">
<path d="M-103 -205C-103 -216.046 -94.0457 -225 -83 -225H171C182.046 -225 191 -216.046 191 -205V1207H-103V-205Z" fill="#F8F7F6"/>
</g>
<g clip-path="url(#clip4_0_1)">
<rect x="-80" y="-80" width="249" height="295" rx="9" fill="white"/>
<g clip-path="url(#clip5_0_1)">
<rect x="1" y="1" width="86" height="86" rx="43" fill="white"/>
<path fill-rule="evenodd" clip-rule="evenodd" d="M40.4553 23.1092C36.291 23.695 32.4391 26.2003 30.1109 29.8376C28.4279 32.4667 25.9043 39.7677 24.6325 45.6862C24.3549 46.9776 23.9725 49.3369 23.7825 50.9292C23.16 56.1451 23.8835 59.1483 26.661 62.8768C27.9608 64.6218 27.5185 65.3692 24.5019 66.5259C22.6125 67.2507 20.0846 68.4462 19.1573 69.0541C18.8227 69.2732 17.9731 70.0044 17.2689 70.6787C14.7596 73.0818 13.8664 75.7964 14.0159 80.5652C14.1004 83.2573 14.3987 83.9531 15.7854 84.6941C18.5577 86.1752 30.7845 88.3862 38.8035 88.8566C49.307 89.4727 62.3412 88.0649 71.0099 85.3783C74.7674 84.2139 75.117 83.6039 74.9748 78.4595C74.8755 74.8625 74.6123 73.8086 73.3792 72.0677C71.6561 69.6348 69.4337 68.1325 65.1859 66.5285C60.3393 64.6983 60.0919 64.2915 62.103 61.4554C64.859 57.5685 64.6656 50.2571 61.536 40.0208C59.3362 32.8258 57.61 28.8194 56.0692 27.3324C54.8803 26.1854 53.7738 25.6871 51.6046 25.3218C50.6309 25.1578 49.1364 24.7538 48.284 24.4239C45.0385 23.1687 42.7569 22.7856 40.4553 23.1092ZM52.3337 35.1708C53.5179 35.9317 54.3931 37.2814 55.3325 39.7951C56.0075 41.601 56.1458 41.8149 57.1108 42.5459C58.4067 43.5275 58.8879 44.3812 58.6985 45.3628C58.6228 45.7559 58.0766 46.958 57.4851 48.0342C56.8934 49.1103 56.0679 50.8985 55.6508 52.0079C55.2335 53.1171 54.3935 54.79 53.7839 55.7254C51.8424 58.704 51.5638 59.4338 51.9032 60.6502C52.2086 61.744 53.4297 62.6782 55.3688 63.3012C58.1964 64.2099 58.5991 64.9145 57.1548 66.4263C55.1455 68.5299 50.1041 70.8917 46.4899 71.4228C42.6529 71.9867 37.857 70.808 33.2654 68.1724C30.011 66.3042 29.4375 64.9745 31.4788 64.0291C31.7278 63.9139 32.7234 63.4601 33.691 63.0209C35.5857 62.1609 36.2346 61.5336 36.4297 60.3736C36.6152 59.2704 36.337 58.4244 35.2702 56.8473C34.0694 55.0727 33.2711 53.5784 32.4239 51.5209C32.0804 50.6862 31.3044 49.0927 30.6996 47.9798C29.0819 45.0036 29.2157 43.938 31.2801 43.3588C32.4093 43.0421 32.778 42.7356 34.4034 40.7642C36.3196 38.4395 37.7349 37.5461 41.3497 36.38C43.4938 35.6883 44.0228 35.5856 44.8963 35.6926C47.9425 36.0655 47.8843 36.0691 49.0657 35.4408C50.3539 34.7558 51.536 34.658 52.3337 35.1708Z" fill="#F93975"/>
</g>
<rect x="1" y="1" width="86" height="86" rx="43" stroke="#F93975" stroke-width="2"/>
</g>
<rect x="-80" y="-80" width="249" height="295" rx="9" stroke="#F93975" stroke-width="2" stroke-dasharray="4 4"/>
</g>
<rect x="-672" y="-236" width="862" height="1430" rx="19" stroke="#F93975" stroke-width="2" stroke-dasharray="4 4"/>
</g>
<rect x="-8560.5" y="-1604.5" width="32706" height="3481" stroke="black" stroke-width="5"/>
<defs>
<linearGradient id="paint0_linear_0_1" x1="-454.387" y1="-284.585" x2="-284.385" y2="3.7632" gradientUnits="userSpaceOnUse">
<stop stop-color="#DD2679"/>
<stop offset="1" stop-color="#62AFB5"/>
</linearGradient>
<linearGradient id="paint1_linear_0_1" x1="-340.226" y1="-93.9874" x2="-230.818" y2="114.438" gradientUnits="userSpaceOnUse">
<stop stop-color="#DD2679"/>
<stop offset="1" stop-color="#62AFB5"/>
</linearGradient>
<linearGradient id="paint2_linear_0_1" x1="-352.532" y1="-89.3178" x2="-251.77" y2="106.65" gradientUnits="userSpaceOnUse">
<stop stop-color="#DD2679"/>
<stop offset="1" stop-color="#62AFB5"/>
</linearGradient>
<linearGradient id="paint3_linear_0_1" x1="-363.272" y1="-87.8799" x2="-257.198" y2="116.698" gradientUnits="userSpaceOnUse">
<stop stop-color="#DD2679"/>
<stop offset="1" stop-color="#62AFB5"/>
</linearGradient>
<linearGradient id="paint4_linear_0_1" x1="-378.068" y1="-91.9483" x2="-262.872" y2="126.785" gradientUnits="userSpaceOnUse">
<stop stop-color="#DD2679"/>
<stop offset="1" stop-color="#62AFB5"/>
</linearGradient>
<linearGradient id="paint5_linear_0_1" x1="-390.718" y1="-92.3172" x2="-267.257" y2="139.097" gradientUnits="userSpaceOnUse">
<stop stop-color="#DD2679"/>
<stop offset="1" stop-color="#62AFB5"/>
</linearGradient>
<linearGradient id="paint6_linear_0_1" x1="-404.648" y1="-92.8817" x2="-271.884" y2="152.519" gradientUnits="userSpaceOnUse">
<stop stop-color="#DD2679"/>
<stop offset="1" stop-color="#62AFB5"/>
</linearGradient>
<linearGradient id="paint7_linear_0_1" x1="-417.214" y1="-98.0113" x2="-273.947" y2="162.553" gradientUnits="userSpaceOnUse">
<stop stop-color="#DD2679"/>
<stop offset="1" stop-color="#62AFB5"/>
</linearGradient>
<linearGradient id="paint8_linear_0_1" x1="-429.982" y1="-103.001" x2="-274.08" y2="175.276" gradientUnits="userSpaceOnUse">
<stop stop-color="#DD2679"/>
<stop offset="1" stop-color="#62AFB5"/>
</linearGradient>
<linearGradient id="paint9_linear_0_1" x1="-446.226" y1="-110.153" x2="-274.351" y2="189.529" gradientUnits="userSpaceOnUse">
<stop stop-color="#DD2679"/>
<stop offset="1" stop-color="#62AFB5"/>
</linearGradient>
<linearGradient id="paint10_linear_0_1" x1="-459.424" y1="-116.894" x2="-274.512" y2="200.074" gradientUnits="userSpaceOnUse">
<stop stop-color="#DD2679"/>
<stop offset="1" stop-color="#62AFB5"/>
</linearGradient>
<linearGradient id="paint11_linear_0_1" x1="-475.456" y1="-119.127" x2="-275.251" y2="217.517" gradientUnits="userSpaceOnUse">
<stop stop-color="#DD2679"/>
<stop offset="1" stop-color="#62AFB5"/>
</linearGradient>
<clipPath id="clip0_0_1">
<rect width="1439" height="897" fill="white" transform="translate(-1166 -357)"/>
</clipPath>
<clipPath id="clip1_0_1">
<rect x="-1121" y="-527" width="1350" height="1819" rx="20" fill="white"/>
</clipPath>
<clipPath id="clip2_0_1">
</clipPath>
<clipPath id="clip3_0_1">
<path d="M-103 -205C-103 -216.046 -94.0457 -225 -83 -225H171C182.046 -225 191 -216.046 191 -205V1207H-103V-205Z" fill="white"/>
</clipPath>
<clipPath id="clip4_0_1">
</clipPath>
<clipPath id="clip5_0_1">
</clipPath>
</defs>
</svg>
