<svg width="9" height="12" viewBox="0 0 9 12" fill="none" xmlns="http://www.w3.org/2000/svg">
<path d="M1.75147 0.332L2.66922 0.0553012C2.97211 -0.0358736 3.29782 -0.0137519 3.5856 0.11754C3.87338 0.248831 4.10357 0.480327 4.23323 0.768842L4.87665 2.19971C4.98832 2.44795 5.01945 2.72492 4.96566 2.99175C4.91187 3.25858 4.77586 3.50186 4.57673 3.68744L3.59739 4.59998C3.46615 4.72459 3.56565 5.21023 4.04513 6.04127C4.52509 6.87279 4.89607 7.20161 5.06711 7.15044L6.35016 6.75813C6.61024 6.67858 6.88868 6.68241 7.14647 6.76907C7.40426 6.85574 7.62847 7.0209 7.78767 7.24141L8.7021 8.50882C8.8868 8.76475 8.97232 9.07902 8.94278 9.39325C8.91324 9.70748 8.77064 10.0003 8.54148 10.2173L7.83457 10.8868C7.60637 11.1029 7.32492 11.2546 7.01895 11.3265C6.71298 11.3983 6.39342 11.3877 6.09289 11.2957C4.61179 10.8423 3.24015 9.49669 1.95947 7.27789C0.675948 5.05577 0.191252 3.18143 0.529071 1.65011C0.597205 1.34155 0.746397 1.05674 0.961268 0.825048C1.17614 0.593354 1.44891 0.423156 1.75147 0.332Z" fill="#1F1F1F"/>
</svg>
