<svg width="21" height="32" viewBox="0 0 21 32" fill="none" xmlns="http://www.w3.org/2000/svg">
<path fill-rule="evenodd" clip-rule="evenodd" d="M16.0603 12.9134V14.5243C16.0603 17.6158 13.559 20.1437 10.5 20.1437C7.44105 20.1437 4.9397 17.6158 4.9397 14.5243V12.9134H16.0603ZM21 11.3024C21 10.6147 20.4456 10.0543 19.7651 10.0543C19.0846 10.0543 18.5302 10.6147 18.5302 11.3024V14.5243C18.5302 18.9943 14.9199 22.6397 10.5 22.6397C6.07696 22.6397 2.46986 18.9911 2.46986 14.5243V11.3024C2.46986 10.6147 1.9154 10.0543 1.23493 10.0543C0.55446 10.0543 0 10.6147 0 11.3024V14.5243C0 19.9495 4.06076 24.4417 9.26508 25.0626V29.5039H6.17777C5.4973 29.5039 4.94284 30.0643 4.94284 30.752C4.94284 31.4397 5.4973 32 6.17777 32H9.26508H11.7349H14.8222C15.5027 32 16.0572 31.4397 16.0572 30.752C16.0572 30.0643 15.5027 29.5039 14.8222 29.5039H11.7349V25.0626C16.9424 24.4417 21 19.9495 21 14.5243V11.3024ZM11.1206 0C11.5522 0.0477564 11.968 0.146467 12.365 0.29292V3.69001C12.365 4.03385 12.6454 4.3172 12.9856 4.3172C13.3258 4.3172 13.6062 4.03385 13.6062 3.69001V0.929673C15.0837 1.94211 16.0603 3.65497 16.0603 5.58433V10.4173H4.9397V5.58433C4.9397 3.65497 5.91629 1.94211 7.39379 0.929673V3.69001C7.39379 4.03385 7.67417 4.3172 8.0144 4.3172C8.35464 4.3172 8.63501 4.03385 8.63501 3.69001V0.29292C9.03195 0.149651 9.4478 0.0509402 9.87624 0V5.54932C9.87624 5.89316 10.1566 6.17651 10.4969 6.17651C10.8371 6.17651 11.1175 5.89316 11.1175 5.54932V0H11.1206Z" fill="#F93975"/>
</svg>
