<svg width="19" height="19" viewBox="0 0 19 19" fill="none" xmlns="http://www.w3.org/2000/svg">
<path d="M17.4277 2.59033H12.8159C12.045 2.58981 11.2969 2.85187 10.6949 3.33334C10.0929 3.81482 9.6728 4.48699 9.50386 5.23913C9.33452 4.48719 8.91433 3.81527 8.31239 3.33387C7.71044 2.85246 6.96259 2.59024 6.19182 2.59033H1.58358C1.16364 2.59049 0.760939 2.75738 0.463994 3.05433C0.167049 3.35127 0.000157371 3.75397 0 4.17391V12.2824C0.000157371 12.7024 0.167049 13.1051 0.463994 13.402C0.760939 13.6989 1.16364 13.8658 1.58358 13.866H4.54233C7.91375 13.866 8.91959 14.6706 9.40114 16.3402C9.4243 16.4329 9.57274 16.4329 9.59886 16.3402C10.084 14.6711 11.0898 13.866 14.4577 13.866H17.4164C17.8364 13.8658 18.2391 13.6989 18.536 13.402C18.833 13.1051 18.9998 12.7024 19 12.2824V4.17748C19 3.75895 18.8347 3.35737 18.5399 3.06021C18.2452 2.76305 17.845 2.59437 17.4265 2.59093L17.4277 2.59033ZM7.98322 11.3449C7.98338 11.36 7.98051 11.3751 7.97477 11.3891C7.96904 11.4032 7.96056 11.4159 7.94983 11.4267C7.93911 11.4374 7.92634 11.4459 7.9123 11.4516C7.89825 11.4573 7.8832 11.4602 7.86803 11.46H2.57992C2.56478 11.4601 2.54976 11.4572 2.53575 11.4514C2.52174 11.4457 2.50901 11.4372 2.4983 11.4265C2.48758 11.4158 2.4791 11.403 2.47334 11.389C2.46758 11.375 2.46465 11.36 2.46473 11.3449V10.5896C2.46473 10.5272 2.51402 10.4744 2.57992 10.4744H7.871C7.93334 10.4744 7.98619 10.5237 7.98619 10.5896V11.3449H7.98322ZM7.98322 9.33614C7.9833 9.35129 7.98037 9.3663 7.97461 9.38031C7.96885 9.39432 7.96037 9.40705 7.94966 9.41777C7.93894 9.42848 7.92621 9.43696 7.9122 9.44272C7.89819 9.44848 7.88318 9.45141 7.86803 9.45133H2.57992C2.56478 9.45141 2.54976 9.44848 2.53575 9.44272C2.52174 9.43696 2.50901 9.42848 2.4983 9.41777C2.48758 9.40705 2.4791 9.39432 2.47334 9.38031C2.46758 9.3663 2.46465 9.35129 2.46473 9.33614V8.58086C2.46473 8.51792 2.51402 8.46567 2.57992 8.46567H7.871C7.93334 8.46567 7.98619 8.51496 7.98619 8.58086V9.33614H7.98322ZM7.98322 7.32742C7.9833 7.34257 7.98037 7.35758 7.97461 7.37159C7.96885 7.3856 7.96037 7.39833 7.94966 7.40905C7.93894 7.41976 7.92621 7.42824 7.9122 7.434C7.89819 7.43976 7.88318 7.44269 7.86803 7.44261H2.57992C2.56478 7.44269 2.54976 7.43976 2.53575 7.434C2.52174 7.42824 2.50901 7.41976 2.4983 7.40905C2.48758 7.39833 2.4791 7.3856 2.47334 7.37159C2.46758 7.35758 2.46465 7.34257 2.46473 7.32742V6.57215C2.46473 6.5098 2.51402 6.45695 2.57992 6.45695H7.871C7.93334 6.45695 7.98619 6.50624 7.98619 6.57215V7.32742H7.98322ZM16.537 11.3419C16.5371 11.357 16.5342 11.3721 16.5284 11.3861C16.5227 11.4001 16.5142 11.4128 16.5035 11.4235C16.4928 11.4342 16.48 11.4427 16.466 11.4485C16.452 11.4542 16.437 11.4572 16.4219 11.4571H11.1338C11.1186 11.4572 11.1036 11.4542 11.0896 11.4485C11.0756 11.4427 11.0628 11.4342 11.0521 11.4235C11.0414 11.4128 11.0329 11.4001 11.0272 11.3861C11.0214 11.3721 11.0185 11.357 11.0186 11.3419V10.5866C11.0186 10.5243 11.0678 10.4714 11.1338 10.4714H16.4248C16.4878 10.4714 16.54 10.5207 16.54 10.5866V11.3419H16.537ZM16.537 9.33317C16.5372 9.34834 16.5343 9.36339 16.5286 9.37744C16.5229 9.39149 16.5144 9.40425 16.5037 9.41498C16.4929 9.4257 16.4802 9.43418 16.4661 9.43992C16.4521 9.44565 16.437 9.44852 16.4219 9.44836H11.1338C11.1186 9.44844 11.1036 9.44551 11.0896 9.43975C11.0756 9.43399 11.0628 9.42551 11.0521 9.4148C11.0414 9.40408 11.0329 9.39135 11.0272 9.37734C11.0214 9.36333 11.0185 9.34832 11.0186 9.33317V8.57789C11.0186 8.51555 11.0678 8.4627 11.1338 8.4627H16.4248C16.4878 8.4627 16.54 8.51199 16.54 8.57789V9.33317H16.537ZM16.537 7.32386C16.5371 7.33901 16.5342 7.35402 16.5284 7.36803C16.5227 7.38204 16.5142 7.39477 16.5035 7.40548C16.4928 7.4162 16.48 7.42468 16.466 7.43044C16.452 7.4362 16.437 7.43913 16.4219 7.43905H11.1338C11.1186 7.43913 11.1036 7.4362 11.0896 7.43044C11.0756 7.42468 11.0628 7.4162 11.0521 7.40548C11.0414 7.39477 11.0329 7.38204 11.0272 7.36803C11.0214 7.35402 11.0185 7.33901 11.0186 7.32386V6.57155C11.0186 6.50921 11.0678 6.45636 11.1338 6.45636H16.4248C16.4878 6.45636 16.54 6.50564 16.54 6.57155V7.32386H16.537Z" fill="#F2915E"/>
</svg>
