<svg width="28" height="27" viewBox="0 0 28 27" fill="none" xmlns="http://www.w3.org/2000/svg">
<path d="M22.1497 16.4368C21.8044 16.7714 21.6457 17.2554 21.7244 17.7301L22.9097 24.2901C23.0097 24.8461 22.775 25.4088 22.3097 25.7301C21.8537 26.0634 21.247 26.1034 20.7497 25.8368L14.8444 22.7568C14.639 22.6474 14.411 22.5888 14.1777 22.5821H13.8164C13.691 22.6008 13.5684 22.6408 13.4564 22.7021L7.5497 25.7968C7.2577 25.9434 6.92703 25.9954 6.60303 25.9434C5.8137 25.7941 5.28703 25.0421 5.41636 24.2488L6.60303 17.6888C6.6817 17.2101 6.52303 16.7234 6.1777 16.3834L1.36303 11.7168C0.960364 11.3261 0.820364 10.7394 1.00436 10.2101C1.18303 9.68209 1.63903 9.29676 2.1897 9.21009L8.81636 8.24876C9.32036 8.19676 9.76303 7.89009 9.9897 7.43676L12.9097 1.45009C12.979 1.31676 13.0684 1.19409 13.1764 1.09009L13.2964 0.996758C13.359 0.927424 13.431 0.870091 13.511 0.823424L13.6564 0.770091L13.883 0.676758H14.4444C14.9457 0.728758 15.387 1.02876 15.6177 1.47676L18.5764 7.43676C18.7897 7.87276 19.2044 8.17542 19.683 8.24876L26.3097 9.21009C26.8697 9.29009 27.3377 9.67676 27.523 10.2101C27.6977 10.7448 27.547 11.3314 27.1364 11.7168L22.1497 16.4368Z" fill="#919090"/>
</svg>
