<svg width="21" height="29" viewBox="0 0 21 29" fill="none" xmlns="http://www.w3.org/2000/svg">
<path fill-rule="evenodd" clip-rule="evenodd" d="M8.07589 23.4962H6.72991L7.53749 14.1416C7.53749 12.4913 8.88348 11.116 10.4987 11.116C12.1138 11.116 13.4598 12.4913 13.4598 14.1416L14.2674 23.4962H12.9214L11.8446 29H8.88348L8.07589 23.4962ZM12.9241 7.81541C12.3857 8.91563 11.5781 9.74078 10.5013 9.74078C9.42456 9.74078 8.34778 8.91563 7.80938 7.81541C7.54019 7.81541 7.0018 7.81541 6.7326 7.26531C6.7326 7.26531 6.7326 7.26531 6.7326 6.99025C6.4634 7.26531 6.19421 7.26531 5.92501 6.99025C5.65582 6.7152 5.65582 6.1651 5.65582 5.89004C5.65582 5.89004 5.92501 5.89004 5.92501 5.61499C5.65582 5.61499 5.65582 5.61499 5.65582 5.61499C5.38662 5.61499 5.38662 5.06488 5.38662 5.06488C5.38662 4.78983 5.65582 4.78983 5.92501 4.78983C5.65582 4.51478 5.65582 3.96467 5.65582 3.68962C5.92501 3.41457 5.92501 3.41457 6.19421 3.41457C5.92501 3.13951 5.92501 2.86446 5.92501 2.58941C6.19421 2.31435 6.4634 2.31435 6.7326 2.31435C6.7326 2.31435 6.7326 2.31435 6.7326 2.58941C6.7326 2.31435 6.7326 2.0393 6.7326 1.76425C7.0018 1.4892 7.27099 1.21414 7.80938 1.4892C7.54019 1.21414 7.54019 1.21414 7.80938 0.93909C7.80938 0.664037 8.07858 0.664037 8.34778 0.664037L8.61697 0.93909V0.664037C8.88617 0.388984 9.42456 0.113931 9.69376 0.388984C9.69376 0.388984 9.96295 0.388984 9.96295 0.664037C9.96295 0.388984 9.96295 0.388984 9.96295 0.388984C10.2322 0.113931 10.5013 -0.161122 10.7705 0.113931C10.7705 0.113931 11.0397 0.388984 11.0397 0.664037C11.0397 0.388984 11.5781 0.113931 11.8473 0.388984C12.1165 0.664037 12.1165 0.664037 12.3857 0.93909C12.3857 0.664037 12.6549 0.664037 12.9241 0.664037C13.1933 0.93909 13.1933 1.21414 13.1933 1.4892C13.1933 1.4892 13.4625 1.4892 13.7317 1.4892C14.0009 1.76425 14.2701 2.0393 14.0009 2.58941C14.2701 2.31435 14.5393 2.31435 14.5393 2.31435C14.8085 2.58941 15.0777 2.86446 14.8085 3.13951C14.8085 3.13951 14.8085 3.41457 14.5393 3.41457C14.8085 3.41457 14.8085 3.41457 14.8085 3.41457C15.0777 3.68962 15.3469 4.23973 15.0777 4.51478V4.78983C15.0777 4.78983 15.0777 4.78983 15.3469 4.78983C15.6161 4.78983 15.6161 5.33994 15.3469 5.33994C15.3469 5.61499 15.0777 5.61499 15.0777 5.61499C15.3469 5.89004 15.3469 6.44015 15.0777 6.7152C14.8085 6.99025 14.5393 7.26531 14.2701 6.99025C14.0009 7.26531 14.0009 7.26531 14.0009 7.26531C13.7317 7.81541 13.4625 7.81541 12.9241 7.81541ZM5.92232 12.2163C5.38392 11.3911 4.57634 11.116 3.76875 11.116C2.15357 11.116 0.807589 12.4913 0.807589 14.1416L0 23.4962H1.34598L2.15357 29H5.11473L5.65312 25.4243H4.30714L5.38392 14.1444C5.38392 13.3165 5.65312 12.7664 5.92232 12.2163ZM3.49955 3.68687C1.88437 3.68687 0.807589 5.06213 0.807589 6.71245C0.807589 8.36277 2.15357 9.73803 3.76875 9.73803C4.30714 9.73803 4.84553 9.46298 5.38392 9.18793C5.11473 8.91287 5.11473 8.91287 4.84553 8.91287C4.03794 8.36277 3.49955 7.53761 3.49955 6.4374C3.23035 5.61224 3.23035 4.78708 3.49955 3.96192V3.68687ZM15.0777 12.2163C15.6161 11.3911 16.4237 11.116 17.2313 11.116C18.8464 11.116 20.1924 12.4913 20.1924 14.1416L21 23.4962H19.654L18.8464 29H15.6161L15.0777 25.4243H16.4237L15.3469 14.1444C15.3469 13.3165 15.3469 12.7664 15.0777 12.2163ZM17.2313 3.68687C18.8464 3.68687 20.1924 5.06213 20.1924 6.71245C20.1924 8.36277 18.8464 9.73803 17.2313 9.73803C16.6929 9.73803 15.8853 9.46298 15.6161 9.18793C16.1545 8.91287 16.6929 8.36277 16.9621 7.81266C17.2313 7.26255 17.2313 6.9875 17.2313 6.4374C17.7696 5.61224 17.7696 4.78708 17.2313 3.96192V3.68687Z" fill="#F93975"/>
</svg>
