<svg width="12" height="12" viewBox="0 0 12 12" fill="none" xmlns="http://www.w3.org/2000/svg">
<g clip-path="url(#clip0_3_2379)">
<path d="M8.16617 7.19763C8.21166 6.82231 8.24578 6.44698 8.24578 6.06028C8.24578 5.67358 8.21166 5.29826 8.16617 4.92293H10.0883C10.1793 5.28688 10.2361 5.6679 10.2361 6.06028C10.2361 6.45267 10.1793 6.83368 10.0883 7.19763H8.16617ZM7.15961 10.3595C7.50082 9.72823 7.76241 9.04582 7.94439 8.33498H9.62198C9.07103 9.28369 8.19694 10.0023 7.15961 10.3595V10.3595ZM7.01745 7.19763H4.35605C4.29918 6.82231 4.26506 6.44698 4.26506 6.06028C4.26506 5.67358 4.29918 5.29257 4.35605 4.92293H7.01745C7.06863 5.29257 7.10843 5.67358 7.10843 6.06028C7.10843 6.44698 7.06863 6.82231 7.01745 7.19763ZM5.68675 10.5869C5.21475 9.90452 4.83373 9.14819 4.60058 8.33498H6.77292C6.53976 9.14819 6.15875 9.90452 5.68675 10.5869ZM3.41205 3.78558H1.75152C2.29679 2.83431 3.17025 2.11452 4.20819 1.7611C3.86699 2.39233 3.61108 3.07474 3.41205 3.78558ZM1.75152 8.33498H3.41205C3.61108 9.04582 3.86699 9.72823 4.20819 10.3595C3.17242 10.0021 2.3002 9.28337 1.75152 8.33498V8.33498ZM1.2852 7.19763C1.19422 6.83368 1.13735 6.45267 1.13735 6.06028C1.13735 5.6679 1.19422 5.28688 1.2852 4.92293H3.20733C3.16183 5.29826 3.12771 5.67358 3.12771 6.06028C3.12771 6.44698 3.16183 6.82231 3.20733 7.19763H1.2852ZM5.68675 1.52794C6.15875 2.21035 6.53976 2.97238 6.77292 3.78558H4.60058C4.83373 2.97238 5.21475 2.21035 5.68675 1.52794V1.52794ZM9.62198 3.78558H7.94439C7.7664 3.08126 7.50285 2.40137 7.15961 1.7611C8.20598 2.11937 9.07605 2.84158 9.62198 3.78558ZM5.68675 0.373535C2.54198 0.373535 0 2.93257 0 6.06028C0 7.5685 0.599138 9.01495 1.66561 10.0814C2.19367 10.6095 2.82057 11.0284 3.51052 11.3142C4.20047 11.5999 4.93995 11.747 5.68675 11.747C7.19497 11.747 8.64141 11.1479 9.70788 10.0814C10.7744 9.01495 11.3735 7.5685 11.3735 6.06028C11.3735 5.31349 11.2264 4.57401 10.9406 3.88406C10.6548 3.19411 10.2359 2.56721 9.70788 2.03914C9.17982 1.51108 8.55292 1.0922 7.86297 0.806413C7.17302 0.520627 6.43354 0.373535 5.68675 0.373535V0.373535Z" fill="white"/>
</g>
<defs>
<clipPath id="clip0_3_2379">
<rect width="11.3735" height="11.3735" fill="white" transform="translate(0 0.373535)"/>
</clipPath>
</defs>
</svg>
