<svg width="28" height="28" viewBox="0 0 28 28" fill="none" xmlns="http://www.w3.org/2000/svg">
<path d="M27.0799 15.0871C27.1759 15.1411 27.1951 15.2556 27.199 15.2992L27.1999 15.3166L27.0932 22.2026C27.0932 24.9495 24.9649 27.1894 22.285 27.3267L22.024 27.3334H5.96264C3.24878 27.3334 1.0357 25.1793 0.900028 22.4668L0.893437 22.2026L0.800057 15.3166C0.800057 15.3166 0.800057 15.1546 0.920117 15.0871C1.02684 15.0196 1.16024 15.1006 1.17358 15.1141C3.86826 16.9233 7.10988 18.125 10.5116 18.6246C10.9918 18.6921 11.4721 18.3816 11.6055 17.8955C11.8806 16.8575 12.7302 16.1518 13.7697 16.0677L13.98 16.0592H14.02C15.1539 16.0592 16.101 16.7883 16.3945 17.8955C16.5279 18.3816 17.0082 18.6921 17.4884 18.6246C20.8901 18.125 24.1317 16.9233 26.8264 15.1141C26.8264 15.1141 26.8531 15.1006 26.8798 15.0871C26.9331 15.0601 27.0132 15.0466 27.0799 15.0871ZM13.9933 17.99C13.492 17.99 13.0691 18.3757 13.0021 18.8664L12.9928 19.0027V20.7444C12.9928 21.3115 13.4464 21.7571 13.9933 21.7571C14.5069 21.7571 14.9196 21.3827 14.9848 20.8835L14.9938 20.7444V19.0027C14.9938 18.4491 14.5536 17.99 13.9933 17.99ZM15.7142 0.666748C17.7152 0.666748 19.356 2.19248 19.6095 4.15027H22.2508C25.0522 4.15027 27.3333 6.45912 27.3333 9.29455C27.3333 9.29455 27.2533 10.4949 27.2266 12.1664C27.2239 12.2988 27.1599 12.4284 27.0545 12.5067C26.4129 12.9806 25.8259 13.3722 25.7725 13.3992C23.5581 14.8844 20.9848 15.9295 18.2434 16.4493C18.0647 16.4844 17.8886 16.3912 17.7979 16.2319C17.0295 14.9006 15.5941 14.0338 13.9933 14.0338C12.4032 14.0338 10.9545 14.8911 10.1634 16.2238C10.0714 16.3804 9.89794 16.4709 9.72052 16.4371C7.00182 15.916 4.42854 14.8722 2.22744 13.4127L0.946797 12.5215C0.840077 12.454 0.773377 12.3325 0.773377 12.1975C0.733357 11.5089 0.666656 9.29455 0.666656 9.29455C0.666656 6.45912 2.9478 4.15027 5.7492 4.15027H8.37718C8.63064 2.19248 10.2715 0.666748 12.2725 0.666748H15.7142ZM15.7142 2.69205H12.2725C11.3787 2.69205 10.6183 3.31315 10.4049 4.15027H17.5818C17.3683 3.31315 16.608 2.69205 15.7142 2.69205Z" fill="#919090"/>
</svg>
