<svg width="21" height="22" viewBox="0 0 21 22" fill="none" xmlns="http://www.w3.org/2000/svg">
<path fill-rule="evenodd" clip-rule="evenodd" d="M3.8794 4.00762C7.32684 0.445636 12.9169 0.445636 16.3625 4.00762L16.368 4.01336C14.7982 6.50867 12.6908 8.94077 10.6723 11.0263C8.65392 13.1117 6.29816 15.2891 3.8831 16.9112L3.87754 16.9054C0.433805 13.3435 0.431953 7.56768 3.8794 4.00762ZM20.4735 3.18989C22.4344 -1.85242 18.4254 0.062625 16.4996 2.28216C17.6803 1.54487 19.986 0.0377301 18.6979 2.64794C18.4476 3.15351 18.101 3.77015 17.671 4.47297C16.3588 6.61782 14.2366 9.29697 11.6176 12.0029C8.99867 14.7089 6.40567 16.8997 4.32979 18.2575C3.64957 18.7017 3.05275 19.0599 2.56343 19.3184C0.0371582 20.6493 1.49769 18.267 2.20942 17.0471C0.0594047 19.0369 -1.79221 23.181 3.08797 21.153C3.77745 20.8657 4.53737 20.4521 5.34549 19.9255C5.80885 19.6229 6.29446 19.282 6.79675 18.9086C9.21367 19.9216 11.9753 19.7838 14.2977 18.4949L16.622 19.1384L19.2187 19.8565L18.5236 17.1735L17.9009 14.7721C19.1482 12.3725 19.2817 9.51911 18.3012 7.02189C18.6626 6.501 18.9926 6.00118 19.2854 5.52242C19.7951 4.68554 20.1954 3.90229 20.4735 3.18989Z" fill="#F93975"/>
</svg>
